<svg width="234" height="207" viewBox="0 0 234 207" fill="none" xmlns="http://www.w3.org/2000/svg">
<path fill-rule="evenodd" clip-rule="evenodd" d="M209.488 122.142L208.889 122.983L208.314 123.812L207.763 124.63L207.239 125.437L206.739 126.236L206.265 127.026L205.816 127.809L205.392 128.586L204.992 129.358L204.617 130.125L204.266 130.888L203.937 131.649L203.63 132.408L203.344 133.166L203.079 133.923L202.832 134.681L202.603 135.439L202.391 136.199L202.194 136.96L202.012 137.724L201.842 138.49L201.685 139.259L201.538 140.031L201.4 140.807L201.271 141.586L201.15 142.369L201.034 143.156L200.924 143.948L200.818 144.743L200.716 145.543L200.617 146.346L200.519 147.155L200.423 147.968L200.328 148.786L200.234 149.608L200.14 150.436L200.047 151.268L199.954 152.107L199.861 152.951L199.769 153.8L199.677 154.657L199.584 155.52L199.492 156.389L199.399 157.266L199.306 158.15L199.212 159.04L199.117 159.939L199.021 160.846L198.923 161.759L198.823 162.681L198.72 163.611L198.615 164.549L198.506 165.494L198.393 166.447L198.275 167.408L198.152 168.376L198.023 169.352L197.888 170.334L197.745 171.323L197.594 172.318L197.434 173.319L197.264 174.324L197.083 175.335L196.892 176.349L196.687 177.366L196.469 178.385L196.237 179.406L195.99 180.427L195.727 181.447L195.447 182.466L195.149 183.482L194.833 184.494L194.497 185.501L194.14 186.501L193.763 187.493L193.364 188.476L192.943 189.448L192.499 190.408L192.031 191.355L191.539 192.287L191.023 193.201L190.482 194.098L189.915 194.975L189.324 195.832L188.706 196.665L188.064 197.475L187.395 198.258L186.701 199.015L185.982 199.743L185.237 200.442L184.468 201.109L183.674 201.744L182.857 202.346L182.016 202.912L181.152 203.444L180.266 203.938L179.359 204.395L178.432 204.814L177.486 205.194L176.521 205.535L175.539 205.836L174.541 206.097L173.528 206.318L172.501 206.498L171.463 206.639L170.413 206.74L169.353 206.801L168.285 206.824L167.211 206.809L166.13 206.756L165.046 206.667L163.959 206.543L162.871 206.384L161.783 206.193L160.696 205.971L159.612 205.719L158.531 205.438L157.455 205.129L156.385 204.794L155.321 204.434L154.265 204.05L153.217 203.643L152.178 203.216L151.149 202.769L150.131 202.302L149.123 201.819L148.127 201.32L147.144 200.805L146.173 200.277L145.214 199.737L144.269 199.186L143.338 198.626L142.42 198.056L141.517 197.479L140.628 196.895L139.752 196.306L138.891 195.712L138.044 195.115L137.211 194.515L136.393 193.913L135.589 193.311L134.798 192.709L134.021 192.109L133.258 191.512L132.509 190.918L131.772 190.33L131.048 189.748L130.337 189.172L129.638 188.606L128.95 188.048L128.273 187.501L127.607 186.966L126.951 186.443L126.304 185.934L125.666 185.44L125.036 184.961L124.414 184.499L123.798 184.055L123.188 183.629L122.583 183.222L121.982 182.835L121.385 182.468L120.789 182.123L120.196 181.8L119.603 181.499L119.01 181.221L118.415 180.966L117.818 180.734L117.218 180.527L116.614 180.343L116.005 180.183L115.39 180.046L114.768 179.934L114.138 179.845L113.499 179.78L112.851 179.737L112.192 179.717L111.522 179.719L110.84 179.743L110.146 179.787L109.437 179.852L108.715 179.936L107.978 180.038L107.226 180.157L106.457 180.294L105.673 180.446L104.872 180.612L104.054 180.792L103.219 180.985L102.366 181.188L101.495 181.402L100.606 181.624L99.6986 181.853L98.7733 182.089L97.8303 182.33L96.8688 182.575L95.889 182.821L94.8919 183.07L93.877 183.317L92.8443 183.564L91.7949 183.808L90.7285 184.047L89.6459 184.282L88.5473 184.51L87.4333 184.731L86.3041 184.942L85.1605 185.145L84.0025 185.335L82.8317 185.514L81.648 185.68L80.4522 185.832L79.2451 185.969L78.0273 186.09L76.799 186.194L75.5608 186.282L74.3131 186.352L73.0564 186.403L71.791 186.438L70.5168 186.453L69.234 186.451L67.9428 186.43L66.6434 186.39L65.3359 186.332L64.0202 186.255L62.6965 186.159L61.3648 186.044L60.0256 185.911L58.6784 185.758L57.324 185.586L55.9625 185.395L54.5945 185.183L53.2201 184.952L51.8404 184.699L50.4558 184.425L49.0673 184.128L47.6763 183.81L46.2829 183.468L44.8888 183.102L43.4947 182.712L42.1022 182.298L40.7115 181.858L39.3246 181.392L37.9422 180.9L36.5655 180.382L35.196 179.837L33.8345 179.265L32.4829 178.665L31.1419 178.038L29.8131 177.383L28.4977 176.7L27.197 175.989L25.9124 175.25L24.6452 174.483L23.3968 173.688L22.1686 172.864L20.9618 172.013L19.7778 171.134L18.6179 170.228L17.4834 169.294L16.3758 168.334L15.2962 167.347L14.2459 166.334L13.2261 165.296L12.2381 164.232L11.2829 163.144L10.3619 162.033L9.47596 160.898L8.62623 159.74L7.81365 158.561L7.03925 157.361L6.30383 156.141L5.6083 154.902L4.95337 153.644L4.33981 152.37L3.76824 151.079L3.23925 149.772L2.75336 148.452L2.31103 147.118L1.91259 145.772L1.55839 144.416L1.24866 143.049L0.983614 141.674L0.763261 140.291L0.587751 138.902L0.456931 137.507L0.370765 136.109L0.329102 134.707L0.331637 133.304L0.378144 131.9L0.468246 130.496L0.601525 129.094L0.77749 127.694L0.99561 126.298L1.25528 124.907L1.5559 123.521L1.89674 122.142L2.27697 120.771L2.69588 119.409L3.15256 118.056L3.64609 116.714L4.1755 115.383L4.73979 114.064L5.33792 112.758L5.96882 111.465L6.63139 110.187L7.32443 108.923L8.04675 107.675L8.79723 106.443L9.57454 105.227L10.3775 104.029L11.2047 102.848L12.0549 101.684L12.9264 100.539L13.8177 99.4112L14.7271 98.302L15.6529 97.2111L16.5933 96.1382L17.5465 95.0832L18.5106 94.0464L19.4838 93.0273L20.4643 92.0252L21.4501 91.0398L22.4393 90.0711L23.4303 89.1178L24.421 88.1794L25.4098 87.2553L26.3949 86.3448L27.3746 85.4468L28.3472 84.5605L29.3111 83.6853L30.2649 82.8194L31.2069 81.9619L32.1357 81.112L33.0501 80.2685L33.9488 79.4299L34.8309 78.5951L35.6952 77.763L36.5413 76.9328L37.3682 76.1021L38.1753 75.2711L38.9624 74.4378L39.7295 73.6015L40.4761 72.7611L41.2023 71.9153L41.9084 71.0639L42.5945 70.2049L43.2613 69.3383L43.9087 68.4634L44.5377 67.5786L45.1488 66.6844L45.7433 65.7793L46.3212 64.8635L46.8842 63.9364L47.4329 62.9975L47.9688 62.0469L48.4929 61.0842L49.006 60.1094L49.5101 59.1225L50.0058 58.1239L50.4947 57.1135L50.9784 56.0914L51.4578 55.0587L51.9346 54.015L52.4099 52.9611L52.8852 51.8977L53.362 50.8253L53.8415 49.7449L54.3247 48.6566L54.8132 47.5618L55.3086 46.461L55.8115 45.3553L56.3231 44.2457L56.8446 43.1328L57.377 42.0176L57.9216 40.9017L58.479 39.7853L59.05 38.6701L59.6358 37.5568L60.2367 36.4465L60.8536 35.3402L61.487 34.2389L62.1375 33.1437L62.8058 32.0556L63.4919 30.9756L64.1965 29.9045L64.9193 28.8434L65.6614 27.7931L66.4224 26.7546L67.2023 25.7286L68.0011 24.716L68.8193 23.7175L69.6567 22.7338L70.5131 21.7657L71.388 20.8138L72.2814 19.8787L73.1934 18.9609L74.1235 18.061L75.0715 17.1794L76.0368 16.3166L77.0192 15.4729L78.0182 14.6487L79.0335 13.8442L80.0647 13.0598L81.1114 12.2957L82.1729 11.5521L83.2491 10.8292L84.339 10.1271L85.4424 9.44594L86.5591 8.78587L87.688 8.14702L88.8293 7.52952L89.9823 6.93366L91.1463 6.35967L92.3217 5.80787L93.5073 5.27865L94.7027 4.77244L95.9083 4.28965L97.1231 3.83082L98.3469 3.3965L99.579 2.98729L100.819 2.60382L102.067 2.24674L103.323 1.91678L104.585 1.61463L105.854 1.34106L107.128 1.09683L108.408 0.882713L109.693 0.699506L110.982 0.547991L112.275 0.428955L113.57 0.343164L114.868 0.291374L116.167 0.274292L117.468 0.29257L118.768 0.346786L120.068 0.437462L121.366 0.565035L122.662 0.729855L123.954 0.932187L125.243 1.17221L126.526 1.45L127.803 1.76554L129.074 2.11869L130.337 2.50922L131.591 2.93679L132.836 3.40094L134.071 3.90109L135.294 4.43659L136.505 5.00664L137.704 5.61033L138.889 6.24664L140.06 6.91447L141.216 7.61258L142.357 8.33963L143.481 9.09416L144.589 9.87473L145.681 10.6797L146.755 11.5073L147.812 12.3558L148.852 13.2233L149.874 14.1079L150.878 15.0077L151.865 15.9206L152.835 16.8445L153.787 17.7774L154.723 18.7169L155.642 19.6612L156.546 20.6078L157.435 21.5548L158.31 22.5L159.171 23.4413L160.019 24.3764L160.856 25.3035L161.682 26.2205L162.499 27.1255L163.307 28.0166L164.108 28.892L164.903 29.7501L165.694 30.5892L166.483 31.4078L167.269 32.2046L168.055 32.9783L168.843 33.7277L169.634 34.4519L170.428 35.1499L171.229 35.821L172.037 36.4647L172.854 37.0804L173.681 37.668L174.52 38.2274L175.372 38.7583L176.238 39.2612L177.119 39.7361L178.017 40.1838L178.933 40.605L179.867 41.0004L180.821 41.3705L181.795 41.7172L182.79 42.0411L183.806 42.3438L184.844 42.6269L185.904 42.8918L186.986 43.1404L188.091 43.3746L189.217 43.596L190.365 43.8068L191.534 44.0089L192.724 44.2049L193.933 44.3967L195.162 44.5871L196.407 44.7782L197.669 44.9731L198.944 45.1736L200.232 45.3833L201.531 45.6039L202.837 45.8389L204.149 46.0905L205.464 46.3615L206.78 46.654L208.093 46.9707L209.401 47.3136L210.702 47.6848L211.991 48.0867L213.266 48.5204L214.525 48.9877L215.764 49.4902L216.979 50.0287L218.17 50.6051L219.333 51.2189L220.464 51.8713L221.562 52.5626L222.624 53.293L223.649 54.0623L224.633 54.8702L225.574 55.7167L226.471 56.6015L227.322 57.5233L228.125 58.4818L228.878 59.4759L229.579 60.5045L230.228 61.5667L230.824 62.6615L231.364 63.7865L231.848 64.9414L232.276 66.1236L232.648 67.3319L232.962 68.5644L233.218 69.8193L233.417 71.0949L233.559 72.3891L233.644 73.6996L233.673 75.0252L233.646 76.3629L233.565 77.7115L233.43 79.0682L233.242 80.4316L233.004 81.7996L232.715 83.1702L232.379 84.5412L231.997 85.9111L231.571 87.2776L231.102 88.6395L230.593 89.9942L230.046 91.341L229.464 92.678L228.848 94.0036L228.201 95.3167L227.528 96.6158L226.827 97.8994L226.105 99.1671L225.362 100.418L224.602 101.65L223.826 102.863L223.039 104.058L222.241 105.232L221.437 106.386L220.629 107.519L219.819 108.631L219.009 109.722L218.203 110.793L217.401 111.843L216.608 112.872L215.823 113.88L215.051 114.869L214.292 115.839L213.548 116.79L212.821 117.723L212.113 118.638L211.424 119.537L210.756 120.42L210.11 121.288L209.488 122.142Z" fill="#FEE7FF"/>
</svg>
