<svg width="474" height="80" viewBox="0 0 474 80" fill="none" xmlns="http://www.w3.org/2000/svg">
<path d="M45.2075 35.8054V0L90.4119 79.5036H70.0538L45.2075 35.8054Z" fill="#0E7B68"/>
<path d="M20.3582 79.5036H0L45.2042 0V35.8054L20.3582 79.5036Z" fill="#0E7B68"/>
<path d="M45.2109 62.7549L35.6877 79.5038H45.2109H54.7343L45.2109 62.7549Z" fill="#0E7B68"/>
<path d="M77.0365 55.9868C73.7818 61.2691 69.2892 65.6839 63.969 68.8098L70.0505 79.5062H90.4086L77.0365 55.9868Z" fill="#0E7B68"/>
<path d="M13.3725 55.9868L0 79.5062H20.3582L26.4399 68.8098C21.1197 65.6839 16.627 61.2691 13.3725 55.9868Z" fill="#0E7B68"/>
<path d="M39.1521 73.4126L35.6877 79.5057H45.2109H54.7342L51.2698 73.4126C49.2972 73.7378 47.2739 73.9096 45.2109 73.9096C43.148 73.909 41.1247 73.7372 39.1521 73.4126Z" fill="#0E7B68"/>
<path d="M46.6335 35.3618L46.3054 35.5542L70.6174 78.3125L70.9455 78.1204L46.6335 35.3618Z" fill="#0E7B68"/>
<path d="M46.6335 4.6875L46.3054 4.87989L88.0586 78.3123L88.3873 78.1202L46.6335 4.6875Z" fill="#0E7B68"/>
<path d="M43.7688 4.69141L2.01538 78.1238L2.34353 78.3159L44.097 4.88379L43.7688 4.69141Z" fill="#0E7B68"/>
<path d="M43.7831 35.3701L19.4661 78.1284L19.7942 78.3205L44.1113 35.5626L43.7831 35.3701Z" fill="#0E7B68"/>
<path d="M112.208 0V79.3443" stroke="#0E7B68"/>
<mask id="path-12-inside-1_1856_1178" fill="white">
<path d="M207.505 59.0147V31.0597H197.822V25.2759H223.454V31.0597H213.77V59.0147H207.505ZM231.815 59.6894C229.473 59.6894 227.4 59.1914 225.596 58.1953C223.824 57.167 222.432 55.7371 221.42 53.9057C220.439 52.042 219.948 49.857 219.948 47.3507V46.7723C219.948 44.266 220.439 42.0971 221.42 40.2655C222.401 38.4019 223.777 36.972 225.549 35.9759C227.321 34.9476 229.378 34.4335 231.72 34.4335C234.03 34.4335 236.039 34.9637 237.747 36.0241C239.457 37.0523 240.786 38.4983 241.735 40.3619C242.684 42.1935 243.159 44.3303 243.159 46.7723V48.8448H226.023C226.087 50.4836 226.688 51.8171 227.827 52.8453C228.967 53.8735 230.359 54.3876 232.005 54.3876C233.682 54.3876 234.916 54.0181 235.707 53.279C236.498 52.54 237.099 51.7206 237.51 50.8209L242.4 53.4236C241.957 54.2591 241.308 55.1748 240.453 56.171C239.631 57.1349 238.523 57.9703 237.131 58.6773C235.738 59.352 233.966 59.6894 231.815 59.6894ZM226.071 44.3142H237.083C236.956 42.9325 236.403 41.824 235.422 40.9885C234.473 40.1531 233.222 39.7354 231.672 39.7354C230.058 39.7354 228.776 40.1531 227.827 40.9885C226.878 41.824 226.293 42.9325 226.071 44.3142ZM257.168 59.6894C254.89 59.6894 252.817 59.2074 250.95 58.2435C249.115 57.2795 247.659 55.8817 246.584 54.0503C245.508 52.2187 244.97 50.0016 244.97 47.3988V46.7241C244.97 44.1214 245.508 41.9043 246.584 40.0728C247.659 38.2412 249.115 36.8434 250.95 35.8795C252.817 34.9155 254.89 34.4335 257.168 34.4335C259.415 34.4335 261.345 34.8352 262.959 35.6385C264.573 36.4418 265.87 37.5504 266.851 38.9642C267.864 40.3459 268.528 41.9204 268.845 43.6876L263.054 44.9408C262.928 43.9768 262.643 43.1092 262.2 42.3381C261.757 41.5669 261.124 40.9564 260.301 40.5065C259.51 40.0567 258.513 39.8318 257.311 39.8318C256.108 39.8318 255.017 40.1049 254.036 40.6511C253.087 41.1652 252.327 41.9525 251.758 43.0128C251.219 44.0411 250.95 45.3103 250.95 46.8205V47.3025C250.95 48.8127 251.219 50.098 251.758 51.1583C252.327 52.1866 253.087 52.9738 254.036 53.52C255.017 54.0342 256.108 54.2912 257.311 54.2912C259.114 54.2912 260.475 53.8253 261.393 52.8935C262.342 51.9295 262.944 50.6764 263.197 49.134L268.987 50.5318C268.576 52.2348 267.864 53.7931 266.851 55.207C265.87 56.5887 264.573 57.6811 262.959 58.4845C261.345 59.2878 259.415 59.6894 257.168 59.6894ZM271.547 59.0147V25.2759H277.529V38.0484H278.383C278.636 37.5343 279.031 37.0202 279.569 36.5061C280.107 35.992 280.819 35.5743 281.705 35.2529C282.623 34.8994 283.778 34.7227 285.171 34.7227C287.006 34.7227 288.604 35.1566 289.964 36.0241C291.357 36.8595 292.432 38.0324 293.192 39.5426C293.951 41.0206 294.332 42.7558 294.332 44.748V59.0147H288.35V45.2299C288.35 43.4306 287.907 42.081 287.021 41.1813C286.167 40.2816 284.933 39.8318 283.319 39.8318C281.484 39.8318 280.06 40.4583 279.047 41.7115C278.035 42.9325 277.529 44.6516 277.529 46.8687V59.0147H271.547ZM298.423 59.0147V35.1084H304.309V38.2412H305.164C305.544 37.4058 306.255 36.6185 307.299 35.8795C308.344 35.1084 309.926 34.7227 312.046 34.7227C313.881 34.7227 315.48 35.1566 316.84 36.0241C318.232 36.8595 319.308 38.0324 320.068 39.5426C320.827 41.0206 321.207 42.7558 321.207 44.748V59.0147H315.226V45.2299C315.226 43.4306 314.783 42.081 313.897 41.1813C313.043 40.2816 311.809 39.8318 310.195 39.8318C308.36 39.8318 306.936 40.4583 305.923 41.7115C304.911 42.9325 304.404 44.6516 304.404 46.8687V59.0147H298.423ZM336.501 59.6894C334.159 59.6894 332.055 59.2074 330.188 58.2435C328.321 57.2795 326.85 55.8817 325.774 54.0503C324.698 52.2187 324.16 50.0177 324.16 47.447V46.6759C324.16 44.1053 324.698 41.9043 325.774 40.0728C326.85 38.2412 328.321 36.8434 330.188 35.8795C332.055 34.9155 334.159 34.4335 336.501 34.4335C338.843 34.4335 340.947 34.9155 342.814 35.8795C344.681 36.8434 346.153 38.2412 347.229 40.0728C348.304 41.9043 348.842 44.1053 348.842 46.6759V47.447C348.842 50.0177 348.304 52.2187 347.229 54.0503C346.153 55.8817 344.681 57.2795 342.814 58.2435C340.947 59.2074 338.843 59.6894 336.501 59.6894ZM336.501 54.2912C338.337 54.2912 339.856 53.6968 341.058 52.5079C342.261 51.2868 342.862 49.5517 342.862 47.3025V46.8205C342.862 44.5712 342.261 42.8522 341.058 41.6633C339.887 40.4423 338.368 39.8318 336.501 39.8318C334.666 39.8318 333.147 40.4423 331.944 41.6633C330.742 42.8522 330.141 44.5712 330.141 46.8205V47.3025C330.141 49.5517 330.742 51.2868 331.944 52.5079C333.147 53.6968 334.666 54.2912 336.501 54.2912ZM351.99 59.0147V25.2759H357.97V59.0147H351.99ZM373.426 59.6894C371.085 59.6894 368.98 59.2074 367.113 58.2435C365.246 57.2795 363.775 55.8817 362.699 54.0503C361.624 52.2187 361.086 50.0177 361.086 47.447V46.6759C361.086 44.1053 361.624 41.9043 362.699 40.0728C363.775 38.2412 365.246 36.8434 367.113 35.8795C368.98 34.9155 371.085 34.4335 373.426 34.4335C375.768 34.4335 377.873 34.9155 379.739 35.8795C381.606 36.8434 383.078 38.2412 384.154 40.0728C385.23 41.9043 385.768 44.1053 385.768 46.6759V47.447C385.768 50.0177 385.23 52.2187 384.154 54.0503C383.078 55.8817 381.606 57.2795 379.739 58.2435C377.873 59.2074 375.768 59.6894 373.426 59.6894ZM373.426 54.2912C375.262 54.2912 376.781 53.6968 377.983 52.5079C379.185 51.2868 379.787 49.5517 379.787 47.3025V46.8205C379.787 44.5712 379.185 42.8522 377.983 41.6633C376.812 40.4423 375.293 39.8318 373.426 39.8318C371.591 39.8318 370.072 40.4423 368.87 41.6633C367.667 42.8522 367.066 44.5712 367.066 46.8205V47.3025C367.066 49.5517 367.667 51.2868 368.87 52.5079C370.072 53.6968 371.591 54.2912 373.426 54.2912ZM387.776 47.1579V46.3867C387.776 43.8804 388.266 41.7436 389.247 39.9764C390.228 38.1769 391.526 36.8113 393.139 35.8795C394.785 34.9155 396.573 34.4335 398.503 34.4335C400.655 34.4335 402.284 34.8191 403.392 35.5903C404.5 36.3615 405.306 37.1648 405.813 38.0002H406.667V35.1084H412.553V63.2561C412.553 64.8948 412.078 66.1963 411.129 67.1602C410.179 68.1563 408.914 68.654 407.332 68.654H391.573V63.3525H405.243C406.129 63.3525 406.572 62.8705 406.572 61.9065V55.6889H405.718C405.401 56.2031 404.958 56.7333 404.389 57.2795C403.819 57.7936 403.06 58.2274 402.111 58.5809C401.161 58.9343 399.959 59.111 398.503 59.111C396.573 59.111 394.785 58.6451 393.139 57.7133C391.526 56.7493 390.228 55.3837 389.247 53.6164C388.266 51.8171 387.776 49.6642 387.776 47.1579ZM400.212 53.8093C402.047 53.8093 403.582 53.2148 404.816 52.0259C406.05 50.837 406.667 49.1661 406.667 47.0133V46.5313C406.667 44.3463 406.05 42.6754 404.816 41.5187C403.614 40.3298 402.079 39.7354 400.212 39.7354C398.377 39.7354 396.842 40.3298 395.608 41.5187C394.373 42.6754 393.757 44.3463 393.757 46.5313V47.0133C393.757 49.1661 394.373 50.837 395.608 52.0259C396.842 53.2148 398.377 53.8093 400.212 53.8093ZM416.81 59.0147V35.1084H422.791V59.0147H416.81ZM419.801 32.3128C418.725 32.3128 417.807 31.9594 417.048 31.2525C416.32 30.5455 415.956 29.6137 415.956 28.4569C415.956 27.3002 416.32 26.3684 417.048 25.6615C417.807 24.9546 418.725 24.6011 419.801 24.6011C420.908 24.6011 421.826 24.9546 422.554 25.6615C423.282 26.3684 423.646 27.3002 423.646 28.4569C423.646 29.6137 423.282 30.5455 422.554 31.2525C421.826 31.9594 420.908 32.3128 419.801 32.3128ZM437.773 59.6894C435.431 59.6894 433.358 59.1914 431.555 58.1953C429.783 57.167 428.39 55.7371 427.378 53.9057C426.397 52.042 425.906 49.857 425.906 47.3507V46.7723C425.906 44.266 426.397 42.0971 427.378 40.2655C428.359 38.4019 429.735 36.972 431.507 35.9759C433.28 34.9476 435.336 34.4335 437.678 34.4335C439.988 34.4335 441.997 34.9637 443.706 36.0241C445.415 37.0523 446.744 38.4983 447.693 40.3619C448.643 42.1935 449.117 44.3303 449.117 46.7723V48.8448H431.982C432.045 50.4836 432.647 51.8171 433.786 52.8453C434.925 53.8735 436.317 54.3876 437.963 54.3876C439.64 54.3876 440.874 54.0181 441.665 53.279C442.456 52.54 443.057 51.7206 443.469 50.8209L448.358 53.4236C447.915 54.2591 447.266 55.1748 446.411 56.171C445.589 57.1349 444.481 57.9703 443.089 58.6773C441.697 59.352 439.925 59.6894 437.773 59.6894ZM432.029 44.3142H443.042C442.915 42.9325 442.361 41.824 441.38 40.9885C440.431 40.1531 439.181 39.7354 437.63 39.7354C436.016 39.7354 434.735 40.1531 433.786 40.9885C432.837 41.824 432.251 42.9325 432.029 44.3142ZM461.845 59.6894C458.775 59.6894 456.26 59.0147 454.298 57.6651C452.336 56.3156 451.149 54.3876 450.738 51.8813L456.244 50.4354C456.465 51.56 456.83 52.4436 457.336 53.0863C457.874 53.7289 458.522 54.1948 459.282 54.484C460.073 54.7411 460.927 54.8696 461.845 54.8696C463.237 54.8696 464.266 54.6286 464.93 54.1467C465.595 53.6325 465.927 53.0059 465.927 52.2669C465.927 51.5278 465.611 50.9655 464.978 50.58C464.345 50.1623 463.332 49.8249 461.94 49.5678L460.611 49.3268C458.965 49.0055 457.463 48.5717 456.102 48.0255C454.741 47.447 453.649 46.6598 452.827 45.6638C452.004 44.6676 451.592 43.3823 451.592 41.8079C451.592 39.4301 452.447 37.6146 454.156 36.3615C455.864 35.0762 458.111 34.4335 460.896 34.4335C463.522 34.4335 465.706 35.028 467.446 36.2169C469.187 37.4058 470.326 38.9642 470.864 40.8921L465.31 42.6272C465.057 41.4063 464.534 40.5387 463.743 40.0246C462.984 39.5105 462.035 39.2534 460.896 39.2534C459.756 39.2534 458.887 39.4623 458.285 39.88C457.684 40.2655 457.383 40.8118 457.383 41.5187C457.383 42.2899 457.7 42.8682 458.332 43.2538C458.965 43.6073 459.82 43.8804 460.896 44.0732L462.225 44.3142C463.997 44.6355 465.595 45.0693 467.019 45.6156C468.474 46.1297 469.614 46.8848 470.436 47.8809C471.291 48.8448 471.718 50.1623 471.718 51.8331C471.718 54.3394 470.816 56.2834 469.012 57.6651C467.24 59.0147 464.851 59.6894 461.845 59.6894Z"/>
</mask>
<path d="M207.505 59.0147V31.0597H197.822V25.2759H223.454V31.0597H213.77V59.0147H207.505ZM231.815 59.6894C229.473 59.6894 227.4 59.1914 225.596 58.1953C223.824 57.167 222.432 55.7371 221.42 53.9057C220.439 52.042 219.948 49.857 219.948 47.3507V46.7723C219.948 44.266 220.439 42.0971 221.42 40.2655C222.401 38.4019 223.777 36.972 225.549 35.9759C227.321 34.9476 229.378 34.4335 231.72 34.4335C234.03 34.4335 236.039 34.9637 237.747 36.0241C239.457 37.0523 240.786 38.4983 241.735 40.3619C242.684 42.1935 243.159 44.3303 243.159 46.7723V48.8448H226.023C226.087 50.4836 226.688 51.8171 227.827 52.8453C228.967 53.8735 230.359 54.3876 232.005 54.3876C233.682 54.3876 234.916 54.0181 235.707 53.279C236.498 52.54 237.099 51.7206 237.51 50.8209L242.4 53.4236C241.957 54.2591 241.308 55.1748 240.453 56.171C239.631 57.1349 238.523 57.9703 237.131 58.6773C235.738 59.352 233.966 59.6894 231.815 59.6894ZM226.071 44.3142H237.083C236.956 42.9325 236.403 41.824 235.422 40.9885C234.473 40.1531 233.222 39.7354 231.672 39.7354C230.058 39.7354 228.776 40.1531 227.827 40.9885C226.878 41.824 226.293 42.9325 226.071 44.3142ZM257.168 59.6894C254.89 59.6894 252.817 59.2074 250.95 58.2435C249.115 57.2795 247.659 55.8817 246.584 54.0503C245.508 52.2187 244.97 50.0016 244.97 47.3988V46.7241C244.97 44.1214 245.508 41.9043 246.584 40.0728C247.659 38.2412 249.115 36.8434 250.95 35.8795C252.817 34.9155 254.89 34.4335 257.168 34.4335C259.415 34.4335 261.345 34.8352 262.959 35.6385C264.573 36.4418 265.87 37.5504 266.851 38.9642C267.864 40.3459 268.528 41.9204 268.845 43.6876L263.054 44.9408C262.928 43.9768 262.643 43.1092 262.2 42.3381C261.757 41.5669 261.124 40.9564 260.301 40.5065C259.51 40.0567 258.513 39.8318 257.311 39.8318C256.108 39.8318 255.017 40.1049 254.036 40.6511C253.087 41.1652 252.327 41.9525 251.758 43.0128C251.219 44.0411 250.95 45.3103 250.95 46.8205V47.3025C250.95 48.8127 251.219 50.098 251.758 51.1583C252.327 52.1866 253.087 52.9738 254.036 53.52C255.017 54.0342 256.108 54.2912 257.311 54.2912C259.114 54.2912 260.475 53.8253 261.393 52.8935C262.342 51.9295 262.944 50.6764 263.197 49.134L268.987 50.5318C268.576 52.2348 267.864 53.7931 266.851 55.207C265.87 56.5887 264.573 57.6811 262.959 58.4845C261.345 59.2878 259.415 59.6894 257.168 59.6894ZM271.547 59.0147V25.2759H277.529V38.0484H278.383C278.636 37.5343 279.031 37.0202 279.569 36.5061C280.107 35.992 280.819 35.5743 281.705 35.2529C282.623 34.8994 283.778 34.7227 285.171 34.7227C287.006 34.7227 288.604 35.1566 289.964 36.0241C291.357 36.8595 292.432 38.0324 293.192 39.5426C293.951 41.0206 294.332 42.7558 294.332 44.748V59.0147H288.35V45.2299C288.35 43.4306 287.907 42.081 287.021 41.1813C286.167 40.2816 284.933 39.8318 283.319 39.8318C281.484 39.8318 280.06 40.4583 279.047 41.7115C278.035 42.9325 277.529 44.6516 277.529 46.8687V59.0147H271.547ZM298.423 59.0147V35.1084H304.309V38.2412H305.164C305.544 37.4058 306.255 36.6185 307.299 35.8795C308.344 35.1084 309.926 34.7227 312.046 34.7227C313.881 34.7227 315.48 35.1566 316.84 36.0241C318.232 36.8595 319.308 38.0324 320.068 39.5426C320.827 41.0206 321.207 42.7558 321.207 44.748V59.0147H315.226V45.2299C315.226 43.4306 314.783 42.081 313.897 41.1813C313.043 40.2816 311.809 39.8318 310.195 39.8318C308.36 39.8318 306.936 40.4583 305.923 41.7115C304.911 42.9325 304.404 44.6516 304.404 46.8687V59.0147H298.423ZM336.501 59.6894C334.159 59.6894 332.055 59.2074 330.188 58.2435C328.321 57.2795 326.85 55.8817 325.774 54.0503C324.698 52.2187 324.16 50.0177 324.16 47.447V46.6759C324.16 44.1053 324.698 41.9043 325.774 40.0728C326.85 38.2412 328.321 36.8434 330.188 35.8795C332.055 34.9155 334.159 34.4335 336.501 34.4335C338.843 34.4335 340.947 34.9155 342.814 35.8795C344.681 36.8434 346.153 38.2412 347.229 40.0728C348.304 41.9043 348.842 44.1053 348.842 46.6759V47.447C348.842 50.0177 348.304 52.2187 347.229 54.0503C346.153 55.8817 344.681 57.2795 342.814 58.2435C340.947 59.2074 338.843 59.6894 336.501 59.6894ZM336.501 54.2912C338.337 54.2912 339.856 53.6968 341.058 52.5079C342.261 51.2868 342.862 49.5517 342.862 47.3025V46.8205C342.862 44.5712 342.261 42.8522 341.058 41.6633C339.887 40.4423 338.368 39.8318 336.501 39.8318C334.666 39.8318 333.147 40.4423 331.944 41.6633C330.742 42.8522 330.141 44.5712 330.141 46.8205V47.3025C330.141 49.5517 330.742 51.2868 331.944 52.5079C333.147 53.6968 334.666 54.2912 336.501 54.2912ZM351.99 59.0147V25.2759H357.97V59.0147H351.99ZM373.426 59.6894C371.085 59.6894 368.98 59.2074 367.113 58.2435C365.246 57.2795 363.775 55.8817 362.699 54.0503C361.624 52.2187 361.086 50.0177 361.086 47.447V46.6759C361.086 44.1053 361.624 41.9043 362.699 40.0728C363.775 38.2412 365.246 36.8434 367.113 35.8795C368.98 34.9155 371.085 34.4335 373.426 34.4335C375.768 34.4335 377.873 34.9155 379.739 35.8795C381.606 36.8434 383.078 38.2412 384.154 40.0728C385.23 41.9043 385.768 44.1053 385.768 46.6759V47.447C385.768 50.0177 385.23 52.2187 384.154 54.0503C383.078 55.8817 381.606 57.2795 379.739 58.2435C377.873 59.2074 375.768 59.6894 373.426 59.6894ZM373.426 54.2912C375.262 54.2912 376.781 53.6968 377.983 52.5079C379.185 51.2868 379.787 49.5517 379.787 47.3025V46.8205C379.787 44.5712 379.185 42.8522 377.983 41.6633C376.812 40.4423 375.293 39.8318 373.426 39.8318C371.591 39.8318 370.072 40.4423 368.87 41.6633C367.667 42.8522 367.066 44.5712 367.066 46.8205V47.3025C367.066 49.5517 367.667 51.2868 368.87 52.5079C370.072 53.6968 371.591 54.2912 373.426 54.2912ZM387.776 47.1579V46.3867C387.776 43.8804 388.266 41.7436 389.247 39.9764C390.228 38.1769 391.526 36.8113 393.139 35.8795C394.785 34.9155 396.573 34.4335 398.503 34.4335C400.655 34.4335 402.284 34.8191 403.392 35.5903C404.5 36.3615 405.306 37.1648 405.813 38.0002H406.667V35.1084H412.553V63.2561C412.553 64.8948 412.078 66.1963 411.129 67.1602C410.179 68.1563 408.914 68.654 407.332 68.654H391.573V63.3525H405.243C406.129 63.3525 406.572 62.8705 406.572 61.9065V55.6889H405.718C405.401 56.2031 404.958 56.7333 404.389 57.2795C403.819 57.7936 403.06 58.2274 402.111 58.5809C401.161 58.9343 399.959 59.111 398.503 59.111C396.573 59.111 394.785 58.6451 393.139 57.7133C391.526 56.7493 390.228 55.3837 389.247 53.6164C388.266 51.8171 387.776 49.6642 387.776 47.1579ZM400.212 53.8093C402.047 53.8093 403.582 53.2148 404.816 52.0259C406.05 50.837 406.667 49.1661 406.667 47.0133V46.5313C406.667 44.3463 406.05 42.6754 404.816 41.5187C403.614 40.3298 402.079 39.7354 400.212 39.7354C398.377 39.7354 396.842 40.3298 395.608 41.5187C394.373 42.6754 393.757 44.3463 393.757 46.5313V47.0133C393.757 49.1661 394.373 50.837 395.608 52.0259C396.842 53.2148 398.377 53.8093 400.212 53.8093ZM416.81 59.0147V35.1084H422.791V59.0147H416.81ZM419.801 32.3128C418.725 32.3128 417.807 31.9594 417.048 31.2525C416.32 30.5455 415.956 29.6137 415.956 28.4569C415.956 27.3002 416.32 26.3684 417.048 25.6615C417.807 24.9546 418.725 24.6011 419.801 24.6011C420.908 24.6011 421.826 24.9546 422.554 25.6615C423.282 26.3684 423.646 27.3002 423.646 28.4569C423.646 29.6137 423.282 30.5455 422.554 31.2525C421.826 31.9594 420.908 32.3128 419.801 32.3128ZM437.773 59.6894C435.431 59.6894 433.358 59.1914 431.555 58.1953C429.783 57.167 428.39 55.7371 427.378 53.9057C426.397 52.042 425.906 49.857 425.906 47.3507V46.7723C425.906 44.266 426.397 42.0971 427.378 40.2655C428.359 38.4019 429.735 36.972 431.507 35.9759C433.28 34.9476 435.336 34.4335 437.678 34.4335C439.988 34.4335 441.997 34.9637 443.706 36.0241C445.415 37.0523 446.744 38.4983 447.693 40.3619C448.643 42.1935 449.117 44.3303 449.117 46.7723V48.8448H431.982C432.045 50.4836 432.647 51.8171 433.786 52.8453C434.925 53.8735 436.317 54.3876 437.963 54.3876C439.64 54.3876 440.874 54.0181 441.665 53.279C442.456 52.54 443.057 51.7206 443.469 50.8209L448.358 53.4236C447.915 54.2591 447.266 55.1748 446.411 56.171C445.589 57.1349 444.481 57.9703 443.089 58.6773C441.697 59.352 439.925 59.6894 437.773 59.6894ZM432.029 44.3142H443.042C442.915 42.9325 442.361 41.824 441.38 40.9885C440.431 40.1531 439.181 39.7354 437.63 39.7354C436.016 39.7354 434.735 40.1531 433.786 40.9885C432.837 41.824 432.251 42.9325 432.029 44.3142ZM461.845 59.6894C458.775 59.6894 456.26 59.0147 454.298 57.6651C452.336 56.3156 451.149 54.3876 450.738 51.8813L456.244 50.4354C456.465 51.56 456.83 52.4436 457.336 53.0863C457.874 53.7289 458.522 54.1948 459.282 54.484C460.073 54.7411 460.927 54.8696 461.845 54.8696C463.237 54.8696 464.266 54.6286 464.93 54.1467C465.595 53.6325 465.927 53.0059 465.927 52.2669C465.927 51.5278 465.611 50.9655 464.978 50.58C464.345 50.1623 463.332 49.8249 461.94 49.5678L460.611 49.3268C458.965 49.0055 457.463 48.5717 456.102 48.0255C454.741 47.447 453.649 46.6598 452.827 45.6638C452.004 44.6676 451.592 43.3823 451.592 41.8079C451.592 39.4301 452.447 37.6146 454.156 36.3615C455.864 35.0762 458.111 34.4335 460.896 34.4335C463.522 34.4335 465.706 35.028 467.446 36.2169C469.187 37.4058 470.326 38.9642 470.864 40.8921L465.31 42.6272C465.057 41.4063 464.534 40.5387 463.743 40.0246C462.984 39.5105 462.035 39.2534 460.896 39.2534C459.756 39.2534 458.887 39.4623 458.285 39.88C457.684 40.2655 457.383 40.8118 457.383 41.5187C457.383 42.2899 457.7 42.8682 458.332 43.2538C458.965 43.6073 459.82 43.8804 460.896 44.0732L462.225 44.3142C463.997 44.6355 465.595 45.0693 467.019 45.6156C468.474 46.1297 469.614 46.8848 470.436 47.8809C471.291 48.8448 471.718 50.1623 471.718 51.8331C471.718 54.3394 470.816 56.2834 469.012 57.6651C467.24 59.0147 464.851 59.6894 461.845 59.6894Z" fill="#0E7B68" stroke="#0E7B68" stroke-width="2" mask="url(#path-12-inside-1_1856_1178)"/>
<path d="M151.855 25.7803L160.33 58.519H154.914L153.203 51.4784L153.11 51.0965H152.717H140.85H140.457L140.365 51.4784L138.654 58.519H133.237L141.712 25.7803H151.855ZM167.659 54.0244H185.054V58.519H161.941V54.9704C161.941 52.6749 162.313 50.8126 163.029 49.3593L163.03 49.3556C163.753 47.8578 164.789 46.639 166.142 45.6922L166.144 45.6909C167.548 44.6992 169.27 43.8846 171.319 43.2541L171.323 43.2527L174.504 42.2406L174.508 42.239C175.712 41.8425 176.739 41.3575 177.579 40.7778L177.579 40.7779L177.59 40.77C178.436 40.1512 179.09 39.4042 179.54 38.5286C180.026 37.6444 180.263 36.646 180.263 35.5465V35.3537C180.263 33.6244 179.678 32.2102 178.48 31.1709C177.288 30.1049 175.686 29.6001 173.735 29.6001C171.801 29.6001 170.187 30.1442 168.939 31.2707C167.698 32.386 167.111 33.9839 167.111 35.9803V36.3478H162.036V36.0767C162.036 33.709 162.557 31.7337 163.572 30.1262C164.598 28.503 165.982 27.2643 167.735 26.4047C169.527 25.5413 171.525 25.1055 173.735 25.1055C175.945 25.1055 177.926 25.5416 179.685 26.404L179.685 26.404L179.691 26.4071C181.448 27.2375 182.815 28.4147 183.805 29.9388L183.805 29.9389L183.812 29.9484C184.824 31.4293 185.338 33.1917 185.338 35.2573V35.7393C185.338 37.8235 184.91 39.5632 184.078 40.9808L184.077 40.9836C183.264 42.3897 182.15 43.553 180.728 44.4753C179.282 45.3814 177.628 46.1353 175.766 46.7343C175.765 46.7343 175.765 46.7344 175.765 46.7345L172.734 47.6965C172.733 47.6967 172.732 47.6969 172.731 47.6971C171.351 48.1211 170.241 48.6031 169.426 49.154C168.617 49.6683 168.009 50.2731 167.642 50.9808L167.642 50.9808L167.637 50.9901C167.31 51.6545 167.159 52.4416 167.159 53.3316V53.5244V54.0244H167.659ZM141.837 45.5971L141.685 46.2164H142.322H151.245H151.883L151.731 45.5972L147.697 29.1616L147.603 28.7807H147.211H146.357H145.965L145.871 29.1615L141.837 45.5971Z" fill="#0E7B68" stroke="#0E7B68"/>
</svg>
