<svg width="159" height="26" viewBox="0 0 159 26" fill="none" xmlns="http://www.w3.org/2000/svg">
<g clip-path="url(#clip0_2587_24861)">
<path d="M15.1641 11.6368V0L30.3276 25.8387H23.4986L15.1641 11.6368Z" fill="white"/>
<path d="M6.82903 25.8387H0L15.1634 0V11.6368L6.82903 25.8387Z" fill="white"/>
<path d="M15.1632 20.3945L11.9688 25.8379H15.1632H18.3578L15.1632 20.3945Z" fill="white"/>
<path d="M25.8444 18.1953C24.7526 19.9121 23.2456 21.3469 21.4609 22.3628L23.5009 25.8391H30.3299L25.8444 18.1953Z" fill="white"/>
<path d="M4.48573 18.1953L0 25.8391H6.82903L8.86908 22.3628C7.08447 21.3469 5.57741 19.9121 4.48573 18.1953Z" fill="white"/>
<path d="M13.1309 23.8594L11.9688 25.8396H15.1632H18.3578L17.1956 23.8594C16.534 23.9651 15.8553 24.0209 15.1632 24.0209C14.4712 24.0207 13.7925 23.9649 13.1309 23.8594Z" fill="white"/>
<path d="M15.6413 11.4922L15.5312 11.5547L23.6865 25.4512L23.7966 25.3887L15.6413 11.4922Z" fill="white"/>
<path d="M15.6413 1.52344L15.5312 1.58596L29.537 25.4515L29.6473 25.3891L15.6413 1.52344Z" fill="white"/>
<path d="M14.6856 1.52344L0.679688 25.389L0.789764 25.4514L14.7957 1.58596L14.6856 1.52344Z" fill="white"/>
<path d="M14.6882 11.4961L6.53125 25.3925L6.64132 25.455L14.7983 11.5586L14.6882 11.4961Z" fill="white"/>
<path d="M37.6406 0V25.7869" stroke="white"/>
<path d="M69.6074 19.1805V10.0951H66.3594V8.21541H74.9573V10.0951H71.7091V19.1805H69.6074ZM77.7619 19.3998C76.9764 19.3998 76.2811 19.2379 75.676 18.9142C75.0816 18.58 74.6146 18.1153 74.2749 17.5201C73.9459 16.9144 73.7813 16.2043 73.7813 15.3897V15.2017C73.7813 14.3872 73.9459 13.6823 74.2749 13.087C74.604 12.4813 75.0656 12.0166 75.66 11.6929C76.2544 11.3587 76.9446 11.1916 77.73 11.1916C78.5049 11.1916 79.1788 11.3639 79.752 11.7086C80.3254 12.0427 80.7712 12.5127 81.0896 13.1184C81.4081 13.7136 81.5673 14.4081 81.5673 15.2017V15.8753H75.8192C75.8405 16.4079 76.0421 16.8413 76.4243 17.1755C76.8066 17.5096 77.2736 17.6767 77.8256 17.6767C78.3881 17.6767 78.8021 17.5566 79.0675 17.3164C79.3328 17.0763 79.5345 16.8099 79.6725 16.5176L81.3125 17.3634C81.1639 17.635 80.9462 17.9326 80.6596 18.2563C80.3837 18.5696 80.0121 18.8411 79.5451 19.0709C79.0781 19.2902 78.4837 19.3998 77.7619 19.3998ZM75.8353 14.4029H79.5291C79.4866 13.9538 79.301 13.5935 78.9719 13.322C78.6535 13.0505 78.2341 12.9147 77.714 12.9147C77.1727 12.9147 76.7427 13.0505 76.4243 13.322C76.1058 13.5935 75.9096 13.9538 75.8353 14.4029ZM86.2667 19.3998C85.5024 19.3998 84.8071 19.2432 84.1808 18.9299C83.5652 18.6166 83.0769 18.1623 82.716 17.5671C82.3551 16.9718 82.1747 16.2513 82.1747 15.4054V15.1861C82.1747 14.3402 82.3551 13.6196 82.716 13.0244C83.0769 12.4291 83.5652 11.9749 84.1808 11.6616C84.8071 11.3483 85.5024 11.1916 86.2667 11.1916C87.0203 11.1916 87.6678 11.3222 88.2091 11.5833C88.7504 11.8443 89.1856 12.2046 89.5147 12.6641C89.8543 13.1131 90.0772 13.6249 90.1834 14.1992L88.2409 14.6065C88.1985 14.2932 88.103 14.0112 87.9544 13.7606C87.8057 13.51 87.5935 13.3116 87.3175 13.1654C87.0521 13.0192 86.7177 12.9461 86.3143 12.9461C85.911 12.9461 85.5449 13.0348 85.2158 13.2124C84.8974 13.3794 84.6426 13.6353 84.4516 13.9799C84.2709 14.3141 84.1808 14.7266 84.1808 15.2174V15.374C84.1808 15.8649 84.2709 16.2826 84.4516 16.6272C84.6426 16.9614 84.8974 17.2172 85.2158 17.3948C85.5449 17.5619 85.911 17.6454 86.3143 17.6454C86.9193 17.6454 87.3758 17.494 87.6836 17.1911C88.0022 16.8778 88.2039 16.4706 88.2888 15.9693L90.2313 16.4236C90.0933 16.977 89.8543 17.4835 89.5147 17.943C89.1856 18.3921 88.7504 18.7471 88.2091 19.0082C87.6678 19.2693 87.0203 19.3998 86.2667 19.3998ZM91.0899 19.1805V8.21541H93.0963V12.3665H93.3829C93.4678 12.1994 93.6004 12.0323 93.7808 11.8652C93.9613 11.6981 94.2002 11.5624 94.4974 11.458C94.8052 11.3431 95.1925 11.2856 95.6598 11.2856C96.2754 11.2856 96.8113 11.4266 97.2678 11.7086C97.7348 11.9801 98.0957 12.3613 98.3504 12.8521C98.6052 13.3324 98.7328 13.8964 98.7328 14.5438V19.1805H96.7264V14.7005C96.7264 14.1157 96.5778 13.6771 96.2806 13.3847C95.994 13.0923 95.5801 12.9461 95.0387 12.9461C94.4231 12.9461 93.9454 13.1497 93.6058 13.557C93.2661 13.9538 93.0963 14.5125 93.0963 15.2331V19.1805H91.0899ZM100.105 19.1805V11.411H102.08V12.4291H102.366C102.494 12.1576 102.732 11.9018 103.083 11.6616C103.433 11.411 103.964 11.2856 104.675 11.2856C105.291 11.2856 105.827 11.4266 106.283 11.7086C106.75 11.9801 107.111 12.3613 107.366 12.8521C107.621 13.3324 107.748 13.8964 107.748 14.5438V19.1805H105.742V14.7005C105.742 14.1157 105.593 13.6771 105.296 13.3847C105.009 13.0923 104.595 12.9461 104.054 12.9461C103.438 12.9461 102.961 13.1497 102.621 13.557C102.281 13.9538 102.111 14.5125 102.111 15.2331V19.1805H100.105ZM112.878 19.3998C112.093 19.3998 111.387 19.2432 110.761 18.9299C110.134 18.6166 109.641 18.1623 109.28 17.5671C108.919 16.9718 108.739 16.2565 108.739 15.421V15.1704C108.739 14.335 108.919 13.6196 109.28 13.0244C109.641 12.4291 110.134 11.9749 110.761 11.6616C111.387 11.3483 112.093 11.1916 112.878 11.1916C113.664 11.1916 114.37 11.3483 114.996 11.6616C115.622 11.9749 116.116 12.4291 116.477 13.0244C116.838 13.6196 117.018 14.335 117.018 15.1704V15.421C117.018 16.2565 116.838 16.9718 116.477 17.5671C116.116 18.1623 115.622 18.6166 114.996 18.9299C114.37 19.2432 113.664 19.3998 112.878 19.3998ZM112.878 17.6454C113.494 17.6454 114.003 17.4522 114.407 17.0658C114.81 16.669 115.012 16.105 115.012 15.374V15.2174C115.012 14.4864 114.81 13.9277 114.407 13.5413C114.014 13.1445 113.505 12.9461 112.878 12.9461C112.263 12.9461 111.753 13.1445 111.35 13.5413C110.946 13.9277 110.745 14.4864 110.745 15.2174V15.374C110.745 16.105 110.946 16.669 111.35 17.0658C111.753 17.4522 112.263 17.6454 112.878 17.6454ZM118.074 19.1805V8.21541H120.08V19.1805H118.074ZM125.265 19.3998C124.479 19.3998 123.773 19.2432 123.147 18.9299C122.521 18.6166 122.027 18.1623 121.666 17.5671C121.305 16.9718 121.125 16.2565 121.125 15.421V15.1704C121.125 14.335 121.305 13.6196 121.666 13.0244C122.027 12.4291 122.521 11.9749 123.147 11.6616C123.773 11.3483 124.479 11.1916 125.265 11.1916C126.05 11.1916 126.756 11.3483 127.382 11.6616C128.008 11.9749 128.502 12.4291 128.863 13.0244C129.224 13.6196 129.404 14.335 129.404 15.1704V15.421C129.404 16.2565 129.224 16.9718 128.863 17.5671C128.502 18.1623 128.008 18.6166 127.382 18.9299C126.756 19.2432 126.05 19.3998 125.265 19.3998ZM125.265 17.6454C125.88 17.6454 126.39 17.4522 126.793 17.0658C127.196 16.669 127.398 16.105 127.398 15.374V15.2174C127.398 14.4864 127.196 13.9277 126.793 13.5413C126.4 13.1445 125.891 12.9461 125.265 12.9461C124.649 12.9461 124.139 13.1445 123.736 13.5413C123.333 13.9277 123.131 14.4864 123.131 15.2174V15.374C123.131 16.105 123.333 16.669 123.736 17.0658C124.139 17.4522 124.649 17.6454 125.265 17.6454ZM130.078 15.3271V15.0764C130.078 14.2619 130.243 13.5674 130.572 12.9931C130.901 12.4083 131.336 11.9644 131.877 11.6616C132.429 11.3483 133.029 11.1916 133.676 11.1916C134.398 11.1916 134.945 11.317 135.316 11.5676C135.688 11.8182 135.958 12.0793 136.128 12.3508H136.415V11.411H138.389V20.559C138.389 21.0916 138.23 21.5145 137.912 21.8278C137.593 22.1515 137.169 22.3133 136.638 22.3133H131.352V20.5903H135.937C136.234 20.5903 136.383 20.4337 136.383 20.1204V18.0997H136.096C135.99 18.2668 135.842 18.4391 135.651 18.6166C135.46 18.7837 135.205 18.9247 134.886 19.0395C134.568 19.1544 134.165 19.2118 133.676 19.2118C133.029 19.2118 132.429 19.0604 131.877 18.7576C131.336 18.4443 130.901 18.0004 130.572 17.4261C130.243 16.8413 130.078 16.1416 130.078 15.3271ZM134.25 17.4888C134.865 17.4888 135.38 17.2955 135.794 16.9092C136.208 16.5228 136.415 15.9797 136.415 15.2801V15.1234C136.415 14.4133 136.208 13.8703 135.794 13.4943C135.391 13.1079 134.876 12.9147 134.25 12.9147C133.634 12.9147 133.119 13.1079 132.705 13.4943C132.291 13.8703 132.084 14.4133 132.084 15.1234V15.2801C132.084 15.9797 132.291 16.5228 132.705 16.9092C133.119 17.2955 133.634 17.4888 134.25 17.4888ZM139.817 19.1805V11.411H141.824V19.1805H139.817ZM140.821 10.5024C140.46 10.5024 140.152 10.3875 139.897 10.1578C139.653 9.92804 139.531 9.62521 139.531 9.24925C139.531 8.87332 139.653 8.57046 139.897 8.34072C140.152 8.11098 140.46 7.99609 140.821 7.99609C141.192 7.99609 141.5 8.11098 141.744 8.34072C141.988 8.57046 142.11 8.87332 142.11 9.24925C142.11 9.62521 141.988 9.92804 141.744 10.1578C141.5 10.3875 141.192 10.5024 140.821 10.5024ZM146.849 19.3998C146.064 19.3998 145.368 19.2379 144.763 18.9142C144.169 18.58 143.702 18.1153 143.362 17.5201C143.033 16.9144 142.868 16.2043 142.868 15.3897V15.2017C142.868 14.3872 143.033 13.6823 143.362 13.087C143.691 12.4813 144.153 12.0166 144.747 11.6929C145.342 11.3587 146.032 11.1916 146.817 11.1916C147.592 11.1916 148.266 11.3639 148.839 11.7086C149.413 12.0427 149.858 12.5127 150.177 13.1184C150.495 13.7136 150.655 14.4081 150.655 15.2017V15.8753H144.906C144.928 16.4079 145.13 16.8413 145.512 17.1755C145.894 17.5096 146.361 17.6767 146.913 17.6767C147.475 17.6767 147.889 17.5566 148.155 17.3164C148.42 17.0763 148.622 16.8099 148.76 16.5176L150.4 17.3634C150.251 17.635 150.033 17.9326 149.747 18.2563C149.471 18.5696 149.099 18.8411 148.632 19.0709C148.165 19.2902 147.571 19.3998 146.849 19.3998ZM144.922 14.4029H148.617C148.574 13.9538 148.388 13.5935 148.059 13.322C147.741 13.0505 147.321 12.9147 146.801 12.9147C146.26 12.9147 145.83 13.0505 145.512 13.322C145.193 13.5935 144.997 13.9538 144.922 14.4029ZM154.924 19.3998C153.894 19.3998 153.051 19.1805 152.392 18.7419C151.734 18.3033 151.336 17.6767 151.198 16.8622L153.045 16.3922C153.119 16.7577 153.242 17.0449 153.411 17.2538C153.592 17.4626 153.809 17.6141 154.064 17.7081C154.329 17.7916 154.616 17.8334 154.924 17.8334C155.391 17.8334 155.736 17.755 155.959 17.5984C156.182 17.4313 156.293 17.2277 156.293 16.9875C156.293 16.7473 156.187 16.5645 155.975 16.4392C155.762 16.3035 155.423 16.1938 154.956 16.1103L154.51 16.0319C153.958 15.9275 153.454 15.7865 152.997 15.609C152.541 15.421 152.175 15.1652 151.899 14.8415C151.623 14.5177 151.485 14.1 151.485 13.5883C151.485 12.8155 151.771 12.2255 152.345 11.8182C152.918 11.4005 153.671 11.1916 154.605 11.1916C155.486 11.1916 156.219 11.3848 156.803 11.7712C157.387 12.1576 157.769 12.6641 157.949 13.2907L156.086 13.8546C156.001 13.4578 155.826 13.1758 155.561 13.0087C155.306 12.8416 154.988 12.7581 154.605 12.7581C154.223 12.7581 153.932 12.826 153.73 12.9617C153.528 13.087 153.427 13.2646 153.427 13.4943C153.427 13.7449 153.533 13.9329 153.746 14.0582C153.958 14.1731 154.245 14.2619 154.605 14.3245L155.051 14.4029C155.646 14.5073 156.182 14.6483 156.659 14.8258C157.148 14.9929 157.53 15.2383 157.806 15.562C158.092 15.8753 158.236 16.3035 158.236 16.8465C158.236 17.6611 157.933 18.2929 157.328 18.7419C156.734 19.1805 155.932 19.3998 154.924 19.3998Z" fill="white"/>
<path d="M44.4766 19.1805L47.4061 8.21541H51.0683L53.9979 19.1805H51.8326L51.2276 16.7682H47.2469L46.6419 19.1805H44.4766ZM47.7406 14.8571H50.7339L49.3807 9.51556H49.0941L47.7406 14.8571ZM54.1539 19.1805V17.8647C54.1539 17.1024 54.2813 16.4706 54.536 15.9693C54.7908 15.4576 55.1571 15.0399 55.6347 14.7161C56.123 14.382 56.7174 14.1105 57.4179 13.9016L58.4848 13.5726C58.8775 13.4473 59.2066 13.2959 59.472 13.1184C59.7373 12.9304 59.939 12.7059 60.077 12.4448C60.2256 12.1837 60.2999 11.8861 60.2999 11.5519V11.4893C60.2999 10.9671 60.1194 10.5546 59.7585 10.2518C59.3976 9.93849 58.904 9.78185 58.2777 9.78185C57.6621 9.78185 57.1632 9.94893 56.7811 10.2831C56.4096 10.6068 56.2237 11.0768 56.2237 11.6929V11.9749H54.1857V11.7242C54.1857 10.9306 54.3662 10.257 54.7271 9.70353C55.088 9.15005 55.5762 8.72712 56.1919 8.43471C56.8181 8.14231 57.5135 7.99609 58.2777 7.99609C59.042 7.99609 59.7319 8.14231 60.3475 8.43471C60.9632 8.71668 61.4462 9.11872 61.7965 9.64087C62.1574 10.1526 62.3379 10.7583 62.3379 11.458V11.6146C62.3379 12.3143 62.1892 12.9095 61.892 13.4003C61.6055 13.8807 61.2127 14.2775 60.7138 14.5908C60.215 14.8937 59.647 15.1443 59.0101 15.3427L57.9911 15.656C57.5347 15.7918 57.179 15.9432 56.9243 16.1103C56.6695 16.2669 56.4891 16.4445 56.3829 16.6429C56.2874 16.8309 56.2397 17.0606 56.2397 17.3321V17.3948H62.2423V19.1805H54.1539Z" fill="white"/>
</g>
<defs>
<clipPath id="clip0_2587_24861">
<rect width="159" height="26" fill="white"/>
</clipPath>
</defs>
</svg>
