<svg width="738" height="121" viewBox="0 0 738 121" fill="none" xmlns="http://www.w3.org/2000/svg">
<path d="M68.9999 0L0 121H31.0748L68.9999 54.4936L106.925 121L138 121L68.9999 0Z" fill="white"/>
<path d="M68.9997 95.5086L54.4634 121L83.5361 121L68.9997 95.5086Z" fill="white"/>
<line x1="174.75" y1="-7.64949e-08" x2="174.75" y2="121" stroke="white" stroke-width="3.5"/>
<path d="M325.317 90V47.3687H310.323V38.5484H350.014V47.3687H335.019V90H325.317ZM362.961 91.029C359.335 91.029 356.125 90.2695 353.332 88.7505C350.588 87.1824 348.432 85.0018 346.864 82.2088C345.345 79.3667 344.585 76.0346 344.585 72.2124V71.3304C344.585 67.5083 345.345 64.2007 346.864 61.4076C348.383 58.5655 350.514 56.3849 353.258 54.8659C356.002 53.2978 359.188 52.5138 362.814 52.5138C366.391 52.5138 369.502 53.3223 372.148 54.9394C374.795 56.5074 376.853 58.7125 378.323 61.5546C379.793 64.3477 380.528 67.6063 380.528 71.3304V74.491H353.993C354.091 76.9901 355.022 79.0237 356.786 80.5917C358.551 82.1598 360.707 82.9438 363.255 82.9438C365.852 82.9438 367.763 82.3803 368.988 81.2532C370.213 80.1262 371.144 78.8766 371.781 77.5046L379.352 81.4737C378.666 82.7478 377.661 84.1443 376.338 85.6634C375.064 87.1334 373.349 88.4074 371.193 89.4855C369.037 90.5145 366.293 91.029 362.961 91.029ZM354.067 67.5818H371.119C370.923 65.4747 370.066 63.7842 368.547 62.5101C367.077 61.2361 365.141 60.5991 362.74 60.5991C360.241 60.5991 358.256 61.2361 356.786 62.5101C355.316 63.7842 354.41 65.4747 354.067 67.5818ZM402.222 91.029C398.694 91.029 395.484 90.294 392.593 88.824C389.751 87.3539 387.497 85.2223 385.831 82.4293C384.165 79.6362 383.332 76.2551 383.332 72.2859V71.2569C383.332 67.2878 384.165 63.9067 385.831 61.1136C387.497 58.3205 389.751 56.1889 392.593 54.7189C395.484 53.2488 398.694 52.5138 402.222 52.5138C405.701 52.5138 408.69 53.1263 411.189 54.3514C413.688 55.5764 415.697 57.267 417.216 59.423C418.784 61.5301 419.813 63.9312 420.303 66.6263L411.336 68.5373C411.14 67.0673 410.699 65.7442 410.013 64.5682C409.327 63.3922 408.347 62.4611 407.073 61.7751C405.848 61.0891 404.304 60.7461 402.442 60.7461C400.58 60.7461 398.89 61.1626 397.371 61.9956C395.901 62.7796 394.725 63.9802 393.843 65.5972C393.009 67.1653 392.593 69.1008 392.593 71.4039V72.1389C392.593 74.442 393.009 76.4021 393.843 78.0191C394.725 79.5872 395.901 80.7877 397.371 81.6207C398.89 82.4048 400.58 82.7968 402.442 82.7968C405.235 82.7968 407.342 82.0863 408.763 80.6652C410.234 79.1952 411.165 77.2841 411.557 74.932L420.524 77.0636C419.887 79.6607 418.784 82.0372 417.216 84.1933C415.697 86.3004 413.688 87.9664 411.189 89.1915C408.69 90.4165 405.701 91.029 402.222 91.029ZM424.488 90V38.5484H433.75V58.0265H435.073C435.465 57.2425 436.077 56.4584 436.91 55.6744C437.743 54.8904 438.846 54.2534 440.218 53.7634C441.639 53.2243 443.427 52.9548 445.584 52.9548C448.426 52.9548 450.9 53.6164 453.007 54.9394C455.163 56.2134 456.829 58.002 458.005 60.3051C459.181 62.5591 459.77 65.2052 459.77 68.2433V90H450.508V68.9783C450.508 66.2343 449.822 64.1762 448.45 62.8041C447.127 61.4321 445.216 60.7461 442.717 60.7461C439.875 60.7461 437.67 61.7016 436.102 63.6127C434.534 65.4747 433.75 68.0963 433.75 71.4774V90H424.488ZM466.106 90V53.5429H475.22V58.3205H476.544C477.132 57.0465 478.234 55.8459 479.851 54.7189C481.468 53.5429 483.918 52.9548 487.201 52.9548C490.043 52.9548 492.518 53.6164 494.625 54.9394C496.781 56.2134 498.447 58.002 499.623 60.3051C500.799 62.5591 501.387 65.2052 501.387 68.2433V90H492.126V68.9783C492.126 66.2343 491.44 64.1762 490.068 62.8041C488.745 61.4321 486.834 60.7461 484.335 60.7461C481.493 60.7461 479.288 61.7016 477.72 63.6127C476.152 65.4747 475.367 68.0963 475.367 71.4774V90H466.106ZM525.071 91.029C521.444 91.029 518.186 90.294 515.295 88.824C512.404 87.3539 510.125 85.2223 508.459 82.4293C506.793 79.6362 505.96 76.2796 505.96 72.3594V71.1834C505.96 67.2633 506.793 63.9067 508.459 61.1136C510.125 58.3205 512.404 56.1889 515.295 54.7189C518.186 53.2488 521.444 52.5138 525.071 52.5138C528.697 52.5138 531.955 53.2488 534.846 54.7189C537.737 56.1889 540.016 58.3205 541.682 61.1136C543.348 63.9067 544.181 67.2633 544.181 71.1834V72.3594C544.181 76.2796 543.348 79.6362 541.682 82.4293C540.016 85.2223 537.737 87.3539 534.846 88.824C531.955 90.294 528.697 91.029 525.071 91.029ZM525.071 82.7968C527.913 82.7968 530.265 81.8902 532.127 80.0772C533.989 78.2151 534.92 75.569 534.92 72.1389V71.4039C534.92 67.9738 533.989 65.3522 532.127 63.5392C530.314 61.6771 527.962 60.7461 525.071 60.7461C522.228 60.7461 519.876 61.6771 518.014 63.5392C516.152 65.3522 515.221 67.9738 515.221 71.4039V72.1389C515.221 75.569 516.152 78.2151 518.014 80.0772C519.876 81.8902 522.228 82.7968 525.071 82.7968ZM549.055 90V38.5484H558.316V90H549.055ZM582.25 91.029C578.624 91.029 575.365 90.294 572.474 88.824C569.583 87.3539 567.305 85.2223 565.639 82.4293C563.973 79.6362 563.14 76.2796 563.14 72.3594V71.1834C563.14 67.2633 563.973 63.9067 565.639 61.1136C567.305 58.3205 569.583 56.1889 572.474 54.7189C575.365 53.2488 578.624 52.5138 582.25 52.5138C585.876 52.5138 589.135 53.2488 592.026 54.7189C594.917 56.1889 597.196 58.3205 598.862 61.1136C600.528 63.9067 601.361 67.2633 601.361 71.1834V72.3594C601.361 76.2796 600.528 79.6362 598.862 82.4293C597.196 85.2223 594.917 87.3539 592.026 88.824C589.135 90.294 585.876 91.029 582.25 91.029ZM582.25 82.7968C585.092 82.7968 587.444 81.8902 589.306 80.0772C591.168 78.2151 592.1 75.569 592.1 72.1389V71.4039C592.1 67.9738 591.168 65.3522 589.306 63.5392C587.493 61.6771 585.141 60.7461 582.25 60.7461C579.408 60.7461 577.056 61.6771 575.194 63.5392C573.332 65.3522 572.401 67.9738 572.401 71.4039V72.1389C572.401 75.569 573.332 78.2151 575.194 80.0772C577.056 81.8902 579.408 82.7968 582.25 82.7968ZM604.47 71.9184V70.7424C604.47 66.9203 605.23 63.6617 606.749 60.9666C608.268 58.2225 610.277 56.1399 612.776 54.7189C615.324 53.2488 618.093 52.5138 621.082 52.5138C624.414 52.5138 626.937 53.1018 628.653 54.2779C630.368 55.4539 631.617 56.679 632.401 57.953H633.724V53.5429H642.838V96.4682C642.838 98.9673 642.103 100.952 640.633 102.422C639.163 103.941 637.203 104.7 634.753 104.7H610.35V96.6152H631.519C632.891 96.6152 633.577 95.8802 633.577 94.4101V84.9283H632.254C631.764 85.7124 631.078 86.5209 630.196 87.3539C629.314 88.1379 628.138 88.7995 626.668 89.3385C625.198 89.8775 623.336 90.147 621.082 90.147C618.093 90.147 615.324 89.4365 612.776 88.0154C610.277 86.5454 608.268 84.4628 606.749 81.7677C605.23 79.0237 604.47 75.7406 604.47 71.9184ZM623.728 82.0618C626.57 82.0618 628.947 81.1552 630.858 79.3422C632.769 77.5291 633.724 74.981 633.724 71.6979V70.9629C633.724 67.6308 632.769 65.0827 630.858 63.3187C628.996 61.5056 626.619 60.5991 623.728 60.5991C620.886 60.5991 618.509 61.5056 616.598 63.3187C614.687 65.0827 613.732 67.6308 613.732 70.9629V71.6979C613.732 74.981 614.687 77.5291 616.598 79.3422C618.509 81.1552 620.886 82.0618 623.728 82.0618ZM649.431 90V53.5429H658.693V90H649.431ZM654.062 49.2797C652.396 49.2797 650.975 48.7407 649.799 47.6627C648.672 46.5846 648.108 45.1636 648.108 43.3995C648.108 41.6355 648.672 40.2144 649.799 39.1364C650.975 38.0584 652.396 37.5193 654.062 37.5193C655.777 37.5193 657.198 38.0584 658.325 39.1364C659.452 40.2144 660.016 41.6355 660.016 43.3995C660.016 45.1636 659.452 46.5846 658.325 47.6627C657.198 48.7407 655.777 49.2797 654.062 49.2797ZM681.892 91.029C678.266 91.029 675.056 90.2695 672.263 88.7505C669.519 87.1824 667.363 85.0018 665.795 82.2088C664.276 79.3667 663.516 76.0346 663.516 72.2124V71.3304C663.516 67.5083 664.276 64.2007 665.795 61.4076C667.314 58.5655 669.445 56.3849 672.189 54.8659C674.934 53.2978 678.119 52.5138 681.745 52.5138C685.322 52.5138 688.433 53.3223 691.08 54.9394C693.726 56.5074 695.784 58.7125 697.254 61.5546C698.724 64.3477 699.459 67.6063 699.459 71.3304V74.491H672.924C673.022 76.9901 673.954 79.0237 675.718 80.5917C677.482 82.1598 679.638 82.9438 682.186 82.9438C684.783 82.9438 686.694 82.3803 687.919 81.2532C689.144 80.1262 690.075 78.8766 690.712 77.5046L698.283 81.4737C697.597 82.7478 696.592 84.1443 695.269 85.6634C693.995 87.1334 692.28 88.4074 690.124 89.4855C687.968 90.5145 685.224 91.029 681.892 91.029ZM672.998 67.5818H690.051C689.855 65.4747 688.997 63.7842 687.478 62.5101C686.008 61.2361 684.072 60.5991 681.671 60.5991C679.172 60.5991 677.188 61.2361 675.718 62.5101C674.248 63.7842 673.341 65.4747 672.998 67.5818ZM719.168 91.029C714.415 91.029 710.52 90 707.481 87.9419C704.443 85.8839 702.606 82.9438 701.969 79.1217L710.495 76.9166C710.838 78.6316 711.402 79.9792 712.186 80.9592C713.019 81.9392 714.023 82.6498 715.199 83.0908C716.424 83.4828 717.747 83.6788 719.168 83.6788C721.324 83.6788 722.917 83.3113 723.946 82.5763C724.975 81.7922 725.49 80.8367 725.49 79.7097C725.49 78.5826 725 77.7251 724.02 77.1371C723.039 76.5001 721.471 75.9856 719.315 75.5935L717.257 75.226C714.709 74.736 712.382 74.0745 710.275 73.2415C708.168 72.3594 706.477 71.1589 705.203 69.6399C703.929 68.1208 703.292 66.1607 703.292 63.7597C703.292 60.1336 704.615 57.365 707.261 55.4539C709.907 53.4938 713.386 52.5138 717.698 52.5138C721.765 52.5138 725.147 53.4203 727.842 55.2334C730.537 57.0465 732.301 59.423 733.134 62.3631L724.534 65.0092C724.142 63.1472 723.333 61.8241 722.108 61.0401C720.932 60.2561 719.462 59.8641 717.698 59.8641C715.934 59.8641 714.587 60.1826 713.656 60.8196C712.725 61.4076 712.259 62.2406 712.259 63.3187C712.259 64.4947 712.749 65.3767 713.729 65.9647C714.709 66.5038 716.032 66.9203 717.698 67.2143L719.756 67.5818C722.5 68.0718 724.975 68.7333 727.18 69.5664C729.434 70.3504 731.198 71.5019 732.472 73.021C733.795 74.491 734.457 76.5001 734.457 79.0482C734.457 82.8703 733.06 85.8349 730.267 87.9419C727.523 90 723.823 91.029 719.168 91.029Z" fill="white"/>
<path d="M209.323 90L222.847 38.5484H239.753L253.277 90H243.281L240.488 78.6806H222.112L219.319 90H209.323ZM224.391 69.7134H238.209L231.962 44.6491H230.639L224.391 69.7134ZM253.997 90V83.8258C253.997 80.2487 254.585 77.2841 255.761 74.932C256.937 72.5309 258.628 70.5709 260.833 69.0518C263.087 67.4838 265.831 66.2098 269.065 65.2297L273.99 63.6862C275.803 63.0982 277.322 62.3876 278.547 61.5546C279.772 60.6726 280.703 59.619 281.34 58.394C282.026 57.169 282.369 55.7724 282.369 54.2044V53.9104C282.369 51.4603 281.536 49.5247 279.87 48.1037C278.204 46.6336 275.925 45.8986 273.034 45.8986C270.192 45.8986 267.889 46.6826 266.125 48.2507C264.41 49.7697 263.552 51.9748 263.552 54.8659V56.1889H254.144V55.0129C254.144 51.2888 254.977 48.1282 256.643 45.5311C258.309 42.934 260.563 40.9495 263.405 39.5774C266.296 38.2054 269.506 37.5193 273.034 37.5193C276.562 37.5193 279.747 38.2054 282.589 39.5774C285.431 40.9005 287.661 42.787 289.278 45.2371C290.944 47.6382 291.777 50.4803 291.777 53.7634V54.4984C291.777 57.7815 291.091 60.5746 289.719 62.8776C288.396 65.1317 286.583 66.9938 284.28 68.4638C281.977 69.8849 279.355 71.0609 276.415 71.9919L271.711 73.462C269.604 74.099 267.962 74.8095 266.786 75.5935C265.61 76.3286 264.777 77.1616 264.287 78.0926C263.846 78.9747 263.626 80.0527 263.626 81.3267V81.6207H291.336V90H253.997Z" fill="white"/>
</svg>
