<svg width="80" height="80" viewBox="0 0 80 80" fill="none" xmlns="http://www.w3.org/2000/svg">
<path d="M55.5586 20.666H24.444C22.3586 20.666 20.668 22.3566 20.668 24.442V55.5566C20.668 57.6421 22.3586 59.3327 24.444 59.3327H55.5586C57.6441 59.3327 59.3347 57.6421 59.3347 55.5566V24.442C59.3347 22.3566 57.6441 20.666 55.5586 20.666Z" fill="url(#paint0_linear_4558_191)"/>
<path d="M52.4964 25.6934H44.3281C43.3271 25.6934 42.5156 26.5049 42.5156 27.5059V40.7976C42.5156 41.7986 43.3271 42.6101 44.3281 42.6101H52.4964C53.4974 42.6101 54.3089 41.7986 54.3089 40.7976V27.5059C54.3089 26.5049 53.4974 25.6934 52.4964 25.6934Z" fill="white"/>
<path d="M35.6762 25.6934H27.5078C26.5068 25.6934 25.6953 26.5049 25.6953 27.5059V50.4643C25.6953 51.4653 26.5068 52.2768 27.5078 52.2768H35.6762C36.6772 52.2768 37.4887 51.4653 37.4887 50.4643V27.5059C37.4887 26.5049 36.6772 25.6934 35.6762 25.6934Z" fill="white"/>
<defs>
<linearGradient id="paint0_linear_4558_191" x1="40.0013" y1="20.666" x2="40.0013" y2="59.3327" gradientUnits="userSpaceOnUse">
<stop stop-color="#0091E6"/>
<stop offset="1" stop-color="#0079BF"/>
</linearGradient>
</defs>
</svg>
