<svg width="80" height="80" viewBox="0 0 80 80" fill="none" xmlns="http://www.w3.org/2000/svg">
<path d="M4.17578 35.1797V33.0488H13.4624V35.1797H10.0652V44.5741H7.57297V35.1797H4.17578Z" fill="#33393F"/>
<path d="M15.8357 47.0599C15.4016 47.3505 14.7984 47.4956 14.0261 47.4956C13.7931 47.4956 13.5629 47.4877 13.3356 47.4714C13.1078 47.4551 12.8777 47.4364 12.6451 47.4151V45.5265C12.8567 45.5479 13.0736 45.5694 13.296 45.5908C13.5181 45.6122 13.7403 45.6177 13.9626 45.6071C14.2586 45.5749 14.4786 45.4563 14.6215 45.252C14.7619 45.0549 14.8369 44.8174 14.8356 44.5741C14.8356 44.3913 14.8038 44.2187 14.7404 44.0574L11.8672 36.2288H14.2642L16.1215 41.9427H16.1532L17.947 36.2288H20.2805L16.8517 45.6071C16.6081 46.2848 16.2695 46.7691 15.8357 47.0599ZM23.2241 36.2288V37.2942H23.256C23.531 36.8422 23.8802 36.5139 24.3035 36.3096C24.7268 36.1053 25.1925 36.0029 25.7007 36.0029C26.3459 36.0029 26.9015 36.1266 27.3675 36.3741C27.833 36.6218 28.2193 36.95 28.5263 37.3587C28.8331 37.7677 29.0604 38.2439 29.2087 38.7873C29.3569 39.3309 29.4311 39.8985 29.4311 40.4905C29.4311 41.0501 29.3569 41.588 29.2087 42.1043C29.0604 42.621 28.8357 43.0785 28.5341 43.4763C28.2325 43.8746 27.8568 44.1923 27.4071 44.4288C26.9572 44.6652 26.4308 44.7841 25.8276 44.7841C25.3196 44.7841 24.8513 44.6791 24.4226 44.4693C23.9939 44.2594 23.642 43.9501 23.367 43.5411H23.3352V47.6259H21.081V36.2288H23.2241ZM26.154 42.8392C26.3977 42.6934 26.6043 42.4916 26.7572 42.2498C26.9105 42.0076 27.0192 41.7254 27.0827 41.4024C27.1463 41.0794 27.1781 40.7514 27.1781 40.4176C27.1784 40.0866 27.1438 39.7565 27.0748 39.433C27.0058 39.1103 26.8923 38.8223 26.7334 38.5693C26.5782 38.3203 26.3692 38.1105 26.1222 37.956C25.8736 37.8003 25.5692 37.7219 25.2095 37.7219C24.8389 37.7219 24.5295 37.8003 24.2809 37.956C24.0366 38.1078 23.8301 38.315 23.6777 38.5614C23.5242 38.8091 23.4159 39.094 23.3522 39.4168C23.2881 39.7464 23.2562 40.0816 23.257 40.4176C23.257 40.7514 23.2912 41.0794 23.3602 41.4024C23.4289 41.7254 23.54 42.0076 23.6935 42.2498C23.8468 42.492 24.0507 42.6884 24.3047 42.8392C24.5587 42.9898 24.8655 43.0649 25.2253 43.0649C25.5958 43.0649 25.9052 42.9898 26.154 42.8392ZM33.0412 42.5724C33.3797 42.9063 33.8668 43.0728 34.5017 43.0728C34.9568 43.0728 35.3483 42.9576 35.6765 42.7258C36.0043 42.4944 36.2055 42.2496 36.2795 41.9913H38.2639C37.9463 42.9922 37.4593 43.7081 36.8035 44.1382C36.1472 44.5686 35.3537 44.7841 34.4224 44.7841C33.7768 44.7841 33.1945 44.6791 32.6764 44.4693C32.1576 44.2594 31.7183 43.9609 31.3589 43.5734C30.999 43.1863 30.7212 42.7232 30.5253 42.1855C30.3293 41.6472 30.2317 41.0554 30.2317 40.4097C30.2317 39.7857 30.3321 39.2047 30.5333 38.6666C30.7342 38.1283 31.02 37.6631 31.3905 37.2701C31.7607 36.8776 32.2025 36.568 32.716 36.3421C33.229 36.1158 33.7978 36.0031 34.4224 36.0031C35.1209 36.0031 35.7293 36.1403 36.2477 36.4146C36.7663 36.6891 37.1924 37.0579 37.5256 37.5203C37.859 37.983 38.0996 38.5105 38.2479 39.1021C38.396 39.6943 38.4488 40.313 38.4066 40.9585H32.4856C32.5175 41.7007 32.7026 42.2388 33.0412 42.5724ZM35.5892 38.1821C35.3192 37.8807 34.9092 37.7299 34.3592 37.7299C33.9991 37.7299 33.7003 37.7919 33.4621 37.9155C33.2242 38.0396 33.0336 38.1928 32.8909 38.3756C32.748 38.5586 32.6474 38.7527 32.5895 38.9568C32.5311 39.1611 32.4967 39.3441 32.4861 39.5055H36.153C36.0468 38.9243 35.8588 38.4835 35.5892 38.1821ZM38.4346 37.7622V36.2288H39.7838V35.5831C39.7838 34.8407 40.0111 34.2328 40.4665 33.759C40.9214 33.2856 41.6095 33.0488 42.5301 33.0488C42.7311 33.0488 42.9324 33.0571 43.1333 33.073C43.3343 33.0893 43.5302 33.1029 43.7209 33.1135V34.8244C43.447 34.7917 43.1714 34.7755 42.8956 34.7759C42.5886 34.7759 42.3688 34.8488 42.2367 34.9941C42.1042 35.1392 42.0384 35.3842 42.0384 35.7286V36.2288H43.5939V37.7622H42.0384V44.5741H39.7842V37.7622H38.4346ZM43.8919 38.5936C44.0928 38.0502 44.3786 37.5874 44.7491 37.2052C45.1193 36.8236 45.5636 36.5275 46.0824 36.3177C46.6008 36.1077 47.1828 36.0029 47.8286 36.0029C48.4737 36.0029 49.0589 36.1077 49.5831 36.3177C50.1068 36.5275 50.5546 36.8236 50.9242 37.2052C51.2953 37.5874 51.5809 38.0502 51.7818 38.5936C51.9824 39.1369 52.0832 39.7424 52.0832 40.4095C52.0832 41.0766 51.9824 41.6792 51.7818 42.2174C51.5809 42.7557 51.2951 43.2154 50.9242 43.5974C50.5544 43.9794 50.1068 44.2727 49.5831 44.477C49.0591 44.6813 48.4737 44.7839 47.8286 44.7839C47.1828 44.7839 46.6008 44.6813 46.0824 44.477C45.5636 44.2727 45.1193 43.9794 44.7491 43.5974C44.3784 43.2154 44.0928 42.7555 43.8919 42.2174C43.6905 41.6792 43.5901 41.0768 43.5901 40.4095C43.5901 39.7422 43.6905 39.1369 43.8919 38.5936ZM45.9395 41.3859C46.003 41.7036 46.1112 41.9889 46.2651 42.2415C46.416 42.4921 46.6261 42.7003 46.8764 42.8471C47.1301 42.9977 47.4476 43.0728 47.8286 43.0728C48.2097 43.0728 48.5295 42.9977 48.7887 42.8471C49.0479 42.6965 49.2546 42.4946 49.4081 42.2415C49.5617 41.9889 49.6703 41.7034 49.7342 41.3859C49.7972 41.0686 49.8294 40.7432 49.8294 40.4095C49.8294 40.0761 49.7974 39.7475 49.7342 39.4247C49.6703 39.1019 49.5617 38.817 49.4081 38.5693C49.2546 38.3221 49.0479 38.1202 48.7887 37.9639C48.5295 37.8082 48.2097 37.7299 47.8286 37.7299C47.4476 37.7299 47.1301 37.8082 46.8764 37.9639C46.6285 38.1139 46.4191 38.3213 46.2651 38.5693C46.1112 38.817 46.003 39.1019 45.9395 39.4247C45.8759 39.749 45.844 40.0788 45.8442 40.4095C45.8442 40.7432 45.8761 41.0686 45.9395 41.3859ZM55.0399 36.2288V37.7783H55.0715C55.177 37.52 55.3201 37.2807 55.5 37.0601C55.68 36.8395 55.8863 36.6511 56.1193 36.4954C56.3505 36.3401 56.6016 36.2179 56.8656 36.1321C57.1323 36.0456 57.4108 36.002 57.6908 36.0029C57.8393 36.0029 58.0032 36.03 58.1833 36.0835V38.2142C58.0572 38.1898 57.93 38.171 57.8022 38.1578C57.6598 38.142 57.5166 38.1339 57.3733 38.1334C56.9607 38.1334 56.6114 38.2036 56.3258 38.3434C56.04 38.4835 55.8098 38.6744 55.6355 38.9163C55.4608 39.1585 55.3361 39.441 55.2623 39.7637C55.1884 40.0865 55.1512 40.4363 55.1512 40.8132V44.5741H52.8972V36.2288H55.0399ZM61.111 36.2288V37.3587H61.1424C61.4384 36.9287 61.7963 36.5947 62.2139 36.3578C62.6318 36.1215 63.1108 36.0029 63.6506 36.0029C64.1691 36.0029 64.6427 36.1053 65.0716 36.3096C65.5001 36.5139 65.8253 36.8745 66.048 37.391C66.2912 37.0251 66.6216 36.7024 67.0401 36.4225C67.458 36.1427 67.9526 36.0029 68.5244 36.0029C68.9583 36.0029 69.3602 36.0568 69.7304 36.1643C70.1013 36.2719 70.4185 36.4443 70.6831 36.6808C70.9471 36.9177 71.1536 37.227 71.3025 37.6088C71.45 37.991 71.5243 38.4511 71.5243 38.9892V44.5741H69.2697V39.8445C69.2697 39.5647 69.2595 39.3012 69.2381 39.0535C69.2173 38.8062 69.159 38.5911 69.0636 38.408C68.9683 38.2252 68.828 38.0799 68.6431 37.972C68.4577 37.8646 68.2068 37.8107 67.8891 37.8107C67.5713 37.8107 67.3151 37.8727 67.1188 37.9963C66.9274 38.1153 66.769 38.282 66.6587 38.4806C66.5476 38.6798 66.4733 38.9057 66.4365 39.1585C66.3993 39.4123 66.3809 39.6685 66.3813 39.9251V44.5741H64.1267V39.893C64.1267 39.6453 64.1215 39.4007 64.1107 39.1585C64.0999 38.9163 64.0554 38.6931 63.9756 38.4888C63.8965 38.2844 63.764 38.1202 63.5793 37.9963C63.3938 37.8727 63.1212 37.8107 62.7615 37.8107C62.6553 37.8107 62.5154 37.8349 62.3404 37.8833C62.1655 37.9317 61.9968 38.0231 61.8327 38.1578C61.669 38.2924 61.5285 38.4861 61.412 38.7387C61.2955 38.9918 61.2377 39.3225 61.2377 39.7316V44.5741H58.9831V36.2288H61.111Z" fill="#33393F"/>
<path d="M73.8203 30.334H75.8217V49.6673H73.8203V30.334Z" fill="#89C6BE"/>
</svg>
