<svg width="80" height="80" viewBox="0 0 80 80" fill="none" xmlns="http://www.w3.org/2000/svg">
<path d="M40.65 35.5358C38.0953 37.9479 36.4976 41.3675 36.4976 45.1637C36.4976 48.1459 37.4848 50.8937 39.1438 53.1024L34.1058 58.1706C33.658 58.0077 33.1796 57.9163 32.6808 57.9163C31.5818 57.9163 30.5539 58.3438 29.7803 59.1173C29.0068 59.8907 28.5793 60.9286 28.5793 62.0282C28.5793 63.1271 29.0067 64.1551 29.7803 64.9288C30.5539 65.702 31.592 66.1092 32.6808 66.1092C33.78 66.1092 34.8079 65.7121 35.5916 64.9288C36.3652 64.1551 36.7926 63.1169 36.7926 62.0282C36.7926 61.6007 36.7317 61.1934 36.5992 60.7965L41.6882 55.6873C43.9272 57.4072 46.7157 58.4252 49.7588 58.4252C57.0766 58.4252 62.9897 52.4915 62.9897 45.1739C62.9897 38.5381 58.1351 33.0423 51.7741 32.0754V25.8061C53.5552 25.0528 54.644 23.3837 54.644 21.4396C54.644 18.7833 52.517 16.5647 49.8605 16.5647C47.2043 16.5647 45.1077 18.7833 45.1077 21.4396C45.1077 23.3837 46.1967 25.0528 47.9777 25.8061V32.0346C46.4308 32.2484 44.9652 32.7165 43.632 33.4188C40.823 31.2916 31.6734 24.6965 26.442 20.717C26.5641 20.2692 26.6457 19.8011 26.6457 19.3127C26.6457 16.3815 24.254 14 21.3126 14C18.3815 14 16 16.3815 16 19.3127C16 22.254 18.3815 24.6355 21.3126 24.6355C22.3101 24.6355 23.2361 24.3403 24.0402 23.8621L40.65 35.5358ZM49.7588 52.1866C45.8813 52.1866 42.7364 49.0415 42.7364 45.1638C42.7364 41.2863 45.8813 38.1415 49.7588 38.1415C53.6364 38.1415 56.7813 41.2863 56.7813 45.1638C56.7814 49.0415 53.6365 52.1866 49.7588 52.1866Z" fill="#FF7A59"/>
</svg>
