<svg width="30" height="35" viewBox="0 0 30 35" fill="none" xmlns="http://www.w3.org/2000/svg">
<path d="M16.9799 5.1614C16.7666 5.11874 16.5533 5.07609 16.2974 5.07609L16.9372 4.22295L18.3876 2.17542L16.3827 0.255859H12.8848L10.88 2.17542L12.6716 4.69217L12.9702 5.11874H12.6716C4.65206 6.18517 -0.935986 13.5648 0.130436 21.5843C1.19686 29.6038 8.5765 35.1918 16.596 34.1254C24.6155 33.059 30.2035 25.6794 29.1371 17.6599C28.284 11.304 23.3358 6.22782 16.9799 5.1614ZM2.05 19.6221C2.05 12.669 7.6807 6.99565 14.6764 6.99565C17.7477 6.99565 20.7337 8.14738 23.0798 10.1949L17.6198 15.5697C17.3212 15.1431 16.8519 14.8445 16.34 14.8445H12.7142C11.6051 14.8445 11.0933 16.1669 11.0933 16.1669L9.47229 21.4137C9.47229 21.4137 9.21635 22.2668 9.94152 22.4374C10.6667 22.6081 10.88 21.8402 10.88 21.8402L12.2023 17.3613C12.2023 17.3613 12.2876 17.0627 12.5009 17.148C12.7142 17.2333 12.6289 17.5319 12.6289 17.5319L11.4772 21.7549L5.24926 27.9828C3.15907 25.6794 2.05 22.6934 2.05 19.6221ZM14.6338 32.2485C11.7331 32.2485 8.91775 31.2674 6.65694 29.3905L11.3919 24.6556H12.0317V28.8786C12.0317 29.6038 12.373 30.1583 13.0555 30.1583C13.738 30.1583 14.0792 29.6038 14.0792 28.8786V24.6556L14.5058 22.6507L13.7806 22.992L14.8897 19.3235L14.4205 22.0535L15.231 21.7123L14.8897 24.6556C14.8897 24.7836 14.8897 24.8689 14.8897 24.8689V28.8786C14.8897 29.6038 15.231 30.1583 15.9135 30.1583C16.596 30.1583 16.9372 29.6038 16.9372 28.8786V24.6556H18.3449L16.8946 19.1955L17.2785 18.8116L18.1743 21.8829C18.1743 21.8829 18.3876 22.6934 19.1127 22.4801C19.8379 22.2668 19.582 21.4563 19.582 21.4563L18.4302 17.7025L24.4449 11.6879C28.8385 17.0627 28.028 24.9969 22.6106 29.3905C20.3925 31.2248 17.5771 32.2485 14.6338 32.2485Z" fill="white"/>
<path d="M11.0508 11.5173C11.1361 11.3466 11.3067 11.0481 11.9466 10.9627C12.0746 10.9627 12.1599 10.9201 12.2878 10.8774C12.4158 10.6641 12.5438 10.4935 12.6717 10.3229C12.6717 10.2802 12.6717 10.2376 12.6717 10.1949C12.6291 9.89631 12.3305 9.55506 11.6906 9.85366C10.8802 10.2376 10.9655 11.3893 10.9655 11.3893C11.0081 11.5173 11.0081 11.5599 11.0508 11.5173Z" fill="white"/>
<path d="M16.8097 10.8348C16.9377 10.9201 17.0656 10.9627 17.1936 10.9627C17.8335 11.0481 18.0467 11.3466 18.0894 11.5173C18.0894 11.5599 18.1321 11.4746 18.1321 11.3893C18.1321 11.3893 18.2174 10.1949 17.4069 9.85366C16.767 9.55506 16.4684 9.89631 16.4258 10.1949C16.4258 10.2376 16.4258 10.2802 16.4258 10.3229C16.5538 10.4935 16.6817 10.6641 16.8097 10.8348Z" fill="white"/>
<path d="M14.5482 14.2898C15.7426 14.2898 16.7664 13.3087 16.7664 12.0717C16.7664 10.8346 15.7853 9.85352 14.5482 9.85352C13.3112 9.85352 12.3301 10.8346 12.3301 12.0717C12.3301 13.3087 13.3112 14.2898 14.5482 14.2898Z" fill="white"/>
</svg>
