<svg width="44" height="27" viewBox="0 0 44 27" fill="none" xmlns="http://www.w3.org/2000/svg">
<path d="M43.0023 25.1159V12.8923C43.0023 12.8923 43.1105 11.2697 41.7584 10.5666C41.4338 10.4585 41.2175 10.1339 41.1634 9.80941C41.1093 9.21446 41.2175 8.56543 40.4603 8.56543C39.7031 8.56543 39.8113 9.21446 39.7572 9.80941C39.7031 10.1339 39.4867 10.4585 39.1622 10.5666C37.8101 11.2697 37.9182 12.8923 37.9182 12.8923V25.1159C37.5937 25.1699 37.3233 25.5485 37.4315 25.8731C37.4855 26.1435 37.756 26.3598 38.0264 26.3598H42.8942C43.2728 26.3598 43.5432 26.0353 43.5432 25.7108C43.4891 25.4404 43.3269 25.1699 43.0023 25.1159Z" fill="white"/>
<path d="M34.1319 8.8916H29.3182C28.9937 8.8916 28.7773 9.10795 28.7773 9.43247V25.8206C28.7773 26.1451 28.9937 26.3615 29.2641 26.3615C29.2641 26.3615 29.2641 26.3615 29.3182 26.3615H34.1319C34.4564 26.3615 34.6728 26.1451 34.6728 25.8206C34.6728 25.8206 34.6728 25.8206 34.6728 25.7665V9.43247C34.7268 9.16203 34.4564 8.8916 34.1319 8.8916ZM30.0213 25.6584C29.6968 25.6584 29.4805 25.442 29.4805 25.1175C29.4805 24.793 29.6968 24.5766 30.0213 24.5766C30.3458 24.5766 30.5622 24.793 30.5622 25.1175C30.5622 25.3879 30.3458 25.6584 30.0213 25.6584ZM30.0213 23.9817C29.6968 23.9817 29.4805 23.7113 29.4805 23.4408C29.4805 23.1704 29.7509 22.9 30.0213 22.9C30.2918 22.9 30.5622 23.1704 30.5622 23.4408C30.5622 23.7113 30.3458 23.9817 30.0213 23.9817ZM30.0213 22.3591C29.6968 22.3591 29.4805 22.1428 29.4805 21.8182C29.4805 21.4937 29.6968 21.2774 30.0213 21.2774C30.3458 21.2774 30.5622 21.4937 30.5622 21.8182C30.5622 22.0887 30.3458 22.3591 30.0213 22.3591ZM30.0213 20.6824C29.6968 20.6824 29.4805 20.4661 29.4805 20.1416C29.4805 19.817 29.6968 19.6007 30.0213 19.6007C30.3458 19.6007 30.5622 19.817 30.5622 20.1416C30.5622 20.412 30.3458 20.6824 30.0213 20.6824ZM30.0213 19.0057C29.6968 19.0057 29.4805 18.7894 29.4805 18.4649C29.4805 18.1404 29.6968 17.924 30.0213 17.924C30.3458 17.924 30.5622 18.1404 30.5622 18.4649C30.5622 18.7894 30.3458 19.0057 30.0213 19.0057ZM30.0213 17.3832C29.6968 17.3832 29.4805 17.1668 29.4805 16.8423C29.4805 16.5178 29.6968 16.3014 30.0213 16.3014C30.3458 16.3014 30.5622 16.5178 30.5622 16.8423C30.5622 17.1127 30.3458 17.3832 30.0213 17.3832ZM30.0213 15.7065C29.6968 15.7065 29.4805 15.4901 29.4805 15.1656C29.4805 14.8411 29.6968 14.6248 30.0213 14.6248C30.3458 14.6248 30.5622 14.8411 30.5622 15.1656C30.5622 15.4901 30.3458 15.7065 30.0213 15.7065ZM30.0213 14.0298C29.6968 14.0298 29.4805 13.8135 29.4805 13.4889C29.4805 13.1644 29.6968 12.9481 30.0213 12.9481C30.3458 12.9481 30.5622 13.1644 30.5622 13.4889C30.5622 13.8135 30.3458 14.0298 30.0213 14.0298ZM30.0213 12.4072C29.6968 12.4072 29.4805 12.1909 29.4805 11.8664C29.4805 11.5418 29.6968 11.3255 30.0213 11.3255C30.3458 11.3255 30.5622 11.5418 30.5622 11.8664C30.6163 12.1368 30.3458 12.4072 30.0213 12.4072ZM30.0213 10.7305C29.6968 10.7305 29.4805 10.5142 29.4805 10.1897C29.4805 9.86516 29.6968 9.64881 30.0213 9.64881C30.2918 9.64881 30.5622 9.86516 30.5622 10.1356C30.6163 10.4601 30.3458 10.7305 30.0213 10.7305C30.0754 10.7305 30.0754 10.7305 30.0213 10.7305ZM31.9144 25.4961C31.9144 25.5502 31.8603 25.6584 31.7521 25.6584C31.698 25.6584 31.5898 25.6043 31.5898 25.4961V11.5418C31.5898 11.4337 31.6439 11.3796 31.7521 11.3796C31.8062 11.3796 31.9144 11.4337 31.9144 11.5418V25.4961ZM31.698 10.7305C31.3735 10.7305 31.1571 10.5142 31.1571 10.1897C31.1571 9.86516 31.3735 9.64881 31.698 9.64881C31.9684 9.64881 32.2389 9.86516 32.2389 10.1356C32.2389 10.4601 32.0225 10.7305 31.698 10.7305ZM33.4829 25.6584C33.1583 25.6584 32.942 25.442 32.942 25.1175C32.942 24.793 33.1583 24.5766 33.4829 24.5766C33.8074 24.5766 34.0237 24.793 34.0237 25.1175C34.0237 25.442 33.7533 25.6584 33.4829 25.6584ZM33.4829 23.9817C33.1583 23.9817 32.942 23.7653 32.942 23.4408C32.942 23.1163 33.1583 22.9 33.4829 22.9C33.8074 22.9 34.0237 23.1163 34.0237 23.4408C34.0237 23.7653 33.7533 23.9817 33.4829 23.9817ZM33.4829 22.305C33.1583 22.305 32.942 22.0887 32.942 21.7642C32.942 21.4396 33.1583 21.2233 33.4829 21.2233C33.8074 21.2233 34.0237 21.4396 34.0237 21.7642C34.0237 22.0887 33.7533 22.305 33.4829 22.305ZM33.4829 20.6824C33.1583 20.6824 32.942 20.4661 32.942 20.1416C32.942 19.817 33.1583 19.6007 33.4829 19.6007C33.8074 19.6007 34.0237 19.817 34.0237 20.1416C34.0237 20.412 33.7533 20.6824 33.4829 20.6824ZM33.4829 19.0057C33.1583 19.0057 32.942 18.7894 32.942 18.4649C32.942 18.1404 33.1583 17.924 33.4829 17.924C33.8074 17.924 34.0237 18.1404 34.0237 18.4649C34.0237 18.7894 33.7533 19.0057 33.4829 19.0057ZM33.4829 17.3291C33.1583 17.3291 32.942 17.1127 32.942 16.7882C32.942 16.4637 33.1583 16.2473 33.4829 16.2473C33.8074 16.2473 34.0237 16.4637 34.0237 16.7882C34.0237 17.1127 33.7533 17.3291 33.4829 17.3291ZM33.4829 15.7065C33.1583 15.7065 32.942 15.4901 32.942 15.1656C32.942 14.8411 33.1583 14.6248 33.4829 14.6248C33.8074 14.6248 34.0237 14.8411 34.0237 15.1656C34.0237 15.436 33.7533 15.7065 33.4829 15.7065ZM33.4829 14.0298C33.1583 14.0298 32.942 13.8135 32.942 13.4889C32.942 13.1644 33.1583 12.9481 33.4829 12.9481C33.8074 12.9481 34.0237 13.1644 34.0237 13.4889C34.0237 13.8135 33.7533 14.0298 33.4829 14.0298ZM33.4829 12.4072C33.1583 12.4072 32.942 12.1909 32.942 11.8664C32.942 11.5418 33.1583 11.3255 33.4829 11.3255C33.8074 11.3255 34.0237 11.5418 34.0237 11.8664C34.0237 12.1368 33.8074 12.4072 33.4829 12.4072ZM33.4829 10.7305C33.1583 10.7305 32.942 10.5142 32.942 10.1897C32.942 9.86516 33.1583 9.64881 33.4829 9.64881C33.7533 9.64881 34.0237 9.86516 34.0237 10.1356C34.0237 10.4601 33.8074 10.7305 33.4829 10.7305Z" fill="white"/>
<path d="M20.2857 5.86191C21.4216 5.86191 22.3951 4.94245 22.3951 3.80663C22.3951 2.67082 21.4756 1.69727 20.3398 1.69727C19.204 1.69727 18.2305 2.61673 18.2305 3.75255C18.2305 4.94245 19.1499 5.86191 20.2857 5.86191Z" fill="white"/>
<path d="M24.5042 8.51224C24.5042 8.51224 23.9093 6.88965 22.503 6.88965H18.0679C16.7158 6.88965 16.0667 8.51224 16.0667 8.51224L14.336 14.1372C14.336 14.1372 14.0115 15.1649 14.8768 15.4353C15.7422 15.7057 16.0126 14.6781 16.0126 14.6781L17.4189 9.97257C17.4189 9.97257 17.473 9.59397 17.7434 9.70214C18.0138 9.81031 17.9057 10.1889 17.9057 10.1889L15.4718 19.005H17.7434V25.3331C17.7434 25.928 18.2302 26.4148 18.8251 26.4148C19.4201 26.4148 19.9069 25.928 19.9069 25.3331V19.005H20.5559V25.3331C20.5559 25.928 21.0427 26.4148 21.6376 26.4148C22.2326 26.4148 22.7194 25.928 22.7194 25.3331V19.005H24.991L22.6112 10.1889C22.6112 10.1889 22.503 9.81031 22.7734 9.70214C23.0439 9.59397 23.098 9.97257 23.098 9.97257L24.5042 14.6781C24.5042 14.6781 24.7746 15.7057 25.64 15.4353C26.5054 15.1649 26.1809 14.1372 26.1809 14.1372L24.5042 8.51224ZM22.0703 16.0843L20.2855 17.8151L18.5547 16.0843C18.3384 15.868 18.1761 15.5435 18.1761 15.1649C18.122 14.5158 18.6088 13.975 19.2578 13.9209H19.3119C19.6364 13.9209 20.015 14.2995 20.2314 14.5158C20.5018 14.1913 20.8263 14.029 21.2049 13.9209C21.854 13.9209 22.3408 14.4617 22.3408 15.1108V15.1649C22.3948 15.5435 22.2867 15.868 22.0703 16.0843Z" fill="white"/>
<path d="M6.49413 1.69727C5.35832 1.69727 4.38477 2.61673 4.38477 3.80663C4.38477 4.94245 5.30423 5.916 6.49413 5.916C7.68403 5.916 8.6035 4.99653 8.6035 3.80663C8.6035 2.67082 7.62995 1.69727 6.49413 1.69727Z" fill="white"/>
<path d="M12.4434 14.1372L10.7127 8.51224C10.7127 8.51224 10.1177 6.88965 8.71149 6.88965H4.33049C2.97833 6.88965 2.3293 8.51224 2.3293 8.51224L0.598534 14.1372C0.598534 14.1372 0.274016 15.1649 1.19348 15.4353C2.11295 15.7057 2.3293 14.6781 2.3293 14.6781L3.73554 9.97257C3.73554 9.97257 3.78963 9.59397 4.06006 9.70214C4.33049 9.81031 4.22232 10.1889 4.22232 10.1889L1.78843 19.005H4.06006V25.3331C4.06006 25.928 4.54684 26.4148 5.14179 26.4148C5.73674 26.4148 6.22351 25.928 6.22351 25.3331V19.005H6.81846V25.3331C6.81846 25.928 7.30524 26.4148 7.90019 26.4148C8.49514 26.4148 8.98192 25.928 8.98192 25.3331V19.005H11.2535L8.87375 10.1889C8.87375 10.1889 8.76557 9.81031 9.036 9.70214C9.30644 9.59397 9.36052 9.97257 9.36052 9.97257L10.7668 14.6781C10.7668 14.6781 11.0372 15.7057 11.9026 15.4353C12.768 15.1649 12.4434 14.1372 12.4434 14.1372ZM6.49395 15.868C6.2776 15.868 6.11534 15.7057 6.16943 15.4894C6.16943 15.273 6.38577 15.1649 6.54803 15.1649C6.71029 15.1649 6.81846 15.3271 6.87255 15.4894C6.87255 15.7057 6.71029 15.868 6.49395 15.868ZM6.49395 13.0555C6.2776 13.0555 6.11534 12.8932 6.11534 12.731C6.11534 12.5146 6.2776 12.3524 6.43986 12.3524C6.60212 12.3524 6.81846 12.5146 6.81846 12.6769C6.87255 12.8932 6.71029 13.0555 6.49395 13.0555ZM6.49395 10.3512C6.2776 10.3512 6.11534 10.1889 6.11534 10.0267C6.11534 9.81031 6.2776 9.64805 6.43986 9.64805C6.60212 9.64805 6.81846 9.81031 6.81846 9.97257C6.87255 10.1889 6.71029 10.3512 6.49395 10.3512Z" fill="white"/>
<path d="M6.54844 1.31858C7.25157 1.31858 7.9006 1.6431 8.38738 2.12988L9.25276 1.15632C8.54964 0.4532 7.57608 0.0205078 6.54844 0.0205078C5.5208 0.0205078 4.49316 0.507287 3.79004 1.2645L4.81768 2.07579C5.30446 1.58901 5.89941 1.31858 6.54844 1.31858Z" fill="white"/>
</svg>
