<svg width="44" height="47" viewBox="0 0 44 47" fill="none" xmlns="http://www.w3.org/2000/svg">
<path d="M13.2999 28.2347C13.6771 28.5249 14.1082 28.6409 14.5393 28.5829C14.4854 28.5249 14.4315 28.4088 14.3776 28.2928C14.0004 27.4223 14.9704 26.9 14.9704 26.9L15.4014 26.7259L16.4253 26.2617L16.1019 26.2037L12.6533 25.8555C12.33 26.7259 12.5994 27.7125 13.2999 28.2347Z" fill="white"/>
<path d="M13.7862 23.9404L12.8701 25.3912L14.4867 25.5653L13.7862 23.9404Z" fill="white"/>
<path d="M16.5873 25.7976H16.695L17.1261 25.8556L17.8266 24.811C18.3655 23.9406 18.2038 22.838 17.4494 22.1416L17.3417 22.0256C16.5334 21.3872 15.3479 21.6194 14.7552 22.4898L14.4319 22.9541L14.0547 23.5344L14.9707 25.6235L16.5873 25.7976ZM14.8091 23.4763C14.9168 22.6059 15.6712 22.0256 16.4795 22.1416C16.695 22.1997 16.9106 22.2577 17.1261 22.4318C17.7727 22.9541 17.9344 23.9406 17.5033 24.637V24.695C17.0184 25.3914 16.1023 25.5654 15.4557 25.0432C14.9707 24.637 14.7552 24.0566 14.8091 23.4763Z" fill="white"/>
<path d="M15.8876 16.5708C15.8876 15.3522 14.9715 14.3076 13.7861 14.3076C12.6006 14.3076 11.6846 15.2941 11.6846 16.5708C11.6846 17.8475 12.6006 18.834 13.7861 18.834C14.9177 18.834 15.8876 17.8475 15.8876 16.5708Z" fill="white"/>
<path d="M9.58231 21.6765L7.80411 27.7697C7.69635 28.1179 7.75023 28.4661 7.91188 28.8143C8.12742 29.1044 8.50462 29.2785 8.82793 29.2205C9.36677 29.1044 9.52843 28.4081 9.52843 28.4081L10.9294 23.3014C10.9294 23.3014 10.9833 22.8951 11.2527 23.0112C11.5222 23.1273 11.4144 23.5335 11.4144 23.5335L8.98958 33.0505H11.2527V39.8981C11.2527 40.5365 11.7377 41.0588 12.3304 41.0588C12.9232 41.0588 13.4081 40.5365 13.4081 39.8981V33.0505H14.0548V39.8981C14.0548 40.5365 14.5397 41.0588 15.1324 41.0588C15.7252 41.0588 16.2101 40.5365 16.2101 39.8981V33.0505H18.4733L17.1801 27.9438C17.9345 27.5956 18.8505 27.1314 19.066 27.0734C19.2816 26.9573 19.3355 26.7832 19.3355 26.5511C19.3355 26.5511 18.3655 22.4309 18.3655 22.3729C18.2578 21.7926 17.6111 20.1677 16.3179 19.9936H11.5761C10.175 19.9356 9.58231 21.6765 9.58231 21.6765ZM14.4319 22.9532L14.7553 22.4889C15.348 21.6185 16.4796 21.4444 17.3417 22.0247L17.4495 22.1407C18.2039 22.7791 18.3655 23.9397 17.8267 24.8102L17.1801 25.9127L16.749 25.8547H16.6412L15.0247 25.6806L14.1086 23.5915L14.4319 22.9532ZM12.8154 25.3905L13.7853 23.9397L14.4858 25.5646L12.8154 25.3905ZM12.5999 25.8547L16.0485 26.2029L16.3718 26.2609L15.4019 26.7252L15.0247 26.8993C15.0247 26.8993 14.0548 27.4215 14.4319 28.292C14.4858 28.4081 14.5397 28.4661 14.5936 28.5822C14.1625 28.6402 13.6776 28.5241 13.3542 28.234C12.5999 27.7117 12.3304 26.7252 12.5999 25.8547Z" fill="white"/>
<path d="M15.4027 24.9844C16.0494 25.4486 16.9654 25.3326 17.4504 24.6362V24.5782C17.9353 23.8818 17.7737 22.8953 17.0732 22.373C16.4266 21.8507 15.5105 22.0248 15.0256 22.7212C14.8639 22.9533 14.81 23.1854 14.7561 23.4176C14.7022 24.0559 14.9178 24.6362 15.4027 24.9844Z" fill="white"/>
<path d="M20.2523 32.1226L19.0669 35.8366C19.0669 35.8366 18.9052 36.4169 19.3902 36.591C19.6596 36.649 19.9829 36.4749 20.0368 36.1848L21.0067 32.9931C21.0067 32.9931 21.0606 32.7609 21.2223 32.819C21.3839 32.877 21.33 33.0511 21.33 33.0511L20.1985 37.4034H21.0606V40.1889C21.0606 40.6531 21.3839 41.0593 21.8689 41.0593C21.9767 41.0593 22.0844 41.0593 22.1383 41.0013C22.4616 40.8852 22.6772 40.5371 22.6772 40.1308V37.4614C22.6772 37.4034 22.6772 37.4034 22.6772 37.3454H23.1621V40.0728C23.1621 40.421 23.3777 40.7692 23.701 40.8852C24.1321 41.0593 24.5631 40.7692 24.7248 40.363C24.7787 40.2469 24.7787 40.1889 24.7787 40.0728V37.2873H25.6408L24.8326 34.0957C24.7787 33.9796 24.7787 33.8635 24.7787 33.6894V33.2832C24.7787 33.1672 24.8326 32.9931 24.8864 32.877L26.7185 29.3371C27.0957 29.2211 27.3651 28.8729 27.3651 28.4667V22.8377C27.3651 22.6056 27.419 22.3734 27.7962 22.3734C28.0656 22.3734 28.0656 22.6636 28.1195 22.8377V39.6666C28.1195 40.363 28.6584 41.0013 29.3589 41.0013C30.0055 41.0013 30.5982 40.421 30.5982 39.6666V30.0335C30.5982 29.8594 30.706 29.6853 30.9215 29.6273H30.9754C31.1371 29.6273 31.2987 29.7433 31.2987 29.9755V30.0335V39.7246C31.3526 40.479 31.9453 41.0013 32.592 40.9433C33.1847 40.8852 33.6697 40.363 33.7235 39.7246V22.8957C33.7235 22.7216 33.7774 22.4315 34.0469 22.4315C34.424 22.4315 34.4779 22.7216 34.4779 22.8957V28.5247C34.5318 29.047 34.909 29.3952 35.394 29.3371C35.825 29.2791 36.1484 28.9309 36.1484 28.5247V22.0253C36.1484 20.4004 35.0168 19.0657 33.508 18.8916H33.3464H28.5506H28.3889C26.8802 19.0657 25.7486 20.4004 25.7486 22.0253V28.5247C25.7486 28.5827 25.7486 28.6988 25.8025 28.7568L25.5869 29.163C25.5331 29.2211 24.7787 30.6718 24.5631 30.904C24.4554 31.0781 24.2398 31.1361 24.0782 31.1361H22.1383H21.4378C20.4679 31.1941 20.2523 32.1226 20.2523 32.1226Z" fill="white"/>
<path d="M24.5085 28.6989C24.5085 27.7124 23.808 26.958 22.8919 26.958C21.9759 26.958 21.2754 27.7124 21.2754 28.6989C21.2754 29.6855 21.9759 30.4399 22.8919 30.4399C23.808 30.4399 24.5085 29.6274 24.5085 28.6989Z" fill="white"/>
<path d="M32.9684 15.642C32.9684 14.3653 31.9984 13.2627 30.7591 13.2627C29.5736 13.2627 28.5498 14.3072 28.5498 15.642C28.5498 16.9767 29.5197 18.0212 30.7591 18.0212C31.9445 18.0212 32.9145 17.0347 32.9684 15.758C32.9684 15.7 32.9684 15.642 32.9684 15.642Z" fill="white"/>
<path d="M43.6375 10.7094L22.5147 0.844163C22.4608 0.786132 22.353 0.786133 22.2991 0.786133C22.2453 0.786133 22.1914 0.786132 22.1375 0.844163L1.01465 10.6514C0.906881 10.7094 0.852997 10.7674 0.906881 10.8835V13.1467C0.906881 13.3208 0.906881 13.5529 1.17631 13.4368L22.2453 4.09388C22.2991 4.09388 22.4069 4.09388 22.4608 4.09388L43.5298 13.4368C43.7992 13.5529 43.7992 13.3788 43.7992 13.1467V10.8835C43.7453 10.8254 43.6914 10.7094 43.6375 10.7094Z" fill="white"/>
<path d="M1.12311 43.7871H43.3688C43.5304 43.7871 43.6921 43.9612 43.6921 44.1353V46.2244C43.6921 46.3985 43.5304 46.5726 43.3688 46.5726H1.12311C0.961459 46.5726 0.799805 46.3985 0.799805 46.2244V44.1353C0.799805 43.9612 0.961459 43.7871 1.12311 43.7871Z" fill="white"/>
</svg>
