<svg width="52" height="33" viewBox="0 0 52 33" fill="none" xmlns="http://www.w3.org/2000/svg">
<path d="M24.6239 6.40497C26.1194 6.40497 27.2897 5.23459 27.2897 3.73911C27.2897 2.24362 26.1194 1.07324 24.6239 1.07324C23.1284 1.07324 21.958 2.24362 21.958 3.73911C21.958 5.16957 23.1934 6.40497 24.6239 6.40497Z" fill="white"/>
<path d="M42.1145 7.90023C43.6099 7.90023 44.7803 6.72985 44.7803 5.23436C44.7803 4.19402 44.1951 3.28373 43.2848 2.82858C43.3499 2.69854 43.4149 2.5685 43.4149 2.43845C43.2198 1.72322 42.5046 1.26808 41.7893 1.39812C41.2692 1.52816 40.8791 1.91829 40.749 2.43845C40.749 2.63352 40.814 2.76356 40.879 2.8936C39.5786 3.60883 39.1235 5.16934 39.8387 6.46976C40.2939 7.31504 41.2042 7.90023 42.1795 7.8352L42.1145 7.90023Z" fill="white"/>
<path d="M48.6817 19.0842C48.6817 19.0192 48.6817 19.0192 48.6167 18.9542C49.397 18.499 49.0718 17.5237 49.0718 17.5237L48.6817 16.4184L46.9262 10.7615C46.9262 10.7615 46.2109 8.74588 44.5204 8.74588L40.6191 8.68086C40.0339 8.68086 39.4487 8.4858 39.0586 8.09567L34.182 0.813308L34.117 0.748288C33.987 0.488203 33.7269 0.293138 33.4668 0.228117C33.3367 0.228117 33.2067 0.163096 33.0767 0.228117C32.8816 0.228117 32.6865 0.228118 32.1664 0.813308L27.4848 6.73023C26.9647 7.18537 26.3145 7.38044 25.6643 7.38044H23.4535C22.8033 7.38044 22.1531 7.18537 21.633 6.73023L16.9514 0.813308C16.4313 0.228118 16.3012 0.228117 16.0411 0.228117C15.9111 0.228117 15.7811 0.228117 15.651 0.228117C15.3259 0.293138 15.1308 0.553223 15.0008 0.813308L10.2543 8.09567C9.79911 8.4858 9.27894 8.68086 8.69375 8.68086L4.79249 8.74588C3.16696 8.74588 2.38671 10.7615 2.38671 10.7615L0.306031 17.5237C0.306031 17.5237 -0.0840957 18.7591 0.956242 19.0842C1.99658 19.4093 2.32168 18.1739 2.32168 18.1739L4.01223 12.5171C4.01223 12.5171 4.07725 12.062 4.40236 12.192C4.72747 12.322 4.59742 12.7772 4.59742 12.7772L1.67147 23.3756H4.40236V30.9831C4.40236 31.6983 4.98755 32.2835 5.70278 32.2835C6.41801 32.2835 7.0032 31.6983 7.0032 30.9831V23.3106H7.97852V30.9181C7.97852 31.6333 8.56371 32.2185 9.27894 32.2185C9.99417 32.2185 10.5794 31.6333 10.5794 30.9181V23.3106H13.3102L10.7094 13.6875C10.5794 13.1023 10.7094 12.4521 10.9695 11.9319L12.66 8.8109L15.716 3.67424C15.716 3.67424 15.9761 3.28411 16.2362 2.89398L19.2922 7.44546L21.1128 10.7615C21.4379 11.3467 21.5029 11.9969 21.3729 12.6471L18.577 22.7904H21.4379V30.853C21.5029 31.6333 22.1531 32.2185 22.9334 32.1535C23.6486 32.0884 24.1688 31.5683 24.2338 30.853V22.7904H25.014V30.853C25.0791 31.6333 25.7293 32.2185 26.5095 32.1535C27.2248 32.0884 27.7449 31.5683 27.81 30.853V22.7904H30.7359L27.94 12.6471C27.81 11.9969 27.94 11.3467 28.2001 10.7615L30.0207 7.44546L33.0767 2.82896C33.3367 3.28411 33.5968 3.67424 33.5968 3.67424L36.6528 8.8109L38.3434 11.9319C38.6035 12.4521 38.7335 13.1023 38.6035 13.6875L35.9376 23.3106H38.6685V30.9181C38.6685 31.6333 39.2537 32.2185 39.9689 32.2185C40.6841 32.2185 41.2693 31.6333 41.2693 30.9181V23.3106H42.1796V30.9181C42.1796 31.6333 42.7648 32.2185 43.48 32.2185C44.1953 32.2185 44.7805 31.6333 44.7805 30.9181V23.3106H47.5113L44.7154 12.7122C44.7154 12.7122 44.5854 12.257 44.9105 12.127C45.2356 11.9969 45.3006 12.4521 45.3006 12.4521L46.601 16.9385L46.9262 18.0439C46.9262 18.0439 47.1212 18.8892 47.8364 19.0192C47.8364 19.0842 47.8364 19.0842 47.8364 19.1493L50.2422 31.8284C50.3072 32.0234 50.4373 32.1535 50.6324 32.1535H50.6974C50.8924 32.0884 51.0225 31.8934 51.0225 31.6983L48.6817 19.0842Z" fill="white"/>
<path d="M5.37738 3.28391C5.31236 2.9588 4.98726 2.56868 4.27203 2.89378C3.36173 3.28391 3.49177 4.58433 3.49177 4.58433C3.49177 4.71437 3.49177 4.77939 3.55679 4.71437C3.62182 4.51931 3.81688 4.1942 4.53211 4.06416C4.66215 4.06416 4.79219 3.99914 4.92224 3.93412C5.05228 3.73906 5.18232 3.47897 5.37738 3.34893V3.28391Z" fill="white"/>
<path d="M10.579 2.89378C9.86376 2.56868 9.53865 2.9588 9.47363 3.28391C9.47363 3.34893 9.47363 3.41395 9.47363 3.47897C9.60367 3.67403 9.73372 3.80408 9.86376 4.06416C9.9938 4.12918 10.1238 4.1942 10.2539 4.1942C10.9691 4.32425 11.1642 4.64935 11.2292 4.84442C11.2292 4.90944 11.2942 4.84442 11.2942 4.71437C11.4243 4.58433 11.4893 3.34893 10.579 2.89378Z" fill="white"/>
<path d="M7.45754 2.95898C6.0921 2.95898 5.05176 4.06434 5.05176 5.36477C5.05176 6.66519 6.15712 7.77055 7.45754 7.77055C8.75796 7.77055 9.86332 6.66519 9.86332 5.36477C9.86332 4.06434 8.82298 2.95898 7.45754 2.95898Z" fill="white"/>
</svg>
