<svg width="44" height="42" viewBox="0 0 44 42" fill="none" xmlns="http://www.w3.org/2000/svg">
<path d="M30.6276 6.47392C31.9541 6.47392 33.0042 5.42379 33.0042 4.09731C33.0042 2.77083 31.9541 1.7207 30.6276 1.7207C29.3011 1.7207 28.251 2.77083 28.251 4.09731C28.3062 5.42379 29.3564 6.47392 30.6276 6.47392Z" fill="white"/>
<path d="M14.1006 6.63877C15.3718 6.63877 16.422 5.58864 16.422 4.31743C16.422 3.04622 15.3718 1.99609 14.1006 1.99609C12.8294 1.99609 11.7793 3.04622 11.7793 4.31743C11.7793 5.58864 12.8294 6.63877 14.1006 6.63877Z" fill="white"/>
<path d="M7.91123 17.3064C8.90608 17.5827 9.18243 16.4773 9.18243 16.4773L10.73 11.2267C10.73 11.2267 10.8405 10.8398 11.1169 10.8951C11.3932 10.9503 11.338 11.3925 11.338 11.3925L8.62973 21.2306H11.1722V28.3051C11.2274 28.9683 11.7801 29.4658 12.4434 29.4105C13.0513 29.4105 13.5488 28.9131 13.5488 28.3051V21.2306H14.212V28.3051C14.2673 28.9683 14.82 29.4658 15.4832 29.4105C16.0912 29.4105 16.5886 28.9131 16.5886 28.3051V21.2306H19.131L16.6991 12.3874C16.5886 11.8347 16.6991 11.282 16.9202 10.7845L18.5231 7.9105L21.5076 2.88094L24.9896 7.46834L27.1452 10.5082C27.3662 10.8951 27.5321 11.3372 27.5321 11.7794V28.2498C27.5321 28.9683 28.14 29.5763 28.8585 29.5763C29.577 29.5763 30.185 28.9683 30.185 28.2498V18.5223C30.185 18.3012 30.2955 18.1354 30.5166 18.1354H30.5719C30.793 18.1354 30.9588 18.246 30.9588 18.4671V28.1946C30.9588 28.9131 31.5668 29.4658 32.2853 29.4658C33.0038 29.4658 33.5565 28.8578 33.5565 28.1946V11.3925C33.5565 11.2267 33.6117 10.9503 33.8881 10.9503C34.275 10.9503 34.3303 11.2267 34.3303 11.4478V17.03C34.3855 17.5275 34.8277 17.9144 35.3251 17.8591C35.7673 17.8038 36.0989 17.4722 36.1542 17.03V10.5082C36.1542 8.85009 34.883 7.52361 33.2801 7.3578H28.6374C27.9742 7.41307 27.311 7.08145 26.9241 6.58402L22.4472 1.1123C22.2261 0.835951 22.0051 0.614871 21.7287 0.449061C21.2865 0.227981 20.7338 0.393792 20.4575 0.835951V0.891222L16.4228 7.19199C16.0359 7.57888 15.5385 7.79996 14.9858 7.74469H11.3932C9.84567 7.74469 9.18243 9.5686 9.18243 9.5686L7.24799 15.8694C7.30326 15.8694 6.97164 17.03 7.91123 17.3064Z" fill="white"/>
<path d="M42.952 32.0635H0.670486C0.504677 32.0635 0.394137 32.174 0.338867 32.3398V34.3295C0.338867 34.4954 0.504677 34.6612 0.670486 34.6612H43.0072C43.1731 34.6612 43.3389 34.5506 43.3389 34.3295V32.3398C43.2836 32.2293 43.1178 32.1187 42.952 32.0635Z" fill="white"/>
<path d="M21.5627 35.6554L18.6334 40.7402C18.5228 40.906 18.6334 41.1271 18.7992 41.1823C18.8544 41.1823 18.8544 41.2376 18.9097 41.2376H24.8236C24.9894 41.2376 25.1552 41.1271 25.1552 40.9613C25.1552 40.906 25.1552 40.7955 25.0999 40.7402L22.1706 35.6554C22.0601 35.4895 21.839 35.4343 21.6732 35.5448C21.6732 35.6001 21.6179 35.6554 21.5627 35.6554Z" fill="white"/>
</svg>
