<svg width="24" height="24" viewBox="0 0 24 24" fill="none" xmlns="http://www.w3.org/2000/svg">
<path d="M16.9413 14.1221C16.7292 13.9099 16.6585 13.6978 16.6585 13.415L16.6585 6.3439C16.6585 5.77822 17.0828 5.35395 17.6484 5.35395C18.2141 5.35395 18.6384 5.77822 18.6384 6.3439L18.6384 13.415C18.6384 13.9807 18.2141 14.4049 17.6484 14.4049C17.3656 14.4049 17.1535 14.3342 16.9413 14.1221Z" fill="white"/>
<path d="M9.87455 7.05139C9.66241 6.83925 9.5917 6.62712 9.5917 6.34428C9.5917 5.77859 10.016 5.35433 10.5817 5.35433H17.6527C18.2184 5.35433 18.6427 5.77859 18.6427 6.34428C18.6427 6.90996 18.2184 7.33423 17.6527 7.33423L10.5817 7.33423C10.2988 7.33423 10.0867 7.26352 9.87455 7.05139Z" fill="white"/>
<path d="M5.62762 18.3647C5.20336 17.9405 5.20336 17.3748 5.62762 16.9505L16.9413 5.63679C17.3656 5.21253 17.9313 5.21253 18.3555 5.63679C18.7798 6.06106 18.7798 6.62674 18.3555 7.05101L7.04184 18.3647C6.61757 18.789 6.05189 18.789 5.62762 18.3647Z" fill="white"/>
</svg>
