<svg width="94" height="52" viewBox="0 0 94 52" fill="none" xmlns="http://www.w3.org/2000/svg">
<g clip-path="url(#clip0_3048_2192)">
<path fill-rule="evenodd" clip-rule="evenodd" d="M62.3445 0C59.6167 0 57.4023 2.21431 57.4023 4.93991C57.4023 7.66773 59.6167 9.88205 62.3445 9.88205C65.0723 9.88205 67.2844 7.66773 67.2844 4.93991C67.2844 2.21426 65.0722 0 62.3445 0ZM62.3445 1.73331C64.1146 1.73331 65.5511 3.17199 65.5511 4.93991C65.5511 6.71222 64.1146 8.14873 62.3445 8.14873C60.5722 8.14873 59.1357 6.71228 59.1357 4.93991C59.1357 3.17193 60.5721 1.73331 62.3445 1.73331Z" fill="white"/>
<path d="M62.3445 1.73331C64.1146 1.73331 65.5511 3.17199 65.5511 4.93991C65.5511 6.71222 64.1146 8.14873 62.3445 8.14873C60.5722 8.14873 59.1357 6.71228 59.1357 4.93991C59.1357 3.17193 60.5721 1.73331 62.3445 1.73331Z" fill="white"/>
<path d="M72.2836 37.3421H62.8477V50.2662H72.2836V37.3421Z" fill="#6EB0A4"/>
<path d="M47.7333 40.5206H57.1714V50.266H47.7333V40.5206Z" fill="#6EB0A4"/>
<path d="M56.0509 26.3987L52.8812 36.5689C52.7425 37.0174 52.7945 37.5027 53.0242 37.9122C53.2538 38.3196 53.6438 38.6164 54.0967 38.7291L54.0988 38.7313C54.242 38.7671 54.3856 38.7861 54.5275 38.7894C54.5577 38.7901 54.5878 38.7901 54.6178 38.7894C55.4515 38.7699 56.208 38.212 56.4453 37.3706L59.2251 27.5559L56.0509 26.3987Z" fill="white"/>
<path fill-rule="evenodd" clip-rule="evenodd" d="M51.5292 38.7894H46.8667C46.3878 38.7894 46 39.1773 46 39.6561V51.1326C46 51.6114 46.3878 51.9992 46.8667 51.9992H58.0381C58.5147 51.9992 58.9047 51.6114 58.9047 51.1326V39.6561C58.9047 39.1773 58.5147 38.7894 58.0381 38.7894H57.6957H54.6178C54.5878 38.7901 54.5577 38.7901 54.5275 38.7894H51.5292ZM57.1714 40.5206H47.7333V50.266H57.1714V40.5206Z" fill="#6EB0A4"/>
<path fill-rule="evenodd" clip-rule="evenodd" d="M54.5275 38.7894H51.5292L51.5124 38.7613C51.0509 37.9358 50.9469 36.9564 51.2286 36.053L54.4894 25.586C53.887 25.0032 53.575 24.1538 53.7028 23.2829L54.5695 17.3702L53.8264 17.4937L51.5037 21.4543C51.1159 22.1151 50.481 22.5939 49.7379 22.7824C48.9969 22.9709 48.2104 22.8582 47.5539 22.4639L47.5518 22.4618C46.2756 21.6969 45.8272 20.059 46.5378 18.7525L47.2437 17.4522C47.8152 16.3999 48.4218 15.2829 48.8388 14.5124C49.2612 13.7346 49.9004 13.0932 50.6804 12.6664L54.758 10.4413C55.6702 9.9451 56.734 9.79777 57.7458 10.0339C59.0285 10.333 61.0023 10.7923 62.2091 11.0718C63.0736 11.2733 63.8536 11.7391 64.4386 12.4086L66.8479 15.1624L70.1217 13.8602C71.4606 13.3272 72.9794 13.949 73.5601 15.2642L73.5623 15.2663C74.2101 16.7266 73.5775 18.4361 72.1366 19.1229C71.3283 19.5085 70.3537 19.9744 69.4338 20.4141L68.3862 20.9148C66.7916 21.6753 64.8893 21.3351 63.6564 20.0676L62.2308 18.6008L61.9686 21.6753L65.7191 23.6318C66.9865 24.2926 67.7795 25.6034 67.7795 27.0312V33.9101C67.7795 34.5298 67.617 35.1083 67.331 35.6088L64.345 35.609L61.4657 35.7799C61.1147 35.2426 60.9132 34.6013 60.9132 33.9101V28.1705L60.8569 28.1488L58.1139 37.8426C58.0186 38.185 57.8756 38.5013 57.6957 38.7894H54.6178C55.4515 38.7699 56.208 38.212 56.4453 37.3706L59.2251 27.5559L56.0509 26.3987L52.8812 36.5689C52.7425 37.0174 52.7945 37.5027 53.0242 37.9122C53.2538 38.3196 53.6438 38.6164 54.0967 38.7291L54.0988 38.7313C54.242 38.7671 54.3856 38.7861 54.5275 38.7894Z" fill="white"/>
<path fill-rule="evenodd" clip-rule="evenodd" d="M61.4657 35.7799C61.2534 35.9359 61.1147 36.1894 61.1147 36.4754V51.1329C61.1147 51.6117 61.5025 51.9995 61.9813 51.9995H73.1505C73.6294 51.9995 74.0172 51.6117 74.0172 51.1329V36.4754C74.0172 35.9966 73.6294 35.6088 73.1505 35.6088H67.331L64.345 35.609L61.4657 35.7799ZM62.8477 37.3421H72.2836V50.2662H62.8477V37.3421Z" fill="#6EB0A4"/>
<path fill-rule="evenodd" clip-rule="evenodd" d="M76.2279 26.8666V51.133C76.2279 51.6118 76.6179 51.9997 77.0967 51.9997H88.2659C88.7447 51.9997 89.1325 51.6118 89.1325 51.133V26.8666H93.52C93.8688 26.8666 94.183 26.6586 94.3195 26.338C94.4538 26.0173 94.3845 25.6468 94.1418 25.3977L83.3021 14.2262C83.1396 14.0572 82.9165 13.9619 82.6803 13.9619C82.4463 13.9619 82.221 14.0572 82.0585 14.2262L71.2187 25.3977C70.9782 25.6468 70.9067 26.0173 71.0432 26.338C71.1776 26.6586 71.4917 26.8666 71.8427 26.8666H76.2279Z" fill="white"/>
</g>
<defs>
<clipPath id="clip0_3048_2192">
<rect width="94" height="52" fill="white"/>
</clipPath>
</defs>
</svg>
