<svg width="16" height="16" viewBox="0 0 16 16" fill="none" xmlns="http://www.w3.org/2000/svg">
<path d="M12 1.33203V2.66536M4 1.33203V2.66536" stroke="#0E7B68" stroke-linecap="round" stroke-linejoin="round"/>
<path fill-rule="evenodd" clip-rule="evenodd" d="M14.2785 5.33333C14.1992 4.191 13.9994 3.44669 13.496 2.90243C12.6613 2 11.3177 2 8.63073 2H7.36406C4.67706 2 3.33356 2 2.49881 2.90243C1.99537 3.44668 1.79556 4.191 1.71625 5.33333H14.2785Z" fill="#B5DCD5"/>
<path d="M2.49881 2.90243C1.66406 3.80485 1.66406 5.25729 1.66406 8.16213V8.50453C1.66406 11.4094 1.66406 12.8618 2.49881 13.7643C3.33356 14.6667 4.67706 14.6667 7.36406 14.6667H8.63073C11.3177 14.6667 12.6613 14.6667 13.496 13.7643C14.3307 12.8618 14.3307 11.4094 14.3307 8.50453V8.16213C14.3307 5.25729 14.3307 3.80485 13.496 2.90243M2.49881 2.90243C3.33356 2 4.67706 2 7.36406 2H8.63073C11.3177 2 12.6613 2 13.496 2.90243M2.49881 2.90243C1.99537 3.44668 1.79556 4.191 1.71625 5.33333H14.2785C14.1992 4.191 13.9994 3.44669 13.496 2.90243" stroke="#0E7B68" stroke-linecap="round" stroke-linejoin="round"/>
</svg>
