<svg width="64" height="65" viewBox="0 0 64 65" fill="none" xmlns="http://www.w3.org/2000/svg">
<path opacity="0.4" d="M40.0018 61.1796C39.2818 61.1796 38.6152 60.7796 38.2685 60.1663C37.9218 59.5529 37.9218 58.7796 38.2951 58.1663L41.0951 53.4996C41.6551 52.5396 42.8818 52.2462 43.8418 52.8062C44.8018 53.3662 45.0951 54.593 44.5351 55.553L43.8151 56.753C51.1751 55.0197 56.6951 48.4063 56.6951 40.5129C56.6951 39.4196 57.6018 38.5129 58.6951 38.5129C59.7885 38.5129 60.6951 39.4196 60.6951 40.5129C60.6685 51.8996 51.3885 61.1796 40.0018 61.1796Z" fill="#BF8D2C"/>
<path opacity="0.4" d="M5.33594 26.5136C4.2426 26.5136 3.33594 25.6069 3.33594 24.5136C3.33594 13.1269 12.6159 3.84692 24.0026 3.84692C24.7226 3.84692 25.3893 4.24694 25.7359 4.86027C26.0826 5.4736 26.0826 6.24694 25.7093 6.86027L22.9093 11.5269C22.3493 12.4869 21.1226 12.7803 20.1626 12.2203C19.2026 11.6603 18.9093 10.4335 19.4693 9.47355L20.1893 8.27352C12.8293 10.0069 7.30929 16.6203 7.30929 24.5136C7.33595 25.6069 6.42927 26.5136 5.33594 26.5136Z" fill="#BF8D2C"/>
<path d="M28.4584 37.446L20.0851 32.9393C19.2051 32.4593 18.1384 32.4593 17.2584 32.9393L8.88509 37.446C8.27176 37.766 7.89844 38.4327 7.89844 39.1527C7.89844 39.8727 8.27176 40.5394 8.88509 40.8594L17.2584 45.3661C17.7118 45.6061 18.1918 45.7128 18.6718 45.7128C19.1518 45.7128 19.6318 45.6061 20.0851 45.3661L28.4584 40.8594C29.0717 40.5394 29.4451 39.8727 29.4451 39.1527C29.4451 38.4327 29.0451 37.7927 28.4584 37.446Z" fill="#BF8D2C"/>
<path d="M15.8725 46.9399L8.08582 43.0467C7.49915 42.7533 6.80582 42.7799 6.21916 43.1266C5.65916 43.4733 5.3125 44.0867 5.3125 44.7534V52.1132C5.3125 53.3932 6.0058 54.5399 7.15247 55.0999L14.9392 58.9933C15.2058 59.1266 15.4991 59.2067 15.7925 59.2067C16.1391 59.2067 16.4858 59.1 16.8058 58.9134C17.3658 58.5667 17.7125 57.9532 17.7125 57.2866V49.9267C17.7392 48.6467 17.0191 47.4999 15.8725 46.9399Z" fill="#BF8D2C"/>
<path d="M31.0949 43.1266C30.5349 42.7799 29.8416 42.7533 29.2282 43.0467L21.4415 46.9399C20.2949 47.4999 19.6016 48.6467 19.6016 49.9267V57.2866C19.6016 57.9532 19.9482 58.5667 20.5082 58.9134C20.8282 59.1 21.1749 59.2067 21.5216 59.2067C21.8149 59.2067 22.1082 59.1266 22.3749 58.9933L30.1615 55.0999C31.3082 54.5399 32.0015 53.3932 32.0015 52.1132V44.7534C32.0015 44.0867 31.6549 43.4733 31.0949 43.1266Z" fill="#BF8D2C"/>
<path d="M55.1225 10.7273L46.7491 6.2206C45.8691 5.7406 44.8025 5.7406 43.9225 6.2206L35.5492 10.7273C34.9358 11.0473 34.5625 11.7138 34.5625 12.4338C34.5625 13.1538 34.9358 13.8205 35.5492 14.1405L43.9225 18.6472C44.3758 18.8872 44.8558 18.9939 45.3358 18.9939C45.8158 18.9939 46.2958 18.8872 46.7491 18.6472L55.1225 14.1405C55.7358 13.8205 56.1091 13.1538 56.1091 12.4338C56.1091 11.6871 55.7091 11.0473 55.1225 10.7273Z" fill="#BF8D2C"/>
<path d="M42.5365 20.1939L34.7499 16.3005C34.1632 16.0072 33.4699 16.0339 32.8832 16.3806C32.3232 16.7273 31.9766 17.3405 31.9766 18.0072V25.3672C31.9766 26.6472 32.6699 27.7939 33.8165 28.3539L41.6032 32.2473C41.8699 32.3806 42.1632 32.4605 42.4565 32.4605C42.8032 32.4605 43.1499 32.3539 43.4699 32.1672C44.0299 31.8205 44.3765 31.2072 44.3765 30.5406V23.1806C44.4032 21.9006 43.6832 20.7539 42.5365 20.1939Z" fill="#BF8D2C"/>
<path d="M57.759 16.3806C57.1989 16.0339 56.5056 16.0072 55.8923 16.3005L48.1056 20.1939C46.9589 20.7539 46.2656 21.9006 46.2656 23.1806V30.5406C46.2656 31.2072 46.6123 31.8205 47.1723 32.1672C47.4923 32.3539 47.839 32.4605 48.1856 32.4605C48.479 32.4605 48.7723 32.3806 49.0389 32.2473L56.8256 28.3539C57.9723 27.7939 58.6656 26.6472 58.6656 25.3672V18.0072C58.6656 17.3405 58.3189 16.7273 57.759 16.3806Z" fill="#BF8D2C"/>
</svg>
