<svg width="64" height="65" viewBox="0 0 64 65" fill="none" xmlns="http://www.w3.org/2000/svg">
<path opacity="0.4" d="M43.1209 27.8444H20.8808C17.7342 27.8444 16.6408 25.7377 18.4808 23.1777L29.6009 7.60441C30.9075 5.73774 33.0942 5.73774 34.4009 7.60441L45.5209 23.1777C47.3609 25.7377 46.2676 27.8444 43.1209 27.8444Z" fill="#407F46"/>
<path d="M46.9056 49.0145H17.0923C12.8789 49.0145 11.4389 46.2145 13.9189 42.8011L24.5589 27.8411H39.4389L50.0789 42.8011C52.5589 46.2145 51.1189 49.0145 46.9056 49.0145Z" fill="#407F46"/>
<path d="M34 49.013V59.6797C34 60.773 33.0933 61.6797 32 61.6797C30.9067 61.6797 30 60.773 30 59.6797V49.013H34Z" fill="#407F46"/>
</svg>
