<svg width="94" height="52" viewBox="0 0 94 52" fill="none" xmlns="http://www.w3.org/2000/svg">
<g clip-path="url(#clip0_3048_2134)">
<path d="M68 48C66.241 48 64.4885 47.7885 62.78 47.37C66.233 44.9771 69.0547 41.7831 71.0036 38.0614C72.9524 34.3397 73.9704 30.2011 73.9704 26C73.9704 21.7989 72.9524 17.6604 71.0036 13.9387C69.0547 10.217 66.233 7.02296 62.78 4.63002C65.8025 3.89072 68.9474 3.80097 72.0071 4.36671C75.0669 4.93245 77.9718 6.14081 80.5301 7.91199C83.0883 9.68318 85.2418 11.9769 86.8483 14.6417C88.4548 17.3065 89.4777 20.2818 89.8495 23.3711C90.2213 26.4604 89.9336 29.5934 89.0053 32.5633C88.077 35.5332 86.5293 38.2724 84.4644 40.6C82.3994 42.9277 79.8642 44.7908 77.0261 46.0664C74.188 47.342 71.1116 48.001 68 48Z" fill="#6EB0A4"/>
<path d="M48 48C44.8884 48.001 41.812 47.342 38.9739 46.0664C36.1358 44.7908 33.6006 42.9277 31.5356 40.6C29.4707 38.2724 27.923 35.5332 26.9947 32.5633C26.0664 29.5934 25.7787 26.4604 26.1505 23.3711C26.5223 20.2818 27.5452 17.3065 29.1517 14.6417C30.7582 11.9769 32.9117 9.68318 35.4699 7.91199C38.0282 6.14081 40.9332 4.93245 43.9929 4.36671C47.0526 3.80097 50.1975 3.89072 53.22 4.63002C49.767 7.02296 46.9453 10.217 44.9964 13.9387C43.0476 17.6604 42.0296 21.7989 42.0296 26C42.0296 30.2011 43.0476 34.3397 44.9964 38.0614C46.9453 41.7831 49.767 44.9771 53.22 47.37C51.5115 47.7885 49.759 48 48 48Z" fill="white"/>
<path fill-rule="evenodd" clip-rule="evenodd" d="M45.4922 0.121253C49.7525 -0.291609 54.0489 0.353745 58 2.00002L53.22 4.63002C50.1975 3.89072 47.0526 3.80097 43.9929 4.36671C40.9332 4.93245 38.0282 6.14081 35.4699 7.91199C32.9117 9.68318 30.7582 11.9769 29.1517 14.6417C27.5452 17.3065 26.5223 20.2818 26.1505 23.3711C25.7787 26.4604 26.0664 29.5934 26.9947 32.5633C27.923 35.5332 29.4707 38.2724 31.5356 40.6C33.6006 42.9277 36.1358 44.7908 38.9739 46.0664C41.812 47.342 44.8884 48.001 48 48C49.759 48 51.5115 47.7885 53.22 47.37L58 50C54.0489 51.6463 49.7525 52.2917 45.4922 51.8788C41.2318 51.4659 37.1392 50.0076 33.5778 47.6333C30.0163 45.259 27.0962 42.0422 25.0765 38.2683C23.0568 34.4945 22 30.2804 22 26C22 21.7197 23.0568 17.5056 25.0765 13.7317C27.0962 9.95786 30.0163 6.74101 33.5778 4.36671C37.1392 1.99242 41.2318 0.534114 45.4922 0.121253ZM63.08 10C61.5615 8.57332 59.8518 7.36505 58 6.41002L62.78 4.63002C66.233 7.02296 69.0547 10.217 71.0036 13.9387C72.9524 17.6604 73.9704 21.7989 73.9704 26C73.9704 30.2011 72.9524 34.3397 71.0036 38.0614C69.0547 41.7831 66.233 44.9771 62.78 47.37L58 45.59C59.8518 44.635 61.5615 43.4267 63.08 42H52.92L49.58 38H66.42C67.0516 37.0471 67.6035 36.0437 68.07 35H47.93L46.58 31H69.42C69.6497 30.012 69.8133 29.0098 69.91 28H46.09L46.07 24H69.91C69.8133 22.9903 69.6497 21.9881 69.42 21H46.56L47.91 17H68.07C67.6035 15.9563 67.0516 14.9529 66.42 14H49.56L52.92 10H63.08Z" fill="white"/>
<path fill-rule="evenodd" clip-rule="evenodd" d="M58 50L62.78 47.37L58 45.59C56.1482 44.635 54.4385 43.4267 52.92 42L49.58 38C48.9484 37.0471 48.3965 36.0437 47.93 35L46.58 31C46.3503 30.012 46.1867 29.0098 46.09 28L46.07 24C46.1667 22.9903 46.3303 21.9881 46.56 21L47.91 17C48.3765 15.9563 48.9284 14.9529 49.56 14L52.92 10C54.4385 8.57332 56.1482 7.36505 58 6.41002L62.78 4.63002L58 2.00002L53.22 4.63002C49.767 7.02296 46.9453 10.217 44.9964 13.9387C43.0476 17.6604 42.0296 21.7989 42.0296 26C42.0296 30.2011 43.0476 34.3397 44.9964 38.0614C46.9453 41.7831 49.767 44.9771 53.22 47.37L58 50Z" fill="white"/>
<path d="M58 50C61.5509 51.4795 65.3858 52.1527 69.2282 51.971C73.0707 51.7893 76.8249 50.7572 80.2203 48.9492C83.6157 47.1412 86.5676 44.6022 88.8631 41.5155C91.1587 38.4288 92.7407 34.8711 93.4951 31.099C94.2495 27.327 94.1575 23.4345 93.2258 19.7023C92.294 15.9701 90.5457 12.4912 88.1069 9.51631C85.6681 6.54145 82.5996 4.14482 79.1226 2.49921C75.6456 0.853599 71.8468 2.23851e-05 68 2.23851e-05C64.5669 -0.00449723 61.1673 0.675421 58 2.00002L62.78 4.63002C65.8025 3.89072 68.9474 3.80097 72.0071 4.36671C75.0669 4.93245 77.9718 6.14081 80.5301 7.91199C83.0883 9.68318 85.2418 11.9769 86.8483 14.6417C88.4548 17.3065 89.4777 20.2818 89.8495 23.3711C90.2213 26.4604 89.9336 29.5934 89.0053 32.5633C88.077 35.5332 86.5293 38.2724 84.4644 40.6C82.3994 42.9277 79.8642 44.7908 77.0261 46.0664C74.188 47.342 71.1116 48.001 68 48C66.241 48 64.4885 47.7885 62.78 47.37L58 50Z" fill="#6EB0A4"/>
</g>
<defs>
<clipPath id="clip0_3048_2134">
<rect width="94" height="52" fill="white"/>
</clipPath>
</defs>
</svg>
