<svg width="50" height="51" viewBox="0 0 50 51" fill="none" xmlns="http://www.w3.org/2000/svg">
<path opacity="0.4" d="M35.073 1.01294H14.951C6.2106 1.01294 1 6.22094 1 14.9569V35.0449C1 43.8049 6.2106 49.0129 14.951 49.0129H35.049C43.7893 49.0129 48.9999 43.8049 48.9999 35.0689V14.9569C49.0239 6.22094 43.8133 1.01294 35.073 1.01294Z" fill="#A31C44"/>
<path d="M37.8733 18.1596C37.6867 17.7063 37.3133 17.3329 36.86 17.1463C36.6467 17.0663 36.4067 17.0129 36.1667 17.0129H31.2067C30.1667 17.0129 29.34 17.8396 29.34 18.8796C29.34 19.9196 30.1667 20.7463 31.2067 20.7463H31.6867L26.06 26.3729L23.34 22.3196C23.02 21.8663 22.54 21.5463 21.98 21.4929C21.3933 21.4396 20.8867 21.6263 20.4867 22.0263L12.54 29.9729C11.82 30.6929 11.82 31.8663 12.54 32.6129C12.9133 32.9863 13.3667 33.1463 13.8467 33.1463C14.3267 33.1463 14.8067 32.9596 15.1533 32.6129L21.5 26.2663L24.22 30.3196C24.54 30.7729 25.02 31.0929 25.58 31.1463C26.1667 31.1996 26.6733 31.0129 27.0733 30.6129L34.3267 23.3596V23.8396C34.3267 24.8796 35.1533 25.7063 36.1933 25.7063C37.2333 25.7063 38.06 24.8796 38.06 23.8396V18.8529C38.0067 18.6129 37.98 18.3729 37.8733 18.1596Z" fill="#A31C44"/>
</svg>
