<svg width="50" height="50" viewBox="0 0 50 50" fill="none" xmlns="http://www.w3.org/2000/svg">
<path d="M41.1731 25.0007C40.9194 24.7478 40.6613 24.5023 40.4001 24.2656C37.5299 21.6455 34.2277 19.8723 30.7733 18.9445C30.8439 19.0092 30.9144 19.0753 30.9835 19.1429C32.5146 20.6427 33.4603 22.7143 33.4603 25.0004C33.4603 27.2882 32.5131 29.3599 30.9835 30.8579C30.9144 30.9255 30.8439 30.9917 30.7733 31.0564C34.2274 30.1287 37.5298 28.3555 40.4001 25.7353C40.6613 25.4971 40.918 25.2521 41.1731 25.0007ZM35.5602 19.1417C35.3426 18.9829 35.1234 18.83 34.9043 18.6814C31.7654 16.5642 28.3802 15.5056 25.0001 15.5056C21.6199 15.5056 18.2347 16.5642 15.0958 18.6814C14.8767 18.8299 14.6575 18.9828 14.4399 19.1417C17.7858 17.4979 21.3931 16.6745 25.0001 16.6745C28.6072 16.6745 32.2143 17.4964 35.5602 19.1417ZM14.4395 30.8585C14.6571 31.0173 14.8763 31.1702 15.0955 31.3187C18.2343 33.4359 21.6195 34.4946 24.9997 34.4946C28.3799 34.4946 31.765 33.4359 34.9039 31.3187C35.123 31.1702 35.3422 31.0173 35.5599 30.8585C32.2139 32.5023 28.6066 33.3257 24.9997 33.3257C21.3925 33.3257 17.7855 32.5038 14.4395 30.8585ZM35.7751 17.4464C38.3255 19.1666 40.7197 21.531 42.8379 24.5392C43.051 24.8053 43.0555 25.1832 42.8424 25.4552C40.7213 28.4663 38.3255 30.8335 35.775 32.5536C32.3689 34.8503 28.6868 36 24.9999 36C21.3147 36 17.6309 34.8502 14.2249 32.5536C11.6745 30.8334 9.28033 28.469 7.16214 25.4608C6.94898 25.1947 6.94448 24.8168 7.15764 24.5448C9.2787 21.5337 11.6745 19.1665 14.225 17.4464C17.6311 15.1497 21.3132 14 25.0001 14C28.6853 14 32.3691 15.1498 35.7751 17.4464ZM19.228 18.9445C15.7739 19.8722 12.4715 21.6454 9.60124 24.2656C9.34004 24.5038 9.08333 24.7494 8.82817 25.0008C9.08186 25.2536 9.34004 25.4992 9.60124 25.7359C12.4714 28.356 15.7736 30.1292 19.228 31.057C19.1574 30.9923 19.0869 30.9262 19.0178 30.8585C17.4867 29.3588 16.541 27.2886 16.541 25.001C16.541 22.7134 17.4882 20.6416 19.0178 19.1436C19.0869 19.0759 19.1574 19.0092 19.228 18.9445ZM29.8935 20.2075C28.6416 18.9813 26.9108 18.2226 25 18.2226C23.0892 18.2226 21.3582 18.9813 20.1065 20.2075C18.8545 21.4337 18.08 23.129 18.08 25.0005C18.08 26.8721 18.8545 28.5675 20.1065 29.7936C21.3584 31.0198 23.0892 31.7784 25 31.7784C26.9108 31.7784 28.6417 31.0198 29.8935 29.7936C31.1454 28.5673 31.92 26.8721 31.92 25.0005C31.92 23.129 31.1454 21.4336 29.8935 20.2075Z" fill="#9ADDC0"/>
<path d="M14.4395 30.8585C14.6571 31.0173 14.8763 31.1702 15.0955 31.3187C18.2343 33.4359 21.6195 34.4946 24.9997 34.4946C28.3799 34.4946 31.765 33.4359 34.9039 31.3187C35.123 31.1702 35.3422 31.0173 35.5599 30.8585C32.2139 32.5023 28.6066 33.3257 24.9997 33.3257C21.3925 33.3257 17.7855 32.5038 14.4395 30.8585Z" fill="#9ADDC0"/>
<path d="M41.1731 25.0007C40.9194 24.7478 40.6613 24.5023 40.4001 24.2656C37.5299 21.6455 34.2277 19.8723 30.7733 18.9445C30.8439 19.0092 30.9144 19.0753 30.9835 19.1429C32.5146 20.6427 33.4603 22.7143 33.4603 25.0004C33.4603 27.2882 32.5131 29.3599 30.9835 30.8579C30.9144 30.9255 30.8439 30.9917 30.7733 31.0564C34.2274 30.1287 37.5298 28.3555 40.4001 25.7353C40.6613 25.4971 40.918 25.2521 41.1731 25.0007Z" fill="#9ADDC0"/>
<path d="M29.8935 20.2075C28.6416 18.9813 26.9108 18.2226 25 18.2226C23.0892 18.2226 21.3582 18.9813 20.1065 20.2075C18.8545 21.4337 18.08 23.129 18.08 25.0005C18.08 26.8721 18.8545 28.5675 20.1065 29.7936C21.3584 31.0198 23.0892 31.7784 25 31.7784C26.9108 31.7784 28.6417 31.0198 29.8935 29.7936C31.1454 28.5673 31.92 26.8721 31.92 25.0005C31.92 23.129 31.1454 21.4336 29.8935 20.2075Z" fill="#9ADDC0"/>
<path d="M19.228 18.9445C15.7739 19.8722 12.4715 21.6454 9.60124 24.2656C9.34004 24.5038 9.08333 24.7494 8.82817 25.0008C9.08186 25.2536 9.34004 25.4992 9.60124 25.7359C12.4714 28.356 15.7736 30.1292 19.228 31.057C19.1574 30.9923 19.0869 30.9262 19.0178 30.8585C17.4867 29.3588 16.541 27.2886 16.541 25.001C16.541 22.7134 17.4882 20.6416 19.0178 19.1436C19.0869 19.0759 19.1574 19.0092 19.228 18.9445Z" fill="#9ADDC0"/>
<path d="M35.5602 19.1417C35.3426 18.9829 35.1234 18.83 34.9043 18.6814C31.7654 16.5642 28.3802 15.5056 25.0001 15.5056C21.6199 15.5056 18.2347 16.5642 15.0958 18.6814C14.8767 18.8299 14.6575 18.9828 14.4399 19.1417C17.7858 17.4979 21.3931 16.6745 25.0001 16.6745C28.6072 16.6745 32.2143 17.4964 35.5602 19.1417Z" fill="#9ADDC0"/>
<path d="M25.0002 19.25C26.5872 19.25 28.0237 19.8945 29.064 20.9337C30.1024 21.9729 30.7464 23.4125 30.7464 25.0007C30.7464 26.589 30.1024 28.0267 29.064 29.0677C28.0256 30.107 26.5872 30.7515 25.0002 30.7515C23.4131 30.7515 21.9766 30.107 20.9363 29.0677C19.8979 28.0285 19.2539 26.589 19.2539 25.0007C19.2539 23.4125 19.8979 21.9748 20.9363 20.9337C21.9747 19.8945 23.4131 19.25 25.0002 19.25Z" fill="#1CB977"/>
<path d="M32.6582 38.2669C32.2106 38.524 32.0565 39.0969 32.3133 39.5449L33.7132 41.9723C33.9701 42.4203 34.5425 42.5745 34.9902 42.3175C35.4379 42.0604 35.592 41.4875 35.3351 41.0395L33.9352 38.6121C33.6783 38.1641 33.1059 38.0098 32.6582 38.2669Z" fill="#1CB977"/>
<path d="M17.3495 38.2669C16.9018 38.0081 16.3275 38.1604 16.0688 38.6085L14.669 41.0358C14.4103 41.4839 14.5625 42.0586 15.0102 42.3175C15.4579 42.5764 16.0322 42.424 16.2908 41.976L17.6907 39.5486C17.9494 39.1005 17.7971 38.5258 17.3495 38.2669Z" fill="#1CB977"/>
<path d="M25.0022 40.316C24.483 40.316 24.0629 40.7365 24.0629 41.2561V44.0599C24.0629 44.5795 24.483 45 25.0022 45C25.5214 45 25.9416 44.5795 25.9416 44.0599V41.2561C25.9416 40.7365 25.5214 40.316 25.0022 40.316Z" fill="#1CB977"/>
<path d="M17.3499 11.7331C17.7975 11.4742 17.9498 10.8995 17.6911 10.4514L16.2912 8.02406C16.0325 7.57605 15.4583 7.42365 15.0106 7.68254C14.5629 7.94145 14.4107 8.51617 14.6693 8.96418L16.0692 11.3916C16.3279 11.8396 16.9022 11.992 17.3499 11.7331Z" fill="#1CB977"/>
<path d="M32.6531 11.7331C33.1008 11.9919 33.675 11.8396 33.9337 11.3915L35.3336 8.96416C35.5923 8.51611 35.4401 7.9414 34.9924 7.68253C34.5447 7.42365 33.9704 7.57603 33.7117 8.02405L32.3118 10.4514C32.0532 10.8995 32.2054 11.4742 32.6531 11.7331Z" fill="#1CB977"/>
<path d="M25.0003 9.68395C25.5196 9.68395 25.9397 9.26349 25.9397 8.74385V5.9401C25.9397 5.42047 25.5196 5 25.0003 5C24.4811 5 24.061 5.42046 24.061 5.9401V8.74385C24.061 9.26348 24.4811 9.68395 25.0003 9.68395Z" fill="#1CB977"/>
</svg>
