<svg width="62" height="62" viewBox="0 0 62 62" fill="none" xmlns="http://www.w3.org/2000/svg">
<path opacity="0.4" d="M5.16992 33.2731V28.7265C5.16992 26.0398 7.36576 23.8181 10.0783 23.8181C14.7541 23.8181 16.6658 20.5115 14.3149 16.4556C12.9716 14.1306 13.7724 11.1081 16.1233 9.7648L20.5924 7.2073C22.6333 5.99313 25.2683 6.71646 26.4824 8.7573L26.7666 9.24813C29.0916 13.304 32.9149 13.304 35.2658 9.24813L35.5499 8.7573C36.7641 6.71646 39.3991 5.99313 41.4399 7.2073L45.9091 9.7648C48.2599 11.1081 49.0608 14.1306 47.7174 16.4556C45.3666 20.5115 47.2783 23.8181 51.9541 23.8181C54.6408 23.8181 56.8624 26.014 56.8624 28.7265V33.2731C56.8624 35.9598 54.6666 38.1815 51.9541 38.1815C47.2783 38.1815 45.3666 41.4881 47.7174 45.544C49.0608 47.8948 48.2599 50.8915 45.9091 52.2348L41.4399 54.7923C39.3991 56.0065 36.7641 55.2831 35.5499 53.2423L35.2658 52.7515C32.9408 48.6956 29.1174 48.6956 26.7666 52.7515L26.4824 53.2423C25.2683 55.2831 22.6333 56.0065 20.5924 54.7923L16.1233 52.2348C13.7724 50.8915 12.9716 47.869 14.3149 45.544C16.6658 41.4881 14.7541 38.1815 10.0783 38.1815C7.36576 38.1815 5.16992 35.9598 5.16992 33.2731Z" fill="white"/>
<path d="M31.0033 39.3966C35.6401 39.3966 39.3991 35.6377 39.3991 31.0008C39.3991 26.3639 35.6401 22.605 31.0033 22.605C26.3664 22.605 22.6074 26.3639 22.6074 31.0008C22.6074 35.6377 26.3664 39.3966 31.0033 39.3966Z" fill="white"/>
</svg>
