<svg width="93" height="63" viewBox="0 0 93 63" fill="none" xmlns="http://www.w3.org/2000/svg">
<path fill-rule="evenodd" clip-rule="evenodd" d="M87.2143 44.3822V39.0168H79.5106C78.0983 39.0168 76.9427 37.8543 76.9427 36.4335V28.6835C76.9427 27.2627 78.0983 26.1002 79.5106 26.1002H82.8232L78.4321 18.376C77.5077 16.7744 75.8129 15.7668 73.964 15.7668H69.1184V33.8502L69.239 47.6624C69.9956 47.2196 70.8732 46.9656 71.8069 46.9656C74.6316 46.9656 76.9427 49.2906 76.9427 52.1322H79.5106C83.7734 52.1322 87.2143 48.6706 87.2143 44.3822Z" fill="white" fill-opacity="0.4"/>
<path d="M25.1897 52.1322H66.6711C66.6711 50.2299 67.7068 48.5591 69.239 47.6624L69.1184 33.8502C69.1184 36.6918 66.9279 36.6322 64.1032 36.6322H4.68434L4.64648 44.3822C4.64648 48.6706 8.08744 52.1322 12.3502 52.1322H14.9181C14.9181 49.2906 17.2292 46.9656 20.0539 46.9656C22.8786 46.9656 25.1897 49.2906 25.1897 52.1322Z" fill="white"/>
<path d="M19.9462 58.2982C23.3405 58.2982 26.082 55.5316 26.082 52.1315C26.082 48.7314 23.3405 45.9648 19.9462 45.9648C16.5518 45.9648 13.8104 48.7314 13.8104 52.1315C13.8104 55.5316 16.5518 58.2982 19.9462 58.2982Z" fill="white" stroke="#B91722" stroke-width="2"/>
<path d="M71.7003 58.2982C75.0946 58.2982 77.8361 55.5316 77.8361 52.1315C77.8361 48.7314 75.0946 45.9648 71.7003 45.9648C68.3059 45.9648 65.5645 48.7314 65.5645 52.1315C65.5645 55.5316 68.3059 58.2982 71.7003 58.2982Z" fill="white" stroke="#B91722" stroke-width="2"/>
<path d="M87.1036 35.2186V39.016H79.3999C77.9876 39.016 76.832 37.8535 76.832 36.4327V28.6827C76.832 27.2619 77.9876 26.0994 79.3999 26.0994H82.7125L86.436 32.661C86.8725 33.436 87.1036 34.3144 87.1036 35.2186Z" fill="white"/>
<path d="M66.5632 5.63208L14.9552 5.63227C9.94779 5.63227 5.78784 9.24894 4.88907 14.0281H17.5231C18.5759 14.0281 19.449 14.9064 19.449 15.9656C19.449 17.0248 18.5759 17.9031 17.5231 17.9031H4.68359V21.7781H12.3873C13.4401 21.7781 14.3132 22.6564 14.3132 23.7156C14.3132 24.7748 13.4401 25.6531 12.3873 25.6531H4.68359V29.5281H7.2515C8.30433 29.5281 9.17742 30.4064 9.17742 31.4656C9.17742 32.5248 8.30433 33.4031 7.2515 33.4031H4.68359V36.6323L63.9953 36.6321C66.82 36.6321 69.1311 37.8832 69.1311 35.0416V8.21541C69.1311 6.79458 67.9756 5.63208 66.5632 5.63208Z" fill="white"/>
<path d="M4.89266 14.0273H2.11929C1.06645 14.0273 0.193359 14.9057 0.193359 15.9648C0.193359 17.024 1.06645 17.9023 2.11929 17.9023H4.68719V15.9648C4.68719 15.2932 4.76427 14.6473 4.89266 14.0273Z" fill="white"/>
<path d="M2.11929 21.7773C1.06645 21.7773 0.193359 22.6557 0.193359 23.7148C0.193359 24.774 1.06645 25.6523 2.11929 25.6523H4.68719V21.7773H2.11929Z" fill="white"/>
<path d="M2.11929 29.5273C1.06645 29.5273 0.193359 30.4057 0.193359 31.4648C0.193359 32.524 1.06645 33.4023 2.11929 33.4023H4.68719V29.5273H2.11929Z" fill="white"/>
</svg>
