<svg width="64" height="64" viewBox="0 0 64 64" fill="none" xmlns="http://www.w3.org/2000/svg">
<path d="M49.6672 14.3328C44.945 9.61056 38.6667 7 32 7C25.3333 7 19.055 9.61067 14.3328 14.3328C9.61056 19.0549 7 25.3333 7 32C7 38.6667 9.61067 44.945 14.3328 49.6672C19.0549 54.3894 25.3333 57 32 57C38.6667 57 44.945 54.3893 49.6672 49.6672C54.3894 44.9451 57 38.6667 57 32C57 25.3333 54.3893 19.055 49.6672 14.3328ZM44.5001 20.2767C45.2228 21.0536 45.3899 22.1647 47.2214 21.9433C48.9988 21.722 48.9446 22.8873 48.7774 23.1651C48.5561 23.5536 47.7228 23.7771 46.3339 23.2758C44.945 22.8309 45.0557 23.942 43.7232 23.4429C42.3908 22.9438 43.057 22.3882 42.5014 21.8869C41.9459 21.3878 41.3339 21.8305 40.2228 22.1082C39.1117 22.386 38.9446 21.8869 39.7779 21.0536C40.277 20.5544 40.889 20.2767 41.9437 19.4434C43.0005 18.7771 43.7232 19.4998 44.5001 20.2767ZM32.0001 54.5C19.6107 54.5 9.50011 44.3894 9.50011 32C9.50011 31.1975 9.55244 30.395 9.60476 29.5924C9.60677 29.5616 9.60878 29.5308 9.61079 29.5C9.83214 29.4436 10.0557 29.3893 10.2228 29.3329C10.8348 29.1115 10.9997 29.7778 11.3903 29.8885C11.8352 29.9449 12.5579 29.9449 12.7792 30.8889C13.0006 31.8329 13.669 32.3885 14.6672 32.2213C15.6677 32.0542 15.8348 32.6098 15.0557 34.1093C14.2788 35.5547 14.9993 36.4987 15.5006 37.7205C15.9997 38.9422 17.2237 39.8862 18.5561 40.7196C19.8886 41.4965 19.333 46.2751 19.8886 47.2757C20.4441 48.2761 21.2775 50.2748 21.9437 51.2752C23.2761 53.3303 26.3317 53.441 24.9428 52.3863C23.8317 51.553 23.8317 50.941 23.4432 49.665C23.0548 48.3868 24.3872 47.3863 24.8321 46.8308C25.3313 46.2752 25.7761 44.4415 25.7761 43.4975C25.7761 42.5535 28.109 42.3299 27.8877 41.2752C27.7227 40.2227 28.1112 38.8338 28.6667 38.1112C29.2787 37.3885 29.2223 35.7783 26.7223 35.4441C24.2223 35.1099 24.5565 32.5556 23.6103 32.4992C22.6098 32.4992 22.0543 32.4992 20.6654 31.221C19.2765 29.9427 16.833 29.8885 16.6094 30.4983C16.388 31.1103 16.0538 31.2752 15.5547 31.1103C15.0556 30.9432 14.665 31.9436 14.0552 31.1667C13.4432 30.3898 14.7778 29.7778 14.333 29.3894C13.8338 28.9445 12.6663 29.5565 12.8876 28.8338C13.109 28.1112 12.8312 27.0565 12.3321 27.6663C11.8329 28.2783 10.6654 28.9445 10.3876 27.0543C10.1663 25.1663 13.1654 24.1094 13.9423 24.832C14.7192 25.5547 15.6654 25.9996 15.8303 24.7214C15.9974 23.3889 17.497 23.3325 17.9418 22.6098C18.3867 21.9436 18.6645 21.2774 19.997 20.6654C21.3294 20.0534 22.1627 18.276 22.8854 17.7205C23.6081 17.1649 25.6067 17.6098 25.8303 16.7765C26.0516 15.9431 25.0534 14.8885 24.1636 14.9427C23.2738 14.9991 23.2196 14.22 22.3863 14.5542C21.4965 14.9427 21.9414 16.0538 20.3312 16.388C18.721 16.7222 18.0525 14.7778 19.3307 14.0551C20.609 13.2782 22.3298 13.6103 22.3298 13.2218C22.3298 12.7769 23.2738 11.7765 23.9401 11.6116C24.6063 11.5009 25.2725 11.8894 24.7734 12.3885C24.2743 12.8876 24.4392 13.556 24.4392 13.556C25.5503 14.3894 26.8285 13.0005 27.3276 12.4449C27.8268 11.8894 26.9392 11.668 26.1601 10.8889C25.9387 10.6676 25.9387 10.444 25.993 10.3334C26.8263 10.112 27.6597 9.9449 28.493 9.7778C29.105 9.9449 29.3263 10.5005 28.9379 12.1107C28.9379 12.1671 28.9379 12.1671 28.8814 12.2214C28.6037 13.4996 30.1032 14.3871 31.1037 13.5538C32.4361 12.3863 35.3268 11.9978 35.9366 11.2751C36.2708 10.9409 36.4921 10.4418 36.6592 9.99692C38.6037 10.4418 40.4917 11.108 42.2714 11.9978C40.8261 13.2196 41.1039 14.3871 41.6052 15.2205C42.2172 16.2751 40.5506 16.9978 39.3266 17.2756C38.1048 17.5534 39.3266 18.9987 37.9941 19.22C36.6052 19.3871 36.3274 20.9974 37.1608 22.1085C37.9941 23.2196 34.0488 25.2747 33.9381 27.6076C33.8274 29.9405 34.715 31.6071 36.1603 32.7747C37.6057 33.9423 38.5497 32.3862 40.2163 32.7747C41.883 33.1632 41.3274 34.1071 41.9394 35.2747C42.5514 36.4423 43.3848 37.664 42.8292 39.3307C42.2737 40.9974 42.6079 41.4965 43.3284 42.5534C44.051 43.6645 44.6066 46.108 44.8844 46.9414C44.8844 46.9414 46.8288 46.8307 47.8292 45.6089C48.8297 44.3307 48.5519 43.608 49.2181 43.3303C49.8844 43.0525 50.0515 42.5534 49.8844 41.5529C49.7173 40.5525 51.1061 40.9974 51.551 40.164C51.9959 39.2743 50.2186 37.2191 51.7724 35.5525C53.3284 33.8294 54.1053 33.3303 54.4395 31.9414C54.7173 30.5525 53.0506 31.5529 51.9395 31.3858C51.3275 31.2751 50.7177 27.3863 48.9946 25.1641C48.9382 25.1077 48.9946 25.0535 49.051 25.1077C49.3852 25.2748 50.2186 25.7197 50.8848 26.6073C51.8288 27.8291 51.8852 30.4397 53.6061 29.9406C53.8839 29.8842 54.1617 29.7735 54.383 29.6628C54.4394 30.4397 54.4937 31.2188 54.4937 31.9957C54.5002 44.3896 44.389 54.5 32.0001 54.5Z" fill="#1CB977"/>
<path d="M32.0001 54.5C19.6107 54.5 9.50011 44.3894 9.50011 32C9.50011 31.1975 9.55244 30.395 9.60476 29.5924L9.61079 29.5C9.83214 29.4436 10.0557 29.3893 10.2228 29.3329C10.8348 29.1115 10.9997 29.7778 11.3903 29.8885C11.8352 29.9449 12.5579 29.9449 12.7792 30.8889C13.0006 31.8329 13.669 32.3885 14.6672 32.2213C15.6677 32.0542 15.8348 32.6098 15.0557 34.1093C14.2788 35.5547 14.9993 36.4987 15.5006 37.7205C15.9997 38.9422 17.2237 39.8862 18.5561 40.7196C19.8886 41.4965 19.333 46.2751 19.8886 47.2757C20.4441 48.2761 21.2775 50.2748 21.9437 51.2752C23.2761 53.3303 26.3317 53.441 24.9428 52.3863C23.8317 51.553 23.8317 50.941 23.4432 49.665C23.0548 48.3868 24.3872 47.3863 24.8321 46.8308C25.3313 46.2752 25.7761 44.4415 25.7761 43.4975C25.7761 42.5535 28.109 42.3299 27.8877 41.2752C27.7227 40.2227 28.1112 38.8338 28.6667 38.1112C29.2787 37.3885 29.2223 35.7783 26.7223 35.4441C24.2223 35.1099 24.5565 32.5556 23.6103 32.4992C22.6098 32.4992 22.0543 32.4992 20.6654 31.221C19.2765 29.9427 16.833 29.8885 16.6094 30.4983C16.388 31.1103 16.0538 31.2752 15.5547 31.1103C15.0556 30.9432 14.665 31.9436 14.0552 31.1667C13.4432 30.3898 14.7778 29.7778 14.333 29.3894C13.8338 28.9445 12.6663 29.5565 12.8876 28.8338C13.109 28.1112 12.8312 27.0565 12.3321 27.6663C11.8329 28.2783 10.6654 28.9445 10.3876 27.0543C10.1663 25.1663 13.1654 24.1094 13.9423 24.832C14.7192 25.5547 15.6654 25.9996 15.8303 24.7214C15.9974 23.3889 17.497 23.3325 17.9418 22.6098C18.3867 21.9436 18.6645 21.2774 19.997 20.6654C21.3294 20.0534 22.1627 18.276 22.8854 17.7205C23.6081 17.1649 25.6067 17.6098 25.8303 16.7765C26.0516 15.9431 25.0534 14.8885 24.1636 14.9427C23.2738 14.9991 23.2196 14.22 22.3863 14.5542C21.4965 14.9427 21.9414 16.0538 20.3312 16.388C18.721 16.7222 18.0525 14.7778 19.3307 14.0551C20.609 13.2782 22.3298 13.6103 22.3298 13.2218C22.3298 12.7769 23.2738 11.7765 23.9401 11.6116C24.6063 11.5009 25.2725 11.8894 24.7734 12.3885C24.2743 12.8876 24.4392 13.556 24.4392 13.556C25.5503 14.3894 26.8285 13.0005 27.3276 12.4449C27.8268 11.8894 26.9392 11.668 26.1601 10.8889C25.9387 10.6676 25.9387 10.444 25.993 10.3334C26.8263 10.112 27.6597 9.9449 28.493 9.7778C29.105 9.9449 29.3263 10.5005 28.9379 12.1107C28.9379 12.1671 28.9379 12.1671 28.8814 12.2214C28.6037 13.4996 30.1032 14.3871 31.1037 13.5538C32.4361 12.3863 35.3268 11.9978 35.9366 11.2751C36.2708 10.9409 36.4921 10.4418 36.6592 9.99692C38.6037 10.4418 40.4917 11.108 42.2714 11.9978C40.8261 13.2196 41.1039 14.3871 41.6052 15.2205C42.2172 16.2751 40.5506 16.9978 39.3266 17.2756C38.1048 17.5534 39.3266 18.9987 37.9941 19.22C36.6052 19.3871 36.3274 20.9974 37.1608 22.1085C37.9941 23.2196 34.0488 25.2747 33.9381 27.6076C33.8274 29.9405 34.715 31.6071 36.1603 32.7747C37.6057 33.9423 38.5497 32.3862 40.2163 32.7747C41.883 33.1632 41.3274 34.1071 41.9394 35.2747C42.5514 36.4423 43.3848 37.664 42.8292 39.3307C42.2737 40.9974 42.6079 41.4965 43.3284 42.5534C44.051 43.6645 44.6066 46.108 44.8844 46.9414C44.8844 46.9414 46.8288 46.8307 47.8292 45.6089C48.8297 44.3307 48.5519 43.608 49.2181 43.3303C49.8844 43.0525 50.0515 42.5534 49.8844 41.5529C49.7173 40.5525 51.1061 40.9974 51.551 40.164C51.9959 39.2743 50.2186 37.2191 51.7724 35.5525C53.3284 33.8294 54.1053 33.3303 54.4395 31.9414C54.7173 30.5525 53.0506 31.5529 51.9395 31.3858C51.3275 31.2751 50.7177 27.3863 48.9946 25.1641C48.9382 25.1077 48.9946 25.0535 49.051 25.1077C49.3852 25.2748 50.2186 25.7197 50.8848 26.6073C51.8288 27.8291 51.8852 30.4397 53.6061 29.9406C53.8839 29.8842 54.1617 29.7735 54.383 29.6628C54.4394 30.4397 54.4937 31.2188 54.4937 31.9957C54.5002 44.3896 44.389 54.5 32.0001 54.5Z" fill="#1CB977" fill-opacity="0.4"/>
<path d="M44.5001 20.2767C45.2228 21.0536 45.3899 22.1647 47.2214 21.9433C48.9988 21.722 48.9446 22.8873 48.7774 23.1651C48.5561 23.5536 47.7228 23.7771 46.3339 23.2758C44.945 22.8309 45.0557 23.942 43.7232 23.4429C42.3908 22.9438 43.057 22.3882 42.5014 21.8869C41.9459 21.3878 41.3339 21.8305 40.2228 22.1082C39.1117 22.386 38.9446 21.8869 39.7779 21.0536C40.277 20.5544 40.889 20.2767 41.9437 19.4434C43.0005 18.7771 43.7232 19.4998 44.5001 20.2767Z" fill="#1CB977" fill-opacity="0.4"/>
</svg>
