<svg width="50" height="50" viewBox="0 0 50 50" fill="none" xmlns="http://www.w3.org/2000/svg">
<path d="M42.6672 7.33278C37.945 2.61056 31.6667 0 25 0C18.3333 0 12.055 2.61067 7.33278 7.33278C2.61056 12.0549 0 18.3333 0 25C0 31.6667 2.61067 37.945 7.33278 42.6672C12.0549 47.3894 18.3333 50 25 50C31.6667 50 37.945 47.3893 42.6672 42.6672C47.3894 37.9451 50 31.6667 50 25C50 18.3333 47.3893 12.055 42.6672 7.33278ZM37.5001 13.2767C38.2228 14.0536 38.3899 15.1647 40.2214 14.9433C41.9988 14.722 41.9446 15.8873 41.7774 16.1651C41.5561 16.5536 40.7228 16.7771 39.3339 16.2758C37.945 15.8309 38.0557 16.942 36.7232 16.4429C35.3908 15.9438 36.057 15.3882 35.5014 14.8869C34.9459 14.3878 34.3339 14.8305 33.2228 15.1082C32.1117 15.386 31.9446 14.8869 32.7779 14.0536C33.277 13.5544 33.889 13.2767 34.9437 12.4434C36.0005 11.7771 36.7232 12.4998 37.5001 13.2767ZM25.0001 47.5C12.6107 47.5 2.50011 37.3894 2.50011 25C2.50011 24.1975 2.55244 23.395 2.60476 22.5924C2.60677 22.5616 2.60878 22.5308 2.61079 22.5C2.83214 22.4436 3.05567 22.3893 3.22279 22.3329C3.83479 22.1115 3.99968 22.7778 4.39034 22.8885C4.83522 22.9449 5.5579 22.9449 5.77923 23.8889C6.00059 24.8329 6.66901 25.3885 7.66723 25.2213C8.66768 25.0542 8.83479 25.6098 8.05569 27.1093C7.2788 28.5547 7.99927 29.4987 8.50057 30.7205C8.9997 31.9422 10.2237 32.8862 11.5561 33.7196C12.8886 34.4965 12.333 39.2751 12.8886 40.2757C13.4441 41.2761 14.2775 43.2748 14.9437 44.2752C16.2761 46.3303 19.3317 46.441 17.9428 45.3863C16.8317 44.553 16.8317 43.941 16.4432 42.665C16.0548 41.3868 17.3872 40.3863 17.8321 39.8308C18.3313 39.2752 18.7761 37.4415 18.7761 36.4975C18.7761 35.5535 21.109 35.3299 20.8877 34.2752C20.7227 33.2227 21.1112 31.8338 21.6667 31.1112C22.2787 30.3885 22.2223 28.7783 19.7223 28.4441C17.2223 28.1099 17.5565 25.5556 16.6103 25.4992C15.6098 25.4992 15.0543 25.4992 13.6654 24.221C12.2765 22.9427 9.83296 22.8885 9.6094 23.4983C9.38805 24.1103 9.05384 24.2752 8.55473 24.1103C8.0556 23.9432 7.66496 24.9436 7.05518 24.1667C6.44318 23.3898 7.77784 22.7778 7.33296 22.3894C6.83382 21.9445 5.66629 22.5565 5.88762 21.8338C6.10898 21.1112 5.8312 20.0565 5.33207 20.6663C4.83293 21.2783 3.6654 21.9445 3.38762 20.0543C3.16627 18.1663 6.1654 17.1094 6.94229 17.832C7.71918 18.5547 8.6654 18.9996 8.83029 17.7214C8.99739 16.3889 10.497 16.3325 10.9418 15.6098C11.3867 14.9436 11.6645 14.2774 12.997 13.6654C14.3294 13.0534 15.1627 11.276 15.8854 10.7205C16.6081 10.1649 18.6067 10.6098 18.8303 9.77648C19.0516 8.94314 18.0534 7.88848 17.1636 7.9427C16.2738 7.99912 16.2196 7.22003 15.3863 7.55424C14.4965 7.9427 14.9414 9.0538 13.3312 9.38802C11.721 9.72222 11.0525 7.7778 12.3307 7.05513C13.609 6.27824 15.3298 6.61026 15.3298 6.2218C15.3298 5.77692 16.2738 4.77647 16.9401 4.61158C17.6063 4.5009 18.2725 4.88936 17.7734 5.38847C17.2743 5.8876 17.4392 6.55602 17.4392 6.55602C18.5503 7.38936 19.8285 6.00047 20.3276 5.44491C20.8268 4.88936 19.9392 4.66802 19.1601 3.88891C18.9387 3.66756 18.9387 3.44403 18.993 3.33336C19.8263 3.112 20.6597 2.9449 21.493 2.7778C22.105 2.9449 22.3263 3.50047 21.9379 5.11069C21.9379 5.16711 21.9379 5.16711 21.8814 5.22137C21.6037 6.49959 23.1032 7.38714 24.1037 6.55381C25.4361 5.38626 28.3268 4.99781 28.9366 4.27514C29.2708 3.94094 29.4921 3.44181 29.6592 2.99692C31.6037 3.4418 33.4917 4.10803 35.2714 4.99781C33.8261 6.21959 34.1039 7.38714 34.6052 8.22048C35.2172 9.27514 33.5506 9.99781 32.3266 10.2756C31.1048 10.5534 32.3266 11.9987 30.9941 12.22C29.6052 12.3871 29.3274 13.9974 30.1608 15.1085C30.9941 16.2196 27.0488 18.2747 26.9381 20.6076C26.8274 22.9405 27.715 24.6071 29.1603 25.7747C30.6057 26.9423 31.5497 25.3862 33.2163 25.7747C34.883 26.1632 34.3274 27.1071 34.9394 28.2747C35.5514 29.4423 36.3848 30.664 35.8292 32.3307C35.2737 33.9974 35.6079 34.4965 36.3284 35.5534C37.051 36.6645 37.6066 39.108 37.8844 39.9414C37.8844 39.9414 39.8288 39.8307 40.8292 38.6089C41.8297 37.3307 41.5519 36.608 42.2181 36.3303C42.8844 36.0525 43.0515 35.5534 42.8844 34.5529C42.7173 33.5525 44.1061 33.9974 44.551 33.164C44.9959 32.2743 43.2186 30.2191 44.7724 28.5525C46.3284 26.8294 47.1053 26.3303 47.4395 24.9414C47.7173 23.5525 46.0506 24.5529 44.9395 24.3858C44.3275 24.2751 43.7177 20.3863 41.9946 18.1641C41.9382 18.1077 41.9946 18.0535 42.051 18.1077C42.3852 18.2748 43.2186 18.7197 43.8848 19.6073C44.8288 20.8291 44.8852 23.4397 46.6061 22.9406C46.8839 22.8842 47.1617 22.7735 47.383 22.6628C47.4394 23.4397 47.4937 24.2188 47.4937 24.9957C47.5002 37.3896 37.389 47.5 25.0001 47.5Z" fill="white"/>
<path d="M25.0001 47.5C12.6107 47.5 2.50011 37.3894 2.50011 25C2.50011 24.1975 2.55244 23.395 2.60476 22.5924L2.61079 22.5C2.83214 22.4436 3.05567 22.3893 3.22279 22.3329C3.83479 22.1115 3.99968 22.7778 4.39034 22.8885C4.83522 22.9449 5.5579 22.9449 5.77923 23.8889C6.00059 24.8329 6.66901 25.3885 7.66723 25.2213C8.66768 25.0542 8.83479 25.6098 8.05569 27.1093C7.2788 28.5547 7.99927 29.4987 8.50057 30.7205C8.9997 31.9422 10.2237 32.8862 11.5561 33.7196C12.8886 34.4965 12.333 39.2751 12.8886 40.2757C13.4441 41.2761 14.2775 43.2748 14.9437 44.2752C16.2761 46.3303 19.3317 46.441 17.9428 45.3863C16.8317 44.553 16.8317 43.941 16.4432 42.665C16.0548 41.3868 17.3872 40.3863 17.8321 39.8308C18.3313 39.2752 18.7761 37.4415 18.7761 36.4975C18.7761 35.5535 21.109 35.3299 20.8877 34.2752C20.7227 33.2227 21.1112 31.8338 21.6667 31.1112C22.2787 30.3885 22.2223 28.7783 19.7223 28.4441C17.2223 28.1099 17.5565 25.5556 16.6103 25.4992C15.6098 25.4992 15.0543 25.4992 13.6654 24.221C12.2765 22.9427 9.83296 22.8885 9.6094 23.4983C9.38805 24.1103 9.05384 24.2752 8.55473 24.1103C8.0556 23.9432 7.66496 24.9436 7.05518 24.1667C6.44318 23.3898 7.77784 22.7778 7.33296 22.3894C6.83382 21.9445 5.66629 22.5565 5.88762 21.8338C6.10898 21.1112 5.8312 20.0565 5.33207 20.6663C4.83293 21.2783 3.6654 21.9445 3.38762 20.0543C3.16627 18.1663 6.1654 17.1094 6.94229 17.832C7.71918 18.5547 8.6654 18.9996 8.83029 17.7214C8.99739 16.3889 10.497 16.3325 10.9418 15.6098C11.3867 14.9436 11.6645 14.2774 12.997 13.6654C14.3294 13.0534 15.1627 11.276 15.8854 10.7205C16.6081 10.1649 18.6067 10.6098 18.8303 9.77648C19.0516 8.94314 18.0534 7.88848 17.1636 7.9427C16.2738 7.99912 16.2196 7.22003 15.3863 7.55424C14.4965 7.9427 14.9414 9.0538 13.3312 9.38802C11.721 9.72222 11.0525 7.7778 12.3307 7.05513C13.609 6.27824 15.3298 6.61026 15.3298 6.2218C15.3298 5.77692 16.2738 4.77647 16.9401 4.61158C17.6063 4.5009 18.2725 4.88936 17.7734 5.38847C17.2743 5.8876 17.4392 6.55602 17.4392 6.55602C18.5503 7.38936 19.8285 6.00047 20.3276 5.44491C20.8268 4.88936 19.9392 4.66802 19.1601 3.88891C18.9387 3.66756 18.9387 3.44403 18.993 3.33336C19.8263 3.112 20.6597 2.9449 21.493 2.7778C22.105 2.9449 22.3263 3.50047 21.9379 5.11069C21.9379 5.16711 21.9379 5.16711 21.8814 5.22137C21.6037 6.49959 23.1032 7.38714 24.1037 6.55381C25.4361 5.38626 28.3268 4.99781 28.9366 4.27514C29.2708 3.94094 29.4921 3.44181 29.6592 2.99692C31.6037 3.4418 33.4917 4.10803 35.2714 4.99781C33.8261 6.21959 34.1039 7.38714 34.6052 8.22048C35.2172 9.27514 33.5506 9.99781 32.3266 10.2756C31.1048 10.5534 32.3266 11.9987 30.9941 12.22C29.6052 12.3871 29.3274 13.9974 30.1608 15.1085C30.9941 16.2196 27.0488 18.2747 26.9381 20.6076C26.8274 22.9405 27.715 24.6071 29.1603 25.7747C30.6057 26.9423 31.5497 25.3862 33.2163 25.7747C34.883 26.1632 34.3274 27.1071 34.9394 28.2747C35.5514 29.4423 36.3848 30.664 35.8292 32.3307C35.2737 33.9974 35.6079 34.4965 36.3284 35.5534C37.051 36.6645 37.6066 39.108 37.8844 39.9414C37.8844 39.9414 39.8288 39.8307 40.8292 38.6089C41.8297 37.3307 41.5519 36.608 42.2181 36.3303C42.8844 36.0525 43.0515 35.5534 42.8844 34.5529C42.7173 33.5525 44.1061 33.9974 44.551 33.164C44.9959 32.2743 43.2186 30.2191 44.7724 28.5525C46.3284 26.8294 47.1053 26.3303 47.4395 24.9414C47.7173 23.5525 46.0506 24.5529 44.9395 24.3858C44.3275 24.2751 43.7177 20.3863 41.9946 18.1641C41.9382 18.1077 41.9946 18.0535 42.051 18.1077C42.3852 18.2748 43.2186 18.7197 43.8848 19.6073C44.8288 20.8291 44.8852 23.4397 46.6061 22.9406C46.8839 22.8842 47.1617 22.7735 47.383 22.6628C47.4394 23.4397 47.4937 24.2188 47.4937 24.9957C47.5002 37.3896 37.389 47.5 25.0001 47.5Z" fill="white" fill-opacity="0.4"/>
<path d="M37.5001 13.2767C38.2228 14.0536 38.3899 15.1647 40.2214 14.9433C41.9988 14.722 41.9446 15.8873 41.7774 16.1651C41.5561 16.5536 40.7228 16.7771 39.3339 16.2758C37.945 15.8309 38.0557 16.942 36.7232 16.4429C35.3908 15.9438 36.057 15.3882 35.5014 14.8869C34.9459 14.3878 34.3339 14.8305 33.2228 15.1082C32.1117 15.386 31.9446 14.8869 32.7779 14.0536C33.277 13.5544 33.889 13.2767 34.9437 12.4434C36.0005 11.7771 36.7232 12.4998 37.5001 13.2767Z" fill="white" fill-opacity="0.4"/>
</svg>
