<svg width="76" height="76" viewBox="0 0 76 76" fill="none" xmlns="http://www.w3.org/2000/svg">
<path fill-rule="evenodd" clip-rule="evenodd" d="M34.1688 0.182786C54.968 -1.85432 73.4923 13.3698 75.5217 34.1686C77.5509 54.9683 62.3271 73.4924 41.5283 75.5289C20.7289 77.5512 2.20466 62.3274 0.18275 41.5279C-1.85414 20.7289 13.3699 2.20457 34.1688 0.182786Z" fill="url(#paint0_linear_5483_1163)"/>
<path d="M40.2713 13.3901C40.7695 13.258 41.2091 13.0818 41.4289 12.6571C41.4582 12.5397 41.4878 12.4226 41.517 12.3054C41.3411 12.0855 41.1578 11.8802 40.9748 11.6749C41.0994 11.1475 41.1654 10.7665 41.2386 10.2238C42.4915 9.85781 42.2498 10.2533 43.2757 10.4584C43.3491 10.8542 43.3784 11.0745 43.6421 11.2646C43.9207 11.3819 44.1844 11.4994 44.4631 11.6165C44.8439 11.309 45.2249 10.9862 45.8038 10.8837C46.2949 11.4845 46.7785 12.0855 47.2621 12.6718C48.2151 13.3752 49.5189 13.258 50.0683 14.3718C49.9147 14.9284 50.0173 15.4122 50.2591 15.808C51.0289 15.896 51.2487 15.896 51.5267 16.5114C51.4388 16.6286 51.3507 16.7608 51.2634 16.8781C50.5373 16.8927 49.4165 17.01 48.9183 16.6286C49.1819 16.1008 49.6218 15.5004 49.5336 14.9137C49.4458 14.8847 49.3433 14.8553 49.2548 14.8265C48.8743 15.0462 48.4784 15.2512 48.0902 15.471C47.0714 15.4416 46.0456 15.4268 45.0342 15.3974C44.624 15.5441 44.2869 15.9254 43.7739 16.1304C43.7739 16.2477 43.7739 16.3795 43.7739 16.4968C43.8616 16.4968 43.9572 16.4968 44.0525 16.4968C44.6387 16.1892 45.3569 15.8665 46.0309 16.1155C45.8258 16.8927 45.7596 17.01 46.2213 17.6545C47.1156 17.9768 47.4379 17.7133 48.2881 17.5372C48.2881 17.5666 48.2952 17.596 48.2952 17.6256C48.1121 17.8454 47.9365 18.0504 47.7601 18.2701C47.0347 18.4605 46.3973 18.7389 45.87 19.091C45.5397 19.003 45.6062 19.0177 45.4153 18.827C45.503 18.7099 45.5913 18.5784 45.6865 18.4605C45.8111 18.3728 45.9283 18.285 46.0456 18.1825C46.0456 18.153 46.0456 18.1236 46.0456 18.0945C45.9867 18.0652 45.9283 18.0357 45.8622 18.0066C44.9612 18.3439 42.7774 20.1167 42.4548 20.3807C40.7403 21.348 41.1943 21.1284 40.0514 22.5648C39.8901 22.447 39.5971 23.4733 39.6922 23.8247C38.8788 24.9971 37.6111 25.2758 37.2961 26.7122C36.9736 28.1337 38.1167 29.0572 37.8676 30.3904C37.7798 30.4493 37.6843 30.5228 37.5891 30.5811C37.3841 30.3904 37.1714 30.2148 36.9589 30.039C36.7684 29.1448 36.5192 28.0899 36.0355 27.4451C34.7752 27.4155 33.0312 26.3308 31.8293 26.8441C31.5949 27.0342 30.8944 26.5079 30.7845 26.8011C29.1872 26.6545 29.1328 27.2836 28.2093 28.7638C27.9749 29.1158 27.7257 29.3504 27.8724 29.863C27.2054 32.457 27.4325 32.2227 29.3525 33.7762C30.1 33.7173 31.0234 33.4682 31.5071 33.1313C31.6316 32.604 31.7854 31.9882 32.0346 31.5923C32.5109 31.4608 33.185 31.3284 33.7422 31.4896C33.6467 32.75 32.9579 34.084 32.6648 35.3884C32.6942 35.4178 32.7234 35.4473 32.7526 35.476C33.6028 35.476 34.4382 35.4618 35.2737 35.4618C35.5226 35.7253 35.7571 35.9893 36.0062 36.2675C35.6255 38.2902 34.885 37.4252 36.1161 38.5833C37.0762 38.554 37.1496 39.3599 37.9995 39.2428C38.4977 39.6092 38.3658 39.9317 39.1207 39.9317C39.5971 39.8732 40.1245 40.2249 40.6154 40.21C41.1067 40.0193 41.6343 39.5503 42.323 39.8438C43.5248 40.6646 44.5361 40.5472 46.0161 40.2538C46.339 40.7523 46.544 40.7817 47.196 40.9572C47.2254 41.2065 47.2621 41.4409 47.291 41.6903C48.7276 41.7933 48.0094 43.0388 48.9251 43.5662C49.4087 43.5662 49.2259 44.0939 49.7093 44.0939C51.1896 44.2254 51.8638 45.3839 51.9957 46.8491C52.0541 47.5821 52.2886 48.3734 53.3736 48.5788C53.4099 48.7545 53.4395 48.93 53.4756 49.1063C55.176 48.681 54.6193 49.4139 55.6452 49.9856C56.3044 50.0147 57.5946 52.3014 58.2541 52.3306C58.5468 52.3892 58.6494 54.9982 57.8581 55.9359C57.0814 56.8445 56.7808 58.295 56.0846 59.248C54.8539 60.9483 54.0331 61.3877 52.4135 62.5603C51.124 63.4836 51.4317 64.4066 50.3839 65.11C48.9473 66.0483 48.4784 68.1879 47.8626 69.8152L47.0567 70.3281L46.1333 69.8294C45.7522 67.8365 44.9318 68.7307 43.9206 65.3158C44.0081 64.7879 41.8027 60.9334 41.5534 60.2889C41.1725 59.3361 40.3736 58.2662 39.5823 57.7095C39.0398 57.3136 36.4165 53.0049 36.314 52.2718C36.5924 51.9497 35.2589 49.458 35.376 48.9891C33.6466 47.7429 35.6566 44.6236 35.9351 43.6275C36.3454 42.1473 36.021 40.7523 35.0682 40.2538C33.9032 39.756 32.5179 40.1518 31.0744 39.2139C29.3084 39.58 28.8395 36.3704 27.7109 35.7401C25.8864 36.8099 23.2554 34.5527 22.1858 33.3515C22.479 30.801 20.7202 29.4382 19.8847 27.5035C19.6208 26.8877 19.0788 25.0853 18.7709 24.5868C18.7417 24.5868 18.7123 24.5868 18.6829 24.5868C18.5364 24.6165 18.3827 24.6457 18.2287 24.6895C18.214 25.613 20.0852 30.4399 19.9974 30.4108C19.7555 30.1032 18.7769 27.6015 18.151 27.7869C18.5908 25.1786 17.0708 23.7513 17.4885 20.9524C17.6718 19.7651 18.3312 15.8081 19.0788 14.8407C19.2253 14.4596 19.3571 14.123 19.4597 13.8296L19.4232 12.7013C19.5182 12.2031 19.7822 10.576 20.1487 10.2097C21.0277 9.35957 22.3617 9.09566 23.3948 8.3338C23.7687 7.8646 24.1425 7.41004 24.5234 6.95561C25.0215 6.54554 25.4832 6.29627 25.923 5.85674C25.4832 5.46089 24.7212 5.60764 24.3401 5.10914C24.3839 4.75749 24.4426 4.74322 24.7065 4.58187C25.0143 4.68422 25.3367 4.75749 25.6738 4.61082C25.7691 3.86357 26.8023 3.20389 27.5058 2.99873C27.887 3.04275 28.2753 3.08698 28.6635 3.11585C29.4768 1.87053 30.8987 2.67623 32.0784 1.76788C32.7158 1.67997 32.8992 1.79662 33.2508 2.00255C33.3094 2.64698 33.1558 2.82315 33.141 3.35064C33.8078 4.43508 35.4418 4.43508 36.0061 5.53416C37.0761 6.20857 39.532 5.65984 40.0659 7.10245C40.5997 8.54506 39.6995 7.89359 39.4356 8.08441C39.2012 8.74387 38.4098 9.30048 37.9993 9.97528C37.8161 10.2534 39.2453 13.9322 39.5235 14.4159V15.2513C39.5237 15.2512 40.0808 13.8 40.2713 13.3901ZM48.6693 3.27725C48.0903 3.90717 47.7166 4.09828 47.4527 5.02145C47.7463 6.45767 49.3064 6.63329 50.091 7.48357C50.384 7.98198 50.6766 8.49507 50.9701 9.00766C51.0506 9.63792 51.1309 10.2828 51.2192 10.913C51.5342 11.5873 52.2888 12.1145 52.8756 12.4956C53.366 12.8179 53.4469 13.2286 54.2677 13.1991C55.7332 12.4077 55.1468 10.3417 54.9711 8.68529C54.9418 8.15755 54.9123 7.64445 54.8829 7.13174C54.7367 6.77995 54.3848 6.92658 54.1794 6.70638C53.8646 6.17911 53.5494 5.65175 53.2415 5.12375C52.3916 4.25946 50.1782 3.15995 48.6693 3.27725ZM41.0919 4.01011C40.9526 4.03957 40.8135 4.06864 40.6815 4.11266C39.6337 5.28523 41.048 5.72493 41.854 6.22317C42.1546 6.4136 42.2498 6.7358 42.6308 6.86795C42.748 6.98507 42.8506 7.08805 42.9678 7.1901C42.6015 7.1901 42.2423 7.1901 41.8833 7.1901C41.7663 7.35154 41.6344 7.52758 41.5094 7.70324C41.5903 7.89351 41.6634 8.08437 41.7515 8.27497C42.543 8.42146 43.3418 8.56817 44.1403 8.71497C44.5068 8.8317 44.712 9.09558 45.1516 9.21295C45.4595 9.03729 45.5913 8.97829 45.562 8.50934C45.3275 8.30422 45.0857 8.09918 44.844 7.90849C44.9319 7.51303 45.2833 7.27836 45.0857 6.69216C44.8289 5.91553 41.9273 4.03957 41.0919 4.01011ZM35.2003 30.5959C35.1417 30.6688 35.0902 30.7278 35.0392 30.7862C35.1638 31.4314 38.3365 33.3219 39.084 33.4099C39.1208 33.3951 39.1573 33.3657 39.2014 33.3366C39.8022 32.0611 36.4463 30.5376 35.2003 30.5959Z" fill="#8B5E3C"/>
<defs>
<linearGradient id="paint0_linear_5483_1163" x1="4.96449" y1="49.3627" x2="77.6444" y2="23.9242" gradientUnits="userSpaceOnUse">
<stop stop-color="#020031"/>
<stop offset="0.8242" stop-color="#1C75BC"/>
</linearGradient>
</defs>
</svg>
