<svg width="50" height="51" viewBox="0 0 50 51" fill="none" xmlns="http://www.w3.org/2000/svg">
<path opacity="0.4" d="M36.5209 16.2039C36.3751 16.1831 36.2292 16.1831 36.0834 16.2039C32.8542 16.0998 30.2917 13.4539 30.2917 10.2039C30.2917 6.89144 32.9792 4.18311 36.3126 4.18311C39.6251 4.18311 42.3334 6.8706 42.3334 10.2039C42.3126 13.4539 39.7501 16.0998 36.5209 16.2039Z" fill="#EF402D"/>
<path opacity="0.4" d="M43.3056 30.6419C40.9723 32.2044 37.7014 32.7878 34.6806 32.3919C35.4723 30.6836 35.8889 28.7878 35.9098 26.7878C35.9098 24.7045 35.4514 22.7253 34.5764 20.9961C37.6597 20.5795 40.9306 21.1628 43.2847 22.7253C46.5764 24.8919 46.5764 28.4544 43.3056 30.6419Z" fill="#EF402D"/>
<path opacity="0.4" d="M13.4236 16.2039C13.5694 16.1831 13.7153 16.1831 13.8611 16.2039C17.0903 16.0998 19.6527 13.4539 19.6527 10.2039C19.6527 6.89144 16.9652 4.18311 13.6319 4.18311C10.3194 4.18311 7.61108 6.8706 7.61108 10.2039C7.63192 13.4539 10.1944 16.0998 13.4236 16.2039Z" fill="#EF402D"/>
<path opacity="0.4" d="M13.6461 26.7882C13.6461 28.809 14.0836 30.7257 14.8752 32.4549C11.9377 32.7674 8.87524 32.1424 6.62524 30.6632C3.33358 28.4757 3.33358 24.9132 6.62524 22.7257C8.85441 21.2257 12.0002 20.6215 14.9586 20.9548C14.1044 22.7048 13.6461 24.684 13.6461 26.7882Z" fill="#EF402D"/>
<path d="M25.2476 33.0754C25.0809 33.0546 24.8934 33.0546 24.7059 33.0754C20.8726 32.9504 17.8101 29.8046 17.8101 25.9296C17.8101 21.9713 20.9976 18.7629 24.9767 18.7629C28.9351 18.7629 32.1434 21.9713 32.1434 25.9296C32.1434 29.8046 29.1017 32.9504 25.2476 33.0754Z" fill="#EF402D"/>
<path d="M18.491 37.3857C15.3451 39.4899 15.3451 42.9482 18.491 45.0316C22.0743 47.4274 27.9493 47.4274 31.5326 45.0316C34.6785 42.9274 34.6785 39.4691 31.5326 37.3857C27.9701 34.9899 22.0951 34.9899 18.491 37.3857Z" fill="#EF402D"/>
</svg>
