<svg width="64" height="64" viewBox="0 0 64 64" fill="none" xmlns="http://www.w3.org/2000/svg">
<path d="M31.9671 15.2695C24.7339 15.2695 18.8438 21.1364 18.8438 28.37C18.8438 32.997 21.27 37.2742 25.2448 39.6485V45.0914C25.2448 45.553 25.6154 45.9443 26.0978 45.9443H37.8357C38.3119 45.9443 38.6887 45.553 38.6887 45.0914L38.6928 39.6485C42.6469 37.2739 45.0939 32.9967 45.0939 28.37C45.0897 21.1369 39.2063 15.2695 31.9663 15.2695H31.9671ZM36.9708 28.281L31.7559 34.7732C31.5965 34.9699 31.3646 35.092 31.1142 35.092H31.0769C30.8492 35.092 30.6318 35.001 30.4724 34.8436L26.9965 31.1918C26.6777 30.8522 26.6942 30.3223 27.0338 29.989C27.3733 29.6702 27.9032 29.6867 28.22 30.0262L31.0231 32.968L35.6501 27.2231C35.9358 26.867 36.4658 26.7987 36.8363 27.0968C37.2193 27.397 37.273 27.927 36.9708 28.281Z" fill="white"/>
<path d="M36.9708 28.281L31.7559 34.7732C31.5965 34.9699 31.3646 35.092 31.1142 35.092H31.0769C30.8492 35.092 30.6318 35.001 30.4724 34.8436L26.9965 31.1918C26.6777 30.8522 26.6942 30.3223 27.0338 29.989C27.3733 29.6702 27.9032 29.6867 28.22 30.0262L31.0231 32.968L35.6501 27.2231C35.9358 26.867 36.4658 26.7987 36.8363 27.0968C37.2193 27.397 37.273 27.927 36.9708 28.281Z" fill="white"/>
<path d="M36.3495 46.9707H27.5842C27.1122 46.9707 26.7354 47.3516 26.7354 47.8195C26.7354 48.2915 27.1163 48.6683 27.5842 48.6683H36.3495C36.8215 48.6683 37.2024 48.2874 37.2024 47.8195C37.2024 47.3454 36.8215 46.9707 36.3495 46.9707Z" fill="white"/>
<path d="M36.3495 50.1162H27.5842C27.1122 50.1162 26.7354 50.4971 26.7354 50.965C26.7354 51.4308 27.1163 51.8138 27.5842 51.8138H36.3495C36.8215 51.8138 37.2024 51.4329 37.2024 50.965C37.2024 50.4992 36.8215 50.1162 36.3495 50.1162Z" fill="white"/>
<path d="M35.7159 52.543C35.2501 52.543 34.8671 52.9239 34.8671 53.3918C34.8671 54.992 33.5628 56.2963 31.9625 56.2963C30.3623 56.2963 29.058 54.9921 29.058 53.3918C29.058 52.9198 28.6771 52.543 28.2092 52.543C27.7372 52.543 27.3604 52.9239 27.3604 53.3918C27.3604 55.9299 29.4223 57.998 31.9604 57.998C34.4985 57.998 36.5666 55.932 36.5666 53.3918C36.5708 52.9239 36.1879 52.543 35.7159 52.543Z" fill="white"/>
<path d="M18.604 41.1347L15.0205 44.7183C14.6872 45.0516 14.6872 45.5878 15.0205 45.9211C15.184 46.0846 15.4014 46.1695 15.6188 46.1695C15.8362 46.1695 16.0535 46.0846 16.2233 45.9211L19.8068 42.3375C20.1401 42.0042 20.1401 41.468 19.8068 41.1347C19.4735 40.8014 18.9373 40.8014 18.604 41.1347Z" fill="white" fill-opacity="0.4"/>
<path d="M47.7124 12.0168L44.1289 15.6045C43.7956 15.9378 43.7956 16.474 44.1289 16.8073C44.2924 16.9708 44.516 17.0557 44.7272 17.0557C44.9446 17.0557 45.1619 16.9708 45.3255 16.8073L48.909 13.2196C49.2423 12.8863 49.2423 12.3501 48.909 12.0168C48.5819 11.6897 48.0457 11.6897 47.7124 12.0168Z" fill="white" fill-opacity="0.4"/>
<path d="M13.9177 28.1172H8.84979C8.37778 28.1172 8.00098 28.4981 8.00098 28.966C8.00098 29.438 8.3819 29.8148 8.84979 29.8148H13.9156C14.3876 29.8148 14.7644 29.4339 14.7644 28.966C14.7644 28.4981 14.3877 28.1172 13.9177 28.1172Z" fill="white" fill-opacity="0.4"/>
<path d="M55.0849 28.1172H50.0129C49.5409 28.1172 49.1641 28.4981 49.1641 28.966C49.1641 29.438 49.545 29.8148 50.0129 29.8148H55.0849C55.5569 29.8148 55.9337 29.4339 55.9337 28.966C55.9379 28.4981 55.557 28.1172 55.0849 28.1172Z" fill="white" fill-opacity="0.4"/>
<path d="M18.604 16.8098C18.7676 16.9733 18.985 17.0582 19.2023 17.0582C19.4197 17.0582 19.6371 16.9733 19.8068 16.8098C20.136 16.4764 20.136 15.9403 19.8068 15.607L16.2233 12.0234C15.89 11.6901 15.3538 11.6901 15.0205 12.0234C14.6872 12.3567 14.6872 12.8929 15.0205 13.2262L18.604 16.8098Z" fill="white" fill-opacity="0.4"/>
<path d="M45.3287 41.1351C44.9954 40.8018 44.4593 40.806 44.126 41.1351C43.7926 41.4685 43.7926 42.0046 44.126 42.3379L47.7095 45.9215C47.8731 46.085 48.0904 46.1699 48.3078 46.1699C48.5252 46.1699 48.7425 46.085 48.9061 45.9215C49.2394 45.5882 49.2394 45.052 48.9061 44.7187L45.3287 41.1351Z" fill="white" fill-opacity="0.4"/>
<path d="M31.9672 11.7676C32.433 11.7676 32.816 11.3867 32.816 10.9188V5.84881C32.816 5.38094 32.433 5 31.9672 5C31.4952 5 31.1143 5.38092 31.1143 5.84881V10.9209C31.1143 11.3908 31.4952 11.7676 31.9672 11.7676Z" fill="white" fill-opacity="0.4"/>
</svg>
