<svg width="64" height="64" viewBox="0 0 64 64" fill="none" xmlns="http://www.w3.org/2000/svg">
<path d="M31.9671 15.2695C24.7339 15.2695 18.8438 21.1364 18.8438 28.37C18.8438 32.997 21.27 37.2742 25.2448 39.6485V45.0914C25.2448 45.553 25.6154 45.9443 26.0978 45.9443H37.8357C38.3119 45.9443 38.6887 45.553 38.6887 45.0914L38.6928 39.6485C42.6469 37.2739 45.0939 32.9968 45.0939 28.37C45.0897 21.1369 39.2063 15.2695 31.9663 15.2695H31.9671ZM36.9708 28.281L31.7559 34.7732C31.5965 34.9699 31.3646 35.092 31.1142 35.092H31.0769C30.8492 35.092 30.6318 35.001 30.4724 34.8436L26.9965 31.1918C26.6777 30.8522 26.6942 30.3223 27.0338 29.989C27.3733 29.6702 27.9032 29.6867 28.22 30.0262L31.0231 32.968L35.6501 27.2231C35.9358 26.867 36.4658 26.7987 36.8363 27.0968C37.2193 27.397 37.273 27.927 36.9708 28.281Z" fill="#8535EB"/>
<path d="M36.9708 28.281L31.7559 34.7732C31.5965 34.9699 31.3646 35.092 31.1142 35.092H31.0769C30.8492 35.092 30.6318 35.001 30.4724 34.8436L26.9965 31.1918C26.6777 30.8522 26.6942 30.3223 27.0338 29.989C27.3733 29.6702 27.9032 29.6867 28.22 30.0262L31.0231 32.968L35.6501 27.2231C35.9358 26.867 36.4658 26.7987 36.8363 27.0968C37.2193 27.397 37.273 27.927 36.9708 28.281Z" fill="#8535EB"/>
<path d="M36.3485 46.9707H27.5832C27.1112 46.9707 26.7344 47.3516 26.7344 47.8195C26.7344 48.2915 27.1153 48.6683 27.5832 48.6683H36.3485C36.8205 48.6683 37.2014 48.2874 37.2014 47.8195C37.2014 47.3454 36.8205 46.9707 36.3485 46.9707Z" fill="#8535EB"/>
<path d="M36.3485 50.1152H27.5832C27.1112 50.1152 26.7344 50.4962 26.7344 50.964C26.7344 51.4298 27.1153 51.8129 27.5832 51.8129H36.3485C36.8205 51.8129 37.2014 51.4319 37.2014 50.964C37.2014 50.4982 36.8205 50.1152 36.3485 50.1152Z" fill="#8535EB"/>
<path d="M35.7149 52.543C35.2491 52.543 34.8661 52.9239 34.8661 53.3918C34.8661 54.992 33.5619 56.2963 31.9615 56.2963C30.3613 56.2963 29.057 54.9921 29.057 53.3918C29.057 52.9198 28.6761 52.543 28.2082 52.543C27.7362 52.543 27.3594 52.9239 27.3594 53.3918C27.3594 55.9299 29.4213 57.998 31.9594 57.998C34.4975 57.998 36.5657 55.932 36.5657 53.3918C36.5698 52.9239 36.1869 52.543 35.7149 52.543Z" fill="#8535EB"/>
<path d="M18.6031 41.1347L15.0195 44.7183C14.6862 45.0516 14.6862 45.5878 15.0195 45.9211C15.1831 46.0846 15.4004 46.1695 15.6178 46.1695C15.8352 46.1695 16.0525 46.0846 16.2223 45.9211L19.8058 42.3375C20.1392 42.0042 20.1392 41.468 19.8058 41.1347C19.4725 40.8014 18.9364 40.8014 18.6031 41.1347Z" fill="#8535EB" fill-opacity="0.4"/>
<path d="M47.7124 12.0168L44.1289 15.6045C43.7956 15.9378 43.7956 16.474 44.1289 16.8073C44.2924 16.9708 44.516 17.0557 44.7272 17.0557C44.9446 17.0557 45.1619 16.9708 45.3255 16.8073L48.909 13.2196C49.2423 12.8863 49.2423 12.3501 48.909 12.0168C48.5819 11.6897 48.0457 11.6897 47.7124 12.0168Z" fill="#8535EB" fill-opacity="0.4"/>
<path d="M13.9167 28.1172H8.84881C8.3768 28.1172 8 28.4981 8 28.966C8 29.438 8.38092 29.8148 8.84881 29.8148H13.9147C14.3867 29.8148 14.7635 29.4339 14.7635 28.966C14.7635 28.4981 14.3867 28.1172 13.9167 28.1172Z" fill="#8535EB" fill-opacity="0.4"/>
<path d="M55.0849 28.1172H50.0129C49.5409 28.1172 49.1641 28.4981 49.1641 28.966C49.1641 29.438 49.545 29.8148 50.0129 29.8148H55.0849C55.5569 29.8148 55.9337 29.4339 55.9337 28.966C55.9379 28.4981 55.557 28.1172 55.0849 28.1172Z" fill="#8535EB" fill-opacity="0.4"/>
<path d="M18.6031 16.8098C18.7666 16.9733 18.984 17.0582 19.2014 17.0582C19.4187 17.0582 19.6361 16.9733 19.8058 16.8098C20.135 16.4764 20.135 15.9403 19.8058 15.607L16.2223 12.0234C15.889 11.6901 15.3528 11.6901 15.0195 12.0234C14.6862 12.3567 14.6862 12.8929 15.0195 13.2262L18.6031 16.8098Z" fill="#8535EB" fill-opacity="0.4"/>
<path d="M45.3278 41.1351C44.9945 40.8018 44.4583 40.806 44.125 41.1351C43.7917 41.4685 43.7917 42.0046 44.125 42.3379L47.7085 45.9215C47.8721 46.085 48.0895 46.1699 48.3068 46.1699C48.5242 46.1699 48.7416 46.085 48.9051 45.9215C49.2384 45.5882 49.2384 45.052 48.9051 44.7187L45.3278 41.1351Z" fill="#8535EB" fill-opacity="0.4"/>
<path d="M31.9662 11.7676C32.432 11.7676 32.815 11.3867 32.815 10.9188V5.84881C32.815 5.38094 32.432 5 31.9662 5C31.4942 5 31.1133 5.38092 31.1133 5.84881V10.9209C31.1133 11.3908 31.4942 11.7676 31.9662 11.7676Z" fill="#8535EB" fill-opacity="0.4"/>
</svg>
