<svg width="22" height="20" viewBox="0 0 22 20" fill="none" xmlns="http://www.w3.org/2000/svg">
<g clip-path="url(#clip0_5436_1163)">
<path d="M7.32569 10C7.32569 8.15913 8.96497 6.6664 10.9877 6.6664C13.0103 6.6664 14.6505 8.15913 14.6505 10C14.6505 11.8409 13.0103 13.3336 10.9877 13.3336C8.96497 13.3336 7.32569 11.8409 7.32569 10ZM5.34561 10C5.34561 12.836 7.87153 15.1349 10.9877 15.1349C14.1038 15.1349 16.6297 12.836 16.6297 10C16.6297 7.16397 14.1038 4.8651 10.9877 4.8651C7.87153 4.8651 5.34561 7.16397 5.34561 10ZM15.5345 4.66155C15.5345 5.32391 16.1247 5.86187 16.8534 5.86187C17.5811 5.86187 18.1722 5.32391 18.1722 4.66155C18.1722 3.99919 17.582 3.46204 16.8534 3.46204C16.1247 3.46204 15.5345 3.99919 15.5345 4.66155ZM6.54821 18.1397C5.47696 18.0953 4.89474 17.933 4.50778 17.7956C3.99478 17.6139 3.62912 17.3974 3.24393 17.0477C2.85963 16.6979 2.62088 16.3651 2.42208 15.8982C2.2712 15.546 2.0928 15.0162 2.04399 14.0412C1.99074 12.9871 1.98008 12.6704 1.98008 10C1.98008 7.32956 1.99162 7.01373 2.04399 5.9588C2.0928 4.98384 2.27208 4.45477 2.42208 4.10178C2.62177 3.63489 2.85963 3.3021 3.24393 2.95153C3.62823 2.60178 3.9939 2.38449 4.50778 2.20355C4.89474 2.06624 5.47696 1.90388 6.54821 1.85945C7.70644 1.81099 8.05436 1.80129 10.9877 1.80129C13.9218 1.80129 14.2689 1.81179 15.428 1.85945C16.4992 1.90388 17.0806 2.06704 17.4684 2.20355C17.9814 2.38449 18.3471 2.60178 18.7323 2.95153C19.1166 3.30129 19.3544 3.63489 19.5541 4.10178C19.705 4.45396 19.8834 4.98384 19.9322 5.9588C19.9855 7.01373 19.9961 7.32956 19.9961 10C19.9961 12.6696 19.9855 12.9863 19.9322 14.0412C19.8834 15.0162 19.7041 15.546 19.5541 15.8982C19.3544 16.3651 19.1166 16.6979 18.7323 17.0477C18.348 17.3974 17.9814 17.6139 17.4684 17.7956C17.0814 17.933 16.4992 18.0953 15.428 18.1397C14.2697 18.1882 13.9218 18.1979 10.9877 18.1979C8.05436 18.1979 7.70644 18.1882 6.54821 18.1397ZM6.45769 0.0605816C5.28792 0.109047 4.48914 0.277868 3.79065 0.52504C3.0682 0.780291 2.4558 1.12278 1.84429 1.67851C1.23367 2.23425 0.857356 2.7916 0.576896 3.44992C0.305311 4.08562 0.119817 4.8126 0.0665649 5.87722C0.0124255 6.94346 0 7.28433 0 10C0 12.7157 0.0124255 13.0565 0.0665649 14.1228C0.119817 15.1874 0.305311 15.9144 0.576896 16.5501C0.857356 17.2076 1.23278 17.7658 1.84429 18.3215C2.45491 18.8772 3.06731 19.2189 3.79065 19.475C4.49003 19.7221 5.28792 19.891 6.45769 19.9394C7.63012 19.9879 8.00377 20 10.9877 20C13.9724 20 14.3461 19.9887 15.5176 19.9394C16.6874 19.891 17.4862 19.7221 18.1847 19.475C18.9071 19.2189 19.5195 18.8772 20.131 18.3215C20.7416 17.7658 21.1171 17.2076 21.3984 16.5501C21.67 15.9144 21.8564 15.1874 21.9087 14.1228C21.962 13.0557 21.9744 12.7157 21.9744 10C21.9744 7.28433 21.962 6.94346 21.9087 5.87722C21.8555 4.8126 21.67 4.08562 21.3984 3.44992C21.1171 2.79241 20.7416 2.23506 20.131 1.67851C19.5204 1.12278 18.9071 0.780291 18.1855 0.52504C17.4862 0.277868 16.6874 0.108239 15.5185 0.0605816C14.347 0.0121163 13.9724 0 10.9885 0C8.00377 0 7.63012 0.0113086 6.45769 0.0605816Z" fill="#201A2D"/>
</g>
<defs>
<clipPath id="clip0_5436_1163">
<rect width="21.9753" height="20" fill="white"/>
</clipPath>
</defs>
</svg>
