<svg width="39" height="39" viewBox="0 0 39 39" fill="none" xmlns="http://www.w3.org/2000/svg">
<path d="M21.4474 8.58142C22.2362 8.57836 23.0251 8.58637 23.8137 8.60544L24.0234 8.61309C24.2656 8.62182 24.5045 8.63274 24.7931 8.64585C25.9433 8.70045 26.7281 8.8839 27.4167 9.15361C28.1302 9.43097 28.7312 9.8066 29.3323 10.4137C29.8818 10.9593 30.3072 11.6192 30.5787 12.3476C30.8457 13.0432 31.0273 13.837 31.0813 14.9989C31.0943 15.2893 31.1051 15.5318 31.1138 15.7764L31.1203 15.9882C31.1395 16.7845 31.1478 17.5809 31.1451 18.3774L31.1462 19.192V20.6225C31.1489 21.4193 31.1406 22.2162 31.1213 23.0128L31.1149 23.2246C31.1062 23.4692 31.0954 23.7106 31.0824 24.0021C31.0284 25.164 30.8446 25.9567 30.5787 26.6523C30.308 27.3815 29.8826 28.0419 29.3323 28.5873C28.7917 29.1423 28.1381 29.572 27.4167 29.8463C26.7281 30.116 25.9433 30.2995 24.7931 30.3541C24.5045 30.3672 24.2656 30.3781 24.0234 30.3868L23.8137 30.3934C23.0251 30.4128 22.2362 30.4212 21.4474 30.4185L20.641 30.4196H19.2259C18.4371 30.4223 17.6482 30.4139 16.8596 30.3945L16.6499 30.3879C16.3932 30.3785 16.1367 30.3676 15.8802 30.3552C14.73 30.3006 13.9452 30.1149 13.2555 29.8463C12.5341 29.5726 11.8807 29.1429 11.341 28.5873C10.7908 28.0416 10.3651 27.3813 10.0935 26.6523C9.82654 25.9567 9.64493 25.164 9.59087 24.0021C9.57884 23.743 9.56803 23.4839 9.55844 23.2246L9.55304 23.0128C9.53311 22.2162 9.5241 21.4194 9.52601 20.6225V18.3774C9.523 17.5809 9.53093 16.7845 9.5498 15.9882L9.55736 15.7764C9.56601 15.5318 9.57682 15.2893 9.58979 14.9989C9.64384 13.8359 9.82545 13.0443 10.0925 12.3476C10.3642 11.6188 10.7908 10.9591 11.3421 10.4148C11.8814 9.85875 12.5344 9.42832 13.2555 9.15361C13.9452 8.8839 14.7289 8.70045 15.8802 8.64585L16.6499 8.61309L16.8596 8.60763C17.6478 8.58751 18.4363 8.57841 19.2248 8.58033L21.4474 8.58142ZM20.3361 14.0412C19.6199 14.031 18.9089 14.1647 18.2443 14.4344C17.5797 14.7042 16.9749 15.1047 16.4648 15.6126C15.9548 16.1206 15.5498 16.7259 15.2734 17.3933C14.997 18.0607 14.8546 18.777 14.8546 19.5005C14.8546 20.224 14.997 20.9403 15.2734 21.6077C15.5498 22.2751 15.9548 22.8804 16.4648 23.3884C16.9749 23.8963 17.5797 24.2968 18.2443 24.5666C18.9089 24.8364 19.6199 24.97 20.3361 24.9598C21.7696 24.9598 23.1444 24.3845 24.1581 23.3606C25.1717 22.3367 25.7412 20.948 25.7412 19.5C25.7412 18.0519 25.1717 16.6632 24.1581 15.6393C23.1444 14.6154 21.7696 14.0412 20.3361 14.0412ZM20.3361 16.2252C20.7669 16.2171 21.195 16.2959 21.5953 16.4569C21.9956 16.6179 22.3601 16.8578 22.6676 17.1627C22.9751 17.4675 23.2194 17.8313 23.3861 18.2326C23.5529 18.6339 23.6388 19.0647 23.6389 19.4999C23.639 19.9352 23.5532 20.3661 23.3865 20.7674C23.2199 21.1688 22.9758 21.5326 22.6684 21.8376C22.361 22.1425 21.9965 22.3826 21.5963 22.5437C21.196 22.7048 20.768 22.7837 20.3372 22.7758C19.4771 22.7758 18.6522 22.4307 18.044 21.8164C17.4358 21.202 17.0942 20.3688 17.0942 19.5C17.0942 18.6311 17.4358 17.7979 18.044 17.1836C18.6522 16.5692 19.4771 16.2241 20.3372 16.2241L20.3361 16.2252ZM26.0114 12.4033C25.6627 12.4174 25.3329 12.5673 25.091 12.8215C24.8492 13.0757 24.7142 13.4146 24.7142 13.7672C24.7142 14.1197 24.8492 14.4586 25.091 14.7128C25.3329 14.9671 25.6627 15.1169 26.0114 15.131C26.3698 15.131 26.7135 14.9872 26.9669 14.7312C27.2203 14.4753 27.3627 14.1281 27.3627 13.7661C27.3627 13.4041 27.2203 13.0569 26.9669 12.8009C26.7135 12.5449 26.3698 12.4011 26.0114 12.4011V12.4033Z" fill="white"/>
</svg>
