<svg width="64" height="65" viewBox="0 0 64 65" fill="none" xmlns="http://www.w3.org/2000/svg">
<path d="M10.3519 26.097L23.8068 33.8812L37.2617 26.097C36.6664 24.9956 35.8031 24.0281 34.8357 23.4923L26.8878 19.0867C25.191 18.1342 22.4226 18.1342 20.7259 19.0867L12.778 23.4923C11.8106 24.0281 10.9473 24.9956 10.3519 26.097Z" fill="#FAC3AB" stroke="white" stroke-width="0.5"/>
<path d="M23.81 33.8811V48.1397C24.9263 48.1397 26.0426 47.9016 26.891 47.4253L34.8389 43.0197C36.6398 42.0225 38.1133 39.522 38.1133 37.4681V29.0439C38.1133 28.0913 37.7858 27.0495 37.2649 26.0969L23.81 33.8811Z" fill="#FAC3AB" stroke="white" stroke-width="0.5"/>
<path d="M9.50924 29.0439V37.4681C9.50924 39.522 10.9827 42.0225 12.7837 43.0197L20.7316 47.4253C21.5799 47.9016 22.6962 48.1397 23.8125 48.1397V33.8811L10.3576 26.0969C9.83668 27.0495 9.50924 28.0913 9.50924 29.0439Z" fill="#F26A2E" stroke="white" stroke-width="0.5"/>
<path d="M28.2113 36.5169L41.6662 44.3011L55.1211 36.5169C54.5257 35.4155 53.6625 34.4481 52.695 33.9122L44.7471 29.5067C43.0504 28.5541 40.282 28.5541 38.5853 29.5067L30.6374 33.9122C29.6699 34.4481 28.8067 35.4155 28.2113 36.5169Z" fill="#FAC3AB" stroke="white" stroke-width="0.5"/>
<path d="M41.6694 44.301V58.5596C42.7857 58.5596 43.902 58.3215 44.7503 57.8452L52.6982 53.4396C54.4992 52.4424 55.9727 49.942 55.9727 47.888V39.4638C55.9727 38.5113 55.6452 37.4694 55.1243 36.5168L41.6694 44.301Z" fill="#FAC3AB" stroke="white" stroke-width="0.5"/>
<path d="M27.3686 39.4638V47.888C27.3686 49.942 28.8421 52.4424 30.643 53.4396L38.5909 57.8452C39.4393 58.3215 40.5556 58.5596 41.6719 58.5596V44.301L28.217 36.5168C27.6961 37.4694 27.3686 38.5113 27.3686 39.4638Z" fill="#F26A2E" stroke="white" stroke-width="0.5"/>
<path d="M20.7621 14.1907L34.217 21.9749L47.6719 14.1907C47.0765 13.0893 46.2133 12.1219 45.2458 11.5861L37.2979 7.18048C35.6012 6.22792 32.8328 6.22792 31.1361 7.18048L23.1882 11.5861C22.2207 12.1219 21.3575 13.0893 20.7621 14.1907Z" fill="#FAC3AB" stroke="white" stroke-width="0.5"/>
<path d="M34.2202 21.9749V36.2335C35.3365 36.2335 36.4527 35.9953 37.3011 35.519L45.249 31.1135C47.0499 30.1163 48.5234 27.6158 48.5234 25.5618V17.1377C48.5234 16.1851 48.196 15.1432 47.6751 14.1907L34.2202 21.9749Z" fill="#FAC3AB" stroke="white" stroke-width="0.5"/>
<path d="M19.9194 17.1377V25.5618C19.9194 27.6158 21.3929 30.1163 23.1938 31.1135L31.1417 35.519C31.9901 35.9953 33.1064 36.2335 34.2227 36.2335V21.9749L20.7678 14.1907C20.2468 15.1432 19.9194 16.1851 19.9194 17.1377Z" fill="#F26A2E" stroke="white" stroke-width="0.5"/>
</svg>
