<svg width="94" height="52" viewBox="0 0 94 52" fill="none" xmlns="http://www.w3.org/2000/svg">
<path d="M92.3281 32.4351L86.2425 43.2251C85.3163 44.8745 83.9675 46.2476 82.3344 47.182C80.7175 48.1245 78.8812 48.612 77.0125 48.612H53.2225V35.0189L56.2775 33.0201C57.1469 32.4595 58.1706 32.1507 59.2431 32.1507C60.405 32.1507 61.5344 32.5164 62.4362 33.1745C64.4431 34.637 67.3762 36.3757 69.96 36.3757H76.9963C78.3125 36.3757 79.3931 37.4564 79.3931 38.7726C79.3931 40.0889 78.3125 41.1695 76.9963 41.1695H63.5494C63.1919 41.1695 62.9156 41.4539 62.9156 41.8032C62.9156 42.1607 63.2 42.437 63.5494 42.437H76.9963C77.8413 42.437 78.605 42.1364 79.2306 41.657C81.7169 40.8932 83.8619 39.2682 85.2431 37.0501L89.265 30.607C89.59 30.0951 90.1669 29.7782 90.7762 29.7782C91.0281 29.7782 91.2556 29.827 91.4831 29.9245C91.9381 30.1276 92.2956 30.5095 92.45 30.9889C92.6206 31.4764 92.5719 31.9964 92.3281 32.4351Z" fill="white"/>
<path fill-rule="evenodd" clip-rule="evenodd" d="M53.2144 49.8957L53.2225 48.612V35.0189V33.4832V31.3626C53.2225 30.8995 52.8406 30.5176 52.3775 30.5176H45.845C45.3819 30.5176 45 30.8995 45 31.3626V51.1551C45 51.6182 45.3819 52.0001 45.845 52.0001H52.3694C52.8325 52.0001 53.2144 51.6182 53.2144 51.1551V49.8957Z" fill="#6EB0A4"/>
<path d="M93.6769 30.5989C93.4006 29.7864 92.7994 29.1201 92.0112 28.7707C91.6212 28.6001 91.215 28.5107 90.7925 28.5107C89.7362 28.5107 88.745 29.0551 88.1925 29.9407L84.1625 36.3839C83.2606 37.8139 82.0012 38.9757 80.5144 39.7557C80.6037 39.4389 80.6687 39.122 80.6687 38.7726C80.6687 36.7414 79.0194 35.1001 76.9963 35.1001H69.96C67.6037 35.1001 64.7031 33.2395 63.1838 32.1345C62.03 31.2976 60.6731 30.8507 59.2512 30.8507C57.9512 30.8507 56.6756 31.2245 55.5788 31.9395L53.2225 33.4832V35.0189L56.2775 33.0201C57.1469 32.4595 58.1706 32.1507 59.2431 32.1507C60.405 32.1507 61.5344 32.5164 62.4362 33.1745C64.4431 34.637 67.3762 36.3757 69.96 36.3757H76.9963C78.3125 36.3757 79.3931 37.4564 79.3931 38.7726C79.3931 40.0889 78.3125 41.1695 76.9963 41.1695H63.5494C63.1919 41.1695 62.9156 41.4539 62.9156 41.8032C62.9156 42.1607 63.2 42.437 63.5494 42.437H76.9963C77.8413 42.437 78.605 42.1364 79.2306 41.657C81.7169 40.8932 83.8619 39.2682 85.2431 37.0501L89.265 30.607C89.59 30.0951 90.1669 29.7782 90.7762 29.7782C91.0281 29.7782 91.2556 29.827 91.4831 29.9245C91.9381 30.1276 92.2956 30.5095 92.45 30.9889C92.6206 31.4764 92.5719 31.9964 92.3281 32.4351L86.2425 43.2251C85.3163 44.8745 83.9675 46.2476 82.3344 47.182C80.7175 48.1245 78.8812 48.612 77.0125 48.612H53.2225L53.2144 49.8957H77.0044C79.1006 49.8957 81.1562 49.3432 82.96 48.287C84.7962 47.2307 86.3075 45.6951 87.3475 43.8507L93.4331 33.0526C93.8637 32.3132 93.945 31.4195 93.6769 30.5989Z" fill="white"/>
<path d="M55.8363 24.0906C58.6313 28.2019 63.3275 30.9075 68.6494 30.9075C76.2219 30.9075 82.5269 25.4231 83.835 18.2244C83.8431 18.2162 83.8513 18.2081 83.8513 18.1919C83.8675 18.1269 83.8756 18.0619 83.8675 17.9969C84.0138 17.1681 84.1031 16.3231 84.1031 15.4538C84.1031 11.5213 82.6162 7.93813 80.1869 5.20813C80.1381 5.12688 80.0813 5.06187 80.0081 5.01312C77.1806 1.94187 73.1425 0 68.6494 0C67.0162 0 65.4481 0.26 63.9694 0.723125C63.9531 0.73125 63.9369 0.73125 63.9206 0.739375C63.9044 0.739375 63.8963 0.755625 63.88 0.755625C57.6806 2.77875 53.1875 8.59625 53.1875 15.4538C53.1875 18.6306 54.1544 21.5881 55.8038 24.05C55.8281 24.0581 55.8281 24.0744 55.8363 24.0906ZM68.6494 1.27562C72.2731 1.27562 75.5719 2.64875 78.0744 4.89937L70.9244 4.96438C70.7538 4.96438 70.5831 5.0375 70.4694 5.15937L69.4212 6.24C69.3075 6.35375 69.2425 6.5 69.2425 6.67063V9.31938C69.2425 9.54688 69.3563 9.75 69.5513 9.86375L73.37 12.2038L73.5813 15.7137C73.5975 15.9412 73.7275 16.1444 73.9306 16.2419L77.5381 18.1025C77.6275 18.1513 77.7169 18.1756 77.8713 18.1756H77.9038L80.6013 17.875L82.5025 18.4438C81.1213 24.83 75.4337 29.6237 68.6494 29.6237C63.945 29.6237 59.785 27.3244 57.2094 23.79L59.135 22.2219C59.3625 22.0431 59.4356 21.7425 59.3219 21.4744L57.2988 16.7862H57.9569C58.225 16.7862 58.4606 16.6156 58.55 16.3638L60.0856 12.2931L62.71 12.1875C62.9131 12.1794 63.1 12.0737 63.2056 11.9031L66.5531 6.91438C66.6669 6.74375 66.6913 6.5325 66.6263 6.34562L64.9769 1.77938C66.1469 1.45438 67.3737 1.27562 68.6494 1.27562Z" fill="white"/>
<path d="M68.6494 1.27562C72.2731 1.27562 75.5719 2.64875 78.0744 4.89937L70.9244 4.96438C70.7538 4.96438 70.5831 5.0375 70.4694 5.15937L69.4212 6.24C69.3075 6.35375 69.2425 6.5 69.2425 6.67063V9.31938C69.2425 9.54688 69.3563 9.75 69.5513 9.86375L73.37 12.2038L73.5813 15.7137C73.5975 15.9412 73.7275 16.1444 73.9306 16.2419L77.5381 18.1025C77.6275 18.1513 77.7169 18.1756 77.8713 18.1756H77.9038L80.6013 17.875L82.5025 18.4438C81.1213 24.83 75.4337 29.6237 68.6494 29.6237C63.945 29.6237 59.785 27.3244 57.2094 23.79L59.135 22.2219C59.3625 22.0431 59.4356 21.7425 59.3219 21.4744L57.2988 16.7862H57.9569C58.225 16.7862 58.4606 16.6156 58.55 16.3638L60.0856 12.2931L62.71 12.1875C62.9131 12.1794 63.1 12.0737 63.2056 11.9031L66.5531 6.91438C66.6669 6.74375 66.6913 6.5325 66.6263 6.34562L64.9769 1.77938C66.1469 1.45438 67.3737 1.27562 68.6494 1.27562Z" fill="#6EB0A4"/>
<path d="M64.3791 18.558L65.5817 19.7443C65.7035 19.8661 65.866 19.9311 66.0285 19.9311C66.1829 19.9311 66.3292 19.8743 66.451 19.7768L67.5398 18.8343L69.1729 18.9155C69.3517 18.9155 69.5223 18.8424 69.6441 18.7043L71.7485 16.3318C71.8379 16.2261 71.8948 16.0961 71.9029 15.958L72.0979 13.4149C72.1141 13.163 71.9841 12.9274 71.7648 12.8055L69.4735 11.5624C69.376 11.5136 69.2704 11.4893 69.1648 11.4893C68.9617 11.4893 68.7666 11.5868 68.6529 11.7493L64.3141 17.7293C64.1273 17.9811 64.1516 18.3386 64.3791 18.558Z" fill="white"/>
<path d="M70.6374 20.3281C70.4262 20.3281 70.2312 20.4256 70.1256 20.5962L65.7868 26.5762C65.5999 26.8362 65.6243 27.1775 65.8518 27.405L67.0624 28.5912C67.1843 28.705 67.3468 28.7781 67.5093 28.7781C67.6637 28.7781 67.8099 28.7213 67.9237 28.6156L69.0124 27.6812L70.6537 27.7625C70.8324 27.7625 71.0031 27.6813 71.1168 27.5431L73.2212 25.1787C73.3187 25.0731 73.3756 24.9431 73.3837 24.7969L73.5787 22.2537C73.5949 22.01 73.4649 21.7744 73.2374 21.6525L70.9543 20.4094C70.8406 20.3525 70.7349 20.3281 70.6374 20.3281Z" fill="white"/>
</svg>
