<svg width="64" height="65" viewBox="0 0 64 65" fill="none" xmlns="http://www.w3.org/2000/svg">
<path d="M58.6693 23.6852C58.6693 26.8586 58.1626 29.7919 57.2826 32.5119H6.7226C5.8426 29.7919 5.33594 26.8586 5.33594 23.6852C5.33594 15.4452 11.9759 8.77856 20.1626 8.77856C24.9893 8.77856 29.3093 11.1252 32.0026 14.7252C34.6959 11.1252 39.0159 8.77856 43.8426 8.77856C52.0293 8.77856 58.6693 15.4452 58.6693 23.6852Z" fill="#E01483"/>
<path opacity="0.4" d="M57.2866 32.5129C53.0732 45.8463 40.0866 53.8196 33.6599 56.0063C32.7532 56.3263 31.2599 56.3263 30.3532 56.0063C23.9266 53.8196 10.9399 45.8463 6.72656 32.5129H57.2866Z" fill="#F3A1CD"/>
</svg>
