<svg width="64" height="65" viewBox="0 0 64 65" fill="none" xmlns="http://www.w3.org/2000/svg">
<g opacity="0.6">
<path opacity="0.6" d="M45.7448 27.1784C47.2176 27.1784 48.4115 25.9845 48.4115 24.5117C48.4115 23.0389 47.2176 21.845 45.7448 21.845C44.272 21.845 43.0781 23.0389 43.0781 24.5117C43.0781 25.9845 44.272 27.1784 45.7448 27.1784Z" fill="#136A9F"/>
<path opacity="0.6" d="M45.7448 43.1784C47.2176 43.1784 48.4115 41.9845 48.4115 40.5117C48.4115 39.0389 47.2176 37.845 45.7448 37.845C44.272 37.845 43.0781 39.0389 43.0781 40.5117C43.0781 41.9845 44.272 43.1784 45.7448 43.1784Z" fill="#136A9F"/>
<path opacity="0.6" d="M52.6667 35.1784C54.1394 35.1784 55.3333 33.9845 55.3333 32.5117C55.3333 31.0389 54.1394 29.845 52.6667 29.845C51.1939 29.845 50 31.0389 50 32.5117C50 33.9845 51.1939 35.1784 52.6667 35.1784Z" fill="#136A9F"/>
<path opacity="0.6" d="M18.1432 27.1784C19.616 27.1784 20.8099 25.9845 20.8099 24.5117C20.8099 23.0389 19.616 21.845 18.1432 21.845C16.6705 21.845 15.4766 23.0389 15.4766 24.5117C15.4766 25.9845 16.6705 27.1784 18.1432 27.1784Z" fill="#136A9F"/>
<path opacity="0.6" d="M18.1432 43.1784C19.616 43.1784 20.8099 41.9845 20.8099 40.5117C20.8099 39.0389 19.616 37.845 18.1432 37.845C16.6705 37.845 15.4766 39.0389 15.4766 40.5117C15.4766 41.9845 16.6705 43.1784 18.1432 43.1784Z" fill="#136A9F"/>
<path opacity="0.6" d="M11.2057 35.1784C12.6785 35.1784 13.8724 33.9845 13.8724 32.5117C13.8724 31.0389 12.6785 29.845 11.2057 29.845C9.73297 29.845 8.53906 31.0389 8.53906 32.5117C8.53906 33.9845 9.73297 35.1784 11.2057 35.1784Z" fill="#136A9F"/>
<path opacity="0.6" d="M42.4049 17.0456C43.8777 17.0456 45.0716 15.8516 45.0716 14.3789C45.0716 12.9061 43.8777 11.7122 42.4049 11.7122C40.9322 11.7122 39.7383 12.9061 39.7383 14.3789C39.7383 15.8516 40.9322 17.0456 42.4049 17.0456Z" fill="#136A9F"/>
<path opacity="0.6" d="M21.6042 17.0456C23.0769 17.0456 24.2708 15.8516 24.2708 14.3789C24.2708 12.9061 23.0769 11.7122 21.6042 11.7122C20.1314 11.7122 18.9375 12.9061 18.9375 14.3789C18.9375 15.8516 20.1314 17.0456 21.6042 17.0456Z" fill="#136A9F"/>
<path opacity="0.6" d="M32.1432 19.1784C33.616 19.1784 34.8099 17.9845 34.8099 16.5117C34.8099 15.0389 33.616 13.845 32.1432 13.845C30.6705 13.845 29.4766 15.0389 29.4766 16.5117C29.4766 17.9845 30.6705 19.1784 32.1432 19.1784Z" fill="#136A9F"/>
<path opacity="0.6" d="M42.4049 53.8463C43.8777 53.8463 45.0716 52.6524 45.0716 51.1797C45.0716 49.7069 43.8777 48.513 42.4049 48.513C40.9322 48.513 39.7383 49.7069 39.7383 51.1797C39.7383 52.6524 40.9322 53.8463 42.4049 53.8463Z" fill="#136A9F"/>
<path opacity="0.6" d="M21.6042 53.8463C23.0769 53.8463 24.2708 52.6524 24.2708 51.1797C24.2708 49.7069 23.0769 48.513 21.6042 48.513C20.1314 48.513 18.9375 49.7069 18.9375 51.1797C18.9375 52.6524 20.1314 53.8463 21.6042 53.8463Z" fill="#136A9F"/>
<path opacity="0.6" d="M32.1432 51.7116C33.616 51.7116 34.8099 50.5177 34.8099 49.0449C34.8099 47.5721 33.616 46.3782 32.1432 46.3782C30.6705 46.3782 29.4766 47.5721 29.4766 49.0449C29.4766 50.5177 30.6705 51.7116 32.1432 51.7116Z" fill="#136A9F"/>
</g>
<path d="M36.6693 27.8457C38.5102 27.8457 40.0026 26.3533 40.0026 24.5124C40.0026 22.6714 38.5102 21.179 36.6693 21.179C34.8283 21.179 33.3359 22.6714 33.3359 24.5124C33.3359 26.3533 34.8283 27.8457 36.6693 27.8457Z" fill="#136A9F"/>
<path d="M27.3333 27.8457C29.1743 27.8457 30.6667 26.3533 30.6667 24.5123C30.6667 22.6714 29.1743 21.179 27.3333 21.179C25.4924 21.179 24 22.6714 24 24.5123C24 26.3533 25.4924 27.8457 27.3333 27.8457Z" fill="#136A9F"/>
<path d="M41.3333 35.8457C43.1743 35.8457 44.6667 34.3533 44.6667 32.5123C44.6667 30.6714 43.1743 29.179 41.3333 29.179C39.4924 29.179 38 30.6714 38 32.5123C38 34.3533 39.4924 35.8457 41.3333 35.8457Z" fill="#136A9F"/>
<path d="M22.6693 35.8457C24.5102 35.8457 26.0026 34.3533 26.0026 32.5123C26.0026 30.6714 24.5102 29.179 22.6693 29.179C20.8283 29.179 19.3359 30.6714 19.3359 32.5123C19.3359 34.3533 20.8283 35.8457 22.6693 35.8457Z" fill="#136A9F"/>
<path d="M27.3333 43.8457C29.1743 43.8457 30.6667 42.3533 30.6667 40.5123C30.6667 38.6714 29.1743 37.179 27.3333 37.179C25.4924 37.179 24 38.6714 24 40.5123C24 42.3533 25.4924 43.8457 27.3333 43.8457Z" fill="#136A9F"/>
<path d="M36.6693 43.8457C38.5102 43.8457 40.0026 42.3533 40.0026 40.5123C40.0026 38.6714 38.5102 37.179 36.6693 37.179C34.8283 37.179 33.3359 38.6714 33.3359 40.5123C33.3359 42.3533 34.8283 43.8457 36.6693 43.8457Z" fill="#136A9F"/>
<g opacity="0.4">
<path opacity="0.4" d="M31.9951 9.39256C30.6884 9.39256 29.6484 8.35256 29.6484 7.04589C29.6484 5.73922 30.6884 4.72589 31.9951 4.72589C33.3018 4.72589 34.3418 5.76589 34.3418 7.07256C34.3418 8.37922 33.3018 9.39256 31.9951 9.39256Z" fill="#136A9F"/>
</g>
<g opacity="0.4">
<path opacity="0.4" d="M46.0032 10.1126C44.8832 10.1126 43.9766 9.20594 43.9766 8.11261C43.9766 7.01928 44.8832 6.11261 45.9766 6.11261C47.0699 6.11261 48.0032 7.01928 48.0032 8.11261C48.0032 9.20594 47.1232 10.1126 46.0032 10.1126Z" fill="#136A9F"/>
</g>
<g opacity="0.4">
<path opacity="0.4" d="M18 10.1126C16.9067 10.1126 16 9.20594 16 8.11261C16 7.01928 16.88 6.11261 18 6.11261H18.0267C19.12 6.11261 20.0267 7.01928 20.0267 8.11261C20.0267 9.20594 19.12 10.1126 18 10.1126Z" fill="#136A9F"/>
</g>
<g opacity="0.4">
<path opacity="0.4" d="M31.9951 60.1927C30.6884 60.1927 29.6484 59.1527 29.6484 57.846C29.6484 56.5393 30.6884 55.4993 31.9951 55.4993C33.3018 55.4993 34.3418 56.5393 34.3418 57.846C34.3418 59.1527 33.3018 60.1927 31.9951 60.1927Z" fill="#136A9F"/>
</g>
<g opacity="0.4">
<path opacity="0.4" d="M46.0032 58.7786C44.8832 58.7786 43.9766 57.872 43.9766 56.7786C43.9766 55.6853 44.8832 54.7786 45.9766 54.7786C47.0699 54.7786 48.0032 55.6853 48.0032 56.7786C48.0032 57.872 47.1232 58.7786 46.0032 58.7786Z" fill="#136A9F"/>
</g>
<g opacity="0.4">
<path opacity="0.4" d="M18 58.7806C16.9067 58.7806 16 57.8739 16 56.7806C16 55.6872 16.88 54.7806 18 54.7806H18.0267C19.12 54.7806 20.0267 55.6872 20.0267 56.7806C20.0267 57.8739 19.12 58.7806 18 58.7806Z" fill="#136A9F"/>
</g>
<g opacity="0.4">
<path opacity="0.4" d="M4.13573 34.8587C2.85573 34.8587 1.78906 33.8187 1.78906 32.5387V32.512C1.78906 31.232 2.82906 30.1653 4.13573 30.1653C5.44239 30.1653 6.45573 31.2053 6.45573 32.512C6.45573 33.8187 5.41573 34.8587 4.13573 34.8587Z" fill="#136A9F"/>
</g>
<g opacity="0.4">
<path opacity="0.4" d="M10 47.8463C8.90667 47.8463 8 46.9397 8 45.8463V45.8197C8 44.7263 8.90667 43.8197 10 43.8197C11.0933 43.8197 12 44.7263 12 45.8197C12 46.913 11.0933 47.8463 10 47.8463Z" fill="#136A9F"/>
</g>
<g opacity="0.4">
<path opacity="0.4" d="M10 21.2063C8.90667 21.2063 8 20.2997 8 19.2063C8 18.113 8.90667 17.2063 10 17.2063C11.0933 17.2063 12 18.0863 12 19.1797V19.2063C12 20.2997 11.0933 21.2063 10 21.2063Z" fill="#136A9F"/>
</g>
<g opacity="0.4">
<path opacity="0.4" d="M59.9951 34.8587C58.7151 34.8587 57.6484 33.8187 57.6484 32.5387V32.512C57.6484 31.232 58.6884 30.1653 59.9951 30.1653C61.3018 30.1653 62.3418 31.2053 62.3418 32.512C62.3418 33.8187 61.2751 34.8587 59.9951 34.8587Z" fill="#136A9F"/>
</g>
<g opacity="0.4">
<path opacity="0.4" d="M54.1367 47.8463C53.0434 47.8463 52.1367 46.9663 52.1367 45.8463V45.8196C52.1367 44.7263 53.0434 43.8196 54.1367 43.8196C55.2301 43.8196 56.1367 44.7263 56.1367 45.8196C56.1367 46.913 55.2301 47.8463 54.1367 47.8463Z" fill="#136A9F"/>
</g>
<g opacity="0.4">
<path opacity="0.4" d="M54.1367 21.2064C53.0434 21.2064 52.1367 20.2997 52.1367 19.2064C52.1367 18.113 53.0434 17.2064 54.1367 17.2064C55.2301 17.2064 56.1367 18.0864 56.1367 19.1797V19.2064C56.1367 20.2997 55.2301 21.2064 54.1367 21.2064Z" fill="#136A9F"/>
</g>
</svg>
