<svg width="94" height="52" viewBox="0 0 94 52" fill="none" xmlns="http://www.w3.org/2000/svg">
<g clip-path="url(#clip0_3048_2173)">
<path fill-rule="evenodd" clip-rule="evenodd" d="M62.129 0.000167142C52.6722 0.0275404 45 7.72132 45 17.1781C44.9998 23.8376 48.9025 29.8101 54.8875 32.6386V36.8206C53.5576 37.0934 52.675 38.4476 52.6749 39.8964V44.3033C52.6749 45.924 53.7746 47.4353 55.3753 47.4353H56.9041C57.4203 50.0365 59.7176 51.9996 62.4481 52C65.1787 51.9996 67.476 50.0365 67.9921 47.4353H69.5228C71.1235 47.4353 72.2232 45.924 72.2232 44.3033V39.8964C72.2232 38.4476 71.3405 37.0934 70.0106 36.8206V32.3611C71.3941 31.6463 74.6723 28.4246 75.9837 26.7937L75.8901 25.981C75.6237 25.8946 75.3607 25.7981 75.1016 25.6924C73.9052 26.8398 70.2052 30.3354 68.6869 31.0479C68.3616 31.201 68.1539 31.5281 68.1537 31.8876V36.7624H56.7447V32.1306C56.7444 31.7582 56.5217 31.4219 56.1789 31.2764C50.5235 28.8702 46.857 23.324 46.8572 17.1779C46.8572 8.72287 53.6777 1.88161 62.1327 1.85707C64.026 1.84268 67.973 2.12825 69.7569 3.68661L70.7415 2.70415C69.0911 0.881565 64.14 0.000276704 62.1781 0L62.129 0.000167142ZM69.5228 38.6215C66.4457 38.6284 63.3618 38.6261 60.2801 38.6238H60.2785H60.2769C60.1752 38.6237 60.0735 38.6236 59.9719 38.6235C58.4387 38.6224 56.9062 38.6213 55.3753 38.6215C55.0161 38.6215 54.532 39.0758 54.532 39.8964V41.1713H57.5334C58.0491 41.1693 58.4674 41.5878 58.4656 42.1035C58.4636 42.6163 58.0462 43.0303 57.5334 43.0284H54.532V44.3033C54.532 45.1239 55.0161 45.5783 55.3753 45.5783H69.5228C69.882 45.5783 70.3661 45.1239 70.3661 44.3033V43.0284H61.2494C60.7394 43.0264 60.3263 42.6135 60.3245 42.1035C60.3225 41.5907 60.7366 41.1732 61.2494 41.1713H70.3661V39.8964C70.3661 39.0758 69.882 38.6215 69.5228 38.6215ZM65.8268 47.4353H59.0768C59.5828 48.946 60.7696 50.1427 62.4481 50.1429C64.127 50.1427 65.321 48.9465 65.8268 47.4353Z" fill="white"/>
<path fill-rule="evenodd" clip-rule="evenodd" d="M68.6869 31.0479C70.2052 30.3354 73.9052 26.8398 75.1016 25.6924C75.083 25.6848 75.0645 25.6772 75.046 25.6696C75.0371 25.6659 75.0282 25.6622 75.0193 25.6585C74.7335 25.5394 74.4525 25.409 74.1763 25.2683L71.9765 27.0166C71.6054 27.3091 71.0738 27.2763 70.7415 26.9404L67.3828 23.589C67.0507 23.2545 67.0218 22.7243 67.3157 22.3558L69.0567 20.1559C68.7755 19.604 68.5406 19.0313 68.3494 18.4421L65.5602 18.1193C65.0909 18.0648 64.7377 17.6668 64.7386 17.1944V12.4502C64.7374 11.9778 65.0909 11.5798 65.5602 11.5253L68.3494 11.2097C68.5414 10.6177 68.7738 10.0448 69.0567 9.49044L67.3157 7.2888C67.0218 6.92026 67.0507 6.39006 67.3828 6.05558L69.7569 3.68661C67.973 2.12825 64.026 1.84268 62.1327 1.85707C53.6777 1.88161 46.8572 8.72287 46.8572 17.1779C46.857 23.324 50.5235 28.8702 56.1789 31.2764C56.5217 31.4219 56.7444 31.7582 56.7447 32.1306V36.7624H68.1537V31.8876C68.1539 31.5281 68.3616 31.201 68.6869 31.0479ZM51.0228 12.958C52.4444 8.79862 56.1143 5.52959 60.6183 5.1307C61.1746 5.08143 61.5497 5.42455 61.6611 5.93229C61.7284 6.44434 61.3649 6.91296 60.8522 6.97508C57.0779 7.44842 53.9712 10.059 52.7765 13.5546C52.6122 14.0414 52.084 14.3022 51.5977 14.1368C51.1139 13.9695 50.8567 13.4422 51.0228 12.958Z" fill="white"/>
<path fill-rule="evenodd" clip-rule="evenodd" d="M76.2111 0.881565C76.2645 0.413673 76.6597 0.0600672 77.1306 0.0582102L81.8803 0.0582266C82.3512 0.0598348 82.7464 0.41369 82.7998 0.881581L83.1135 3.66356C83.7077 3.85593 84.2855 4.09244 84.8418 4.37628L87.0344 2.63527C87.4037 2.3408 87.9352 2.37045 88.2694 2.70416L91.6281 6.05559C91.9645 6.39105 91.9935 6.92628 91.6953 7.29606L89.9488 9.4832C90.2341 10.0408 90.4737 10.6139 90.667 11.2097L93.4508 11.5253C93.9207 11.5789 94.2751 11.9772 94.2741 12.4502V17.1944C94.2753 17.6674 93.9207 18.0657 93.4508 18.1193L90.667 18.4349C90.4749 19.0274 90.2319 19.6012 89.9488 20.1559L91.6953 22.3558C91.9891 22.7243 91.9602 23.2545 91.6281 23.589L88.2694 26.9404C87.9371 27.2763 87.4055 27.3091 87.0344 27.0166L84.8418 25.2683C84.287 25.5516 83.7133 25.7888 83.1208 25.981L82.7998 28.7703C82.7464 29.2382 82.3512 29.5918 81.8803 29.5936H77.1306C76.6597 29.592 76.2645 29.2382 76.2112 28.7703L75.9837 26.7937L75.8901 25.981C75.6046 25.8884 75.3231 25.7843 75.046 25.6696L75.0193 25.6585C74.7335 25.5394 74.4525 25.409 74.1763 25.2683L71.9765 27.0166C71.6054 27.3091 71.0738 27.2763 70.7415 26.9404L67.3828 23.589C67.0507 23.2545 67.0218 22.7243 67.3157 22.3558L69.0567 20.1559C68.7755 19.604 68.5406 19.0313 68.3494 18.4421L65.5602 18.1193C65.0909 18.0648 64.7377 17.6668 64.7386 17.1944V12.4502C64.7374 11.9778 65.0909 11.5798 65.5602 11.5253L68.3494 11.2097C68.5414 10.6177 68.7738 10.0448 69.0567 9.49044L67.3157 7.2888C67.0218 6.92026 67.0507 6.39006 67.3828 6.05558L70.7415 2.70415C71.0757 2.37047 71.6072 2.34082 71.9765 2.63526L74.1691 4.37627C74.7257 4.09216 75.3029 3.8561 75.8974 3.66354L76.2111 0.881565ZM81.0515 1.91528H77.9594L77.6783 4.4107C77.6327 4.791 77.3583 5.10428 76.9873 5.19959C76.1079 5.42951 75.2691 5.78148 74.4846 6.24057C74.1534 6.43488 73.7368 6.4053 73.4364 6.1662L71.4687 4.60293L69.2815 6.78825L70.8448 8.75595C71.0845 9.056 71.1148 9.47264 70.921 9.80418C70.4629 10.5871 70.1153 11.4294 69.8854 12.3069C69.7875 12.6774 69.472 12.9497 69.0911 12.9924L66.5957 13.2807V16.371L69.0911 16.6594C69.472 16.7021 69.7875 16.9744 69.8854 17.3449C70.1151 18.223 70.4628 19.0623 70.921 19.8458C71.1156 20.1778 71.0853 20.5954 70.8448 20.8958L69.2815 22.8617L71.4687 25.0416L73.4364 23.4801C73.738 23.2428 74.1545 23.2154 74.4846 23.4112C75.2681 23.8694 76.1092 24.2171 76.9873 24.4468C77.3549 24.5444 77.6258 24.8563 77.671 25.2339L77.9593 27.7366H81.0514L81.3398 25.2339C81.385 24.8563 81.656 24.5444 82.0235 24.4468C82.903 24.2163 83.7491 23.8637 84.5335 23.404C84.865 23.2102 85.2816 23.2405 85.5817 23.4802L87.5421 25.0416L89.7293 22.8617L88.1587 20.8959C87.9206 20.5939 87.8932 20.1763 88.0899 19.8458C88.5499 19.0603 88.8952 18.2184 89.1254 17.3377C89.221 16.9637 89.538 16.6879 89.9215 16.6449L92.4152 16.3638V13.2808L89.9215 12.9924C89.54 12.9504 89.2236 12.678 89.1254 12.3069C88.8947 11.4261 88.545 10.5842 88.0844 9.79876C87.8893 9.46714 87.9188 9.04952 88.1588 8.74873L89.7293 6.78284L87.5422 4.60295L85.5817 6.16622C85.2813 6.40536 84.8647 6.43491 84.5335 6.24059C83.748 5.78059 82.8988 5.4298 82.0181 5.19962C81.6493 5.1024 81.3773 4.78952 81.3326 4.41073L81.0515 1.91528ZM72.6475 14.8223C72.6475 11.0446 75.7305 7.96165 79.5082 7.96165C83.2859 7.96165 86.3634 11.0446 86.3634 14.8223C86.3634 18.6 83.2859 21.6829 79.5082 21.6829C75.7305 21.683 72.6475 18.6 72.6475 14.8223ZM84.5063 14.8223C84.5063 12.0483 82.2822 9.81872 79.5082 9.81872C76.7341 9.81872 74.5046 12.0483 74.5046 14.8223C74.5046 17.5963 76.7341 19.8259 79.5082 19.8259C82.2822 19.8259 84.5063 17.5963 84.5063 14.8223Z" fill="white" fill-opacity="0.42"/>
<path fill-rule="evenodd" clip-rule="evenodd" d="M77.9594 1.91528H81.0515L81.3326 4.41073C81.3773 4.78952 81.6493 5.1024 82.0181 5.19962C82.8988 5.4298 83.748 5.78059 84.5335 6.24059C84.8647 6.43491 85.2813 6.40536 85.5817 6.16622L87.5422 4.60295L89.7293 6.78284L88.1588 8.74873C87.9188 9.04952 87.8893 9.46714 88.0844 9.79876C88.545 10.5842 88.8947 11.4261 89.1254 12.3069C89.2236 12.678 89.54 12.9504 89.9215 12.9924L92.4152 13.2808V16.3638L89.9215 16.6449C89.538 16.6879 89.221 16.9637 89.1254 17.3377C88.8952 18.2184 88.5499 19.0603 88.0899 19.8458C87.8932 20.1763 87.9206 20.5939 88.1587 20.8959L89.7293 22.8617L87.5421 25.0416L85.5817 23.4802C85.2816 23.2405 84.865 23.2102 84.5335 23.404C83.7491 23.8637 82.903 24.2163 82.0235 24.4468C81.656 24.5444 81.385 24.8563 81.3398 25.2339L81.0514 27.7366H77.9593L77.671 25.2339C77.6258 24.8563 77.3549 24.5444 76.9873 24.4468C76.1092 24.2171 75.2681 23.8694 74.4846 23.4112C74.1545 23.2154 73.738 23.2428 73.4364 23.4801L71.4687 25.0416L69.2815 22.8617L70.8448 20.8958C71.0853 20.5954 71.1156 20.1778 70.921 19.8458C70.4628 19.0623 70.1151 18.223 69.8854 17.3449C69.7875 16.9744 69.472 16.7021 69.0911 16.6594L66.5957 16.371V13.2807L69.0911 12.9924C69.472 12.9497 69.7875 12.6774 69.8854 12.3069C70.1153 11.4294 70.4629 10.5871 70.921 9.80418C71.1148 9.47264 71.0845 9.056 70.8448 8.75595L69.2815 6.78825L71.4687 4.60293L73.4364 6.1662C73.7368 6.4053 74.1534 6.43488 74.4846 6.24057C75.2691 5.78148 76.1079 5.42951 76.9873 5.19959C77.3583 5.10428 77.6327 4.791 77.6783 4.4107L77.9594 1.91528ZM72.6475 14.8223C72.6475 11.0446 75.7305 7.96165 79.5082 7.96165C83.2859 7.96165 86.3634 11.0446 86.3634 14.8223C86.3634 18.6 83.2859 21.6829 79.5082 21.6829C75.7305 21.683 72.6475 18.6 72.6475 14.8223Z" fill="white" fill-opacity="0.42"/>
</g>
<defs>
<clipPath id="clip0_3048_2173">
<rect width="94" height="52" fill="white"/>
</clipPath>
</defs>
</svg>
