<svg width="18" height="18" viewBox="0 0 18 18" fill="none" xmlns="http://www.w3.org/2000/svg">
<path d="M9.94305 13.1202C9.69007 13.3638 9.35198 13.5 9.00015 13.5C8.64825 13.5 8.31015 13.3638 8.05717 13.1202C5.74073 10.8756 2.63639 8.36812 4.15028 4.7278C4.96882 2.75949 6.93371 1.5 9.00015 1.5C11.0666 1.5 13.0314 2.7595 13.85 4.7278C15.3619 8.36355 12.2652 10.8833 9.94305 13.1202Z" fill="#0E7B68" fill-opacity="0.31" stroke="#0E7B68"/>
<path d="M13.5 15C13.5 15.8284 11.4853 16.5 9 16.5C6.51472 16.5 4.5 15.8284 4.5 15" stroke="#0E7B68" stroke-linecap="round"/>
<path d="M10.875 6.75C10.875 7.78553 10.0355 8.625 9 8.625C7.96448 8.625 7.125 7.78553 7.125 6.75C7.125 5.71447 7.96448 4.875 9 4.875C10.0355 4.875 10.875 5.71447 10.875 6.75Z" fill="white" stroke="#0E7B68"/>
</svg>
