<svg width="72" height="72" viewBox="0 0 72 72" fill="none" xmlns="http://www.w3.org/2000/svg">
<path d="M0.912366 59.6403L28.3636 4.72097C31.51 -1.57366 40.49 -1.57366 43.6364 4.72097L71.0876 59.6403C73.926 65.3188 69.798 72 63.4513 72H8.54872C2.20194 72 -1.926 65.3188 0.912366 59.6403Z" fill="#8E0F0F"/>
<path d="M33.4118 23.5932C33.2734 22.0707 34.4718 20.7581 36 20.7581C37.5282 20.7581 38.7266 22.0707 38.5882 23.5932L36.2834 48.954C36.252 49.2992 35.7479 49.2992 35.7166 48.954L33.4118 23.5932Z" fill="white" fill-opacity="0.22"/>
<path d="M38.8459 59.1895C38.8459 60.7617 37.5717 62.0363 36 62.0363C34.4282 62.0363 33.1541 60.7617 33.1541 59.1895C33.1541 57.6173 34.4282 56.3427 36 56.3427C37.5717 56.3427 38.8459 57.6173 38.8459 59.1895Z" fill="white" fill-opacity="0.22"/>
</svg>
