<svg width="24" height="24" viewBox="0 0 24 24" fill="none" xmlns="http://www.w3.org/2000/svg">
<path d="M6.94141 5.001C6.94114 5.53144 6.73018 6.04004 6.35492 6.41492C5.97966 6.78981 5.47084 7.00027 4.94041 7C4.40998 6.99974 3.90137 6.78877 3.52649 6.41351C3.1516 6.03825 2.94114 5.52944 2.94141 4.999C2.94168 4.46857 3.15264 3.95997 3.5279 3.58508C3.90316 3.2102 4.41198 2.99974 4.94241 3C5.47284 3.00027 5.98145 3.21124 6.35633 3.5865C6.73122 3.96176 6.94168 4.47057 6.94141 5.001ZM7.00141 8.481H3.00141V21.001H7.00141V8.481ZM13.3214 8.481H9.34141V21.001H13.2814V14.431C13.2814 10.771 18.0514 10.431 18.0514 14.431V21.001H22.0014V13.071C22.0014 6.901 14.9414 7.131 13.2814 10.161L13.3214 8.481Z" fill="#201A2D"/>
</svg>
