<svg width="32" height="32" viewBox="0 0 32 32" fill="none" xmlns="http://www.w3.org/2000/svg">
<rect width="32" height="32" fill="white"/>
<path d="M15.5703 14.908V5L28.1417 27H22.4801L15.5703 14.908Z" fill="#0E7B68"/>
<path d="M8.66168 27H3L15.5714 5V14.908L8.66168 27Z" fill="#0E7B68"/>
<path d="M15.5759 22.2852L13.2188 26.9994H15.5759H17.933L15.5759 22.2852Z" fill="#0E7B68"/>
<path d="M24.5653 20.7148C23.6948 22.1266 22.4932 23.3064 21.0703 24.1419L22.6969 27.0006H28.1417L24.5653 20.7148Z" fill="#0E7B68"/>
<path d="M6.57653 20.7148L3 27.0006H8.44487L10.0714 24.1419C8.64853 23.3064 7.44694 22.1266 6.57653 20.7148Z" fill="#0E7B68"/>
<path d="M14.0762 25.4297L13.2188 27.0011H15.5759H17.933L17.0755 25.4297C16.5873 25.5136 16.0865 25.5579 15.5759 25.5579C15.0653 25.5577 14.5645 25.5134 14.0762 25.4297Z" fill="#0E7B68"/>
<path d="M15.6645 14.4297L15.5703 14.486L22.5476 27.0011L22.6417 26.9449L15.6645 14.4297Z" fill="#0E7B68"/>
<path d="M15.6622 6.57031L15.5703 6.62369L27.264 26.9989L27.356 26.9456L15.6622 6.57031Z" fill="#0E7B68"/>
<path d="M15.4751 6.57031L3.78125 26.9456L3.87315 26.9989L15.567 6.62369L15.4751 6.57031Z" fill="#0E7B68"/>
<path d="M15.4773 14.4297L8.5 26.9449L8.59415 27.0011L15.5714 14.486L15.4773 14.4297Z" fill="#0E7B68"/>
</svg>
