<svg width="32" height="32" viewBox="0 0 32 32" fill="none" xmlns="http://www.w3.org/2000/svg">
<path d="M15.5703 14.908V5L28.1417 27H22.4801L15.5703 14.908Z" fill="white"/>
<path d="M8.66168 27H3L15.5714 5V14.908L8.66168 27Z" fill="white"/>
<path d="M15.572 22.2852L13.2148 26.9994H15.572H17.9291L15.572 22.2852Z" fill="white"/>
<path d="M24.5653 20.7148C23.6948 22.1266 22.4932 23.3064 21.0703 24.1419L22.6969 27.0006H28.1417L24.5653 20.7148Z" fill="white"/>
<path d="M6.57653 20.7148L3 27.0006H8.44487L10.0714 24.1419C8.64853 23.3064 7.44694 22.1266 6.57653 20.7148Z" fill="white"/>
<path d="M14.0723 25.4297L13.2148 27.0011H15.572H17.9291L17.0716 25.4297C16.5834 25.5136 16.0826 25.5579 15.572 25.5579C15.0614 25.5577 14.5606 25.5134 14.0723 25.4297Z" fill="white"/>
<path d="M15.6645 14.4297L15.5703 14.486L22.5476 27.0011L22.6417 26.9449L15.6645 14.4297Z" fill="white"/>
<path d="M15.6622 6.57031L15.5703 6.62369L27.264 26.9989L27.356 26.9456L15.6622 6.57031Z" fill="white"/>
<path d="M15.479 6.57031L3.78516 26.9456L3.87706 26.9989L15.5709 6.62369L15.479 6.57031Z" fill="white"/>
<path d="M15.4773 14.4297L8.5 26.9449L8.59415 27.0011L15.5714 14.486L15.4773 14.4297Z" fill="white"/>
</svg>
