<svg width="28" height="27" viewBox="0 0 28 27" fill="none" xmlns="http://www.w3.org/2000/svg">
<path fill-rule="evenodd" clip-rule="evenodd" d="M6.20312 10.875C6.20312 6.52125 9.72474 3 14.0789 3C18.4331 3 21.9548 6.52125 21.9548 10.875C21.9548 15.5662 16.9817 22.035 14.9453 24.4988C14.4952 25.0388 13.6739 25.0388 13.2238 24.4988C11.1761 22.035 6.20312 15.5662 6.20312 10.875ZM11.2657 10.875C11.2657 12.4275 12.5257 13.6875 14.0782 13.6875C15.6307 13.6875 16.8907 12.4275 16.8907 10.875C16.8907 9.3225 15.6307 8.0625 14.0782 8.0625C12.5257 8.0625 11.2657 9.3225 11.2657 10.875Z" fill="#696B69"/>
</svg>
