<svg width="28" height="27" viewBox="0 0 28 27" fill="none" xmlns="http://www.w3.org/2000/svg">
<path d="M15.8757 26.6479V16.8126C15.8757 16.2861 15.9143 15.7596 16.0687 15.3842C16.4862 14.3336 17.4393 13.2441 19.0416 13.2441C21.1386 13.2441 21.976 14.8577 21.976 17.2269V26.6479H27.7698V16.5469C27.7698 11.1356 24.9127 8.62012 21.1 8.62012C18.0257 8.62012 16.6478 10.3264 15.8757 11.5281V11.589H15.837L15.8757 11.5281V9.03694H10.0842C10.1566 10.6896 10.0842 26.6479 10.0842 26.6479H15.8757Z" fill="white"/>
<path d="M6.92791 26.6479V9.03694H1.13408V26.6479H6.92791Z" fill="white"/>
<path d="M4.0322 6.63112C6.05196 6.63112 7.30918 5.28075 7.30918 3.58912C7.27298 1.86094 6.05437 0.547125 4.07081 0.547125C2.08725 0.547125 0.79142 1.86337 0.79142 3.58912C0.79142 5.28075 2.04864 6.63112 3.99359 6.63112H4.0322Z" fill="white"/>
<path fill-rule="evenodd" clip-rule="evenodd" d="M15.8757 11.589V11.5281L15.837 11.589H15.8757Z" fill="white"/>
</svg>
