<svg width="50" height="50" viewBox="0 0 50 50" fill="none" xmlns="http://www.w3.org/2000/svg">
<path opacity="0.4" d="M24.9987 39.6673C33.0989 39.6673 39.6654 33.1008 39.6654 25.0007C39.6654 16.9005 33.0989 10.334 24.9987 10.334C16.8985 10.334 10.332 16.9005 10.332 25.0007C10.332 33.1008 16.8985 39.6673 24.9987 39.6673Z" fill="#1CB977"/>
<path d="M24.9973 30.7193C28.1564 30.7193 30.7173 28.1584 30.7173 24.9993C30.7173 21.8402 28.1564 19.2793 24.9973 19.2793C21.8383 19.2793 19.2773 21.8402 19.2773 24.9993C19.2773 28.1584 21.8383 30.7193 24.9973 30.7193Z" fill="#1CB977"/>
<path d="M26.375 6.66602V10.406H26.3567C25.9167 10.351 25.4583 10.3327 25 10.3327C24.5417 10.3327 24.0833 10.351 23.6433 10.406H23.625V6.66602C23.625 5.91435 24.2483 5.29102 25 5.29102C25.7517 5.29102 26.375 5.91435 26.375 6.66602Z" fill="#1CB977"/>
<path d="M10.3346 25C10.3346 25.4583 10.353 25.935 10.408 26.375H6.66797C5.9163 26.375 5.29297 25.7517 5.29297 25C5.29297 24.2483 5.9163 23.625 6.66797 23.625H10.408C10.353 24.065 10.3346 24.5417 10.3346 25Z" fill="#1CB977"/>
<path d="M26.375 39.5938V43.3338C26.375 44.0854 25.7517 44.7088 25 44.7088C24.2483 44.7088 23.625 44.0854 23.625 43.3338V39.5938H23.6433C24.0833 39.6487 24.5417 39.6671 25 39.6671C25.4583 39.6671 25.9167 39.6487 26.3567 39.5938H26.375Z" fill="#1CB977"/>
<path d="M44.7088 25C44.7088 25.7517 44.0854 26.375 43.3338 26.375H39.5938C39.6487 25.935 39.6671 25.4583 39.6671 25C39.6671 24.5417 39.6487 24.065 39.5938 23.625H43.3338C44.0854 23.625 44.7088 24.2483 44.7088 25Z" fill="#1CB977"/>
</svg>
