<svg width="62" height="62" viewBox="0 0 62 62" fill="none" xmlns="http://www.w3.org/2000/svg">
<path opacity="0.4" d="M23.2533 5.16748C16.4849 5.16748 10.9824 10.67 10.9824 17.4383C10.9824 24.0775 16.1749 29.4508 22.9433 29.6833C23.1499 29.6575 23.3566 29.6575 23.5116 29.6833C23.5633 29.6833 23.5891 29.6833 23.6408 29.6833C23.6666 29.6833 23.6666 29.6833 23.6924 29.6833C30.3058 29.4508 35.4983 24.0775 35.5241 17.4383C35.5241 10.67 30.0216 5.16748 23.2533 5.16748Z" fill="white"/>
<path d="M36.3725 36.5552C29.165 31.7502 17.4108 31.7502 10.1517 36.5552C6.87083 38.751 5.0625 41.7218 5.0625 44.8993C5.0625 48.0768 6.87083 51.0218 10.1258 53.1918C13.7425 55.6202 18.4958 56.8343 23.2492 56.8343C28.0025 56.8343 32.7558 55.6202 36.3725 53.1918C39.6275 50.996 41.4358 48.051 41.4358 44.8477C41.41 41.6702 39.6275 38.7252 36.3725 36.5552Z" fill="white"/>
<path opacity="0.4" d="M51.6392 18.9615C52.0526 23.9732 48.4876 28.3649 43.5534 28.959C43.5276 28.959 43.5276 28.959 43.5017 28.959H43.4242C43.2692 28.959 43.1142 28.959 42.9851 29.0107C40.4792 29.1398 38.1801 28.339 36.4492 26.8665C39.1101 24.4898 40.6342 20.9248 40.3242 17.0498C40.1434 14.9574 39.4201 13.0457 38.3351 11.4182C39.3167 10.9274 40.4534 10.6174 41.6159 10.514C46.6792 10.0749 51.2001 13.8465 51.6392 18.9615Z" fill="white"/>
<path d="M56.8092 42.8569C56.6026 45.3627 55.0009 47.5327 52.3142 49.0052C49.7309 50.4261 46.4759 51.0977 43.2467 51.0202C45.1067 49.3411 46.1917 47.2486 46.3984 45.0269C46.6567 41.8236 45.1326 38.7494 42.0842 36.2952C40.3534 34.9261 38.3384 33.8411 36.1426 33.0402C41.8517 31.3869 49.0334 32.4977 53.4509 36.0627C55.8276 37.9744 57.0417 40.3769 56.8092 42.8569Z" fill="white"/>
</svg>
