<svg width="27" height="27" viewBox="0 0 27 27" fill="none" xmlns="http://www.w3.org/2000/svg">
<path d="M2.69531 7.94379L13.4918 13.3411L24.2884 7.94379C24.2484 7.25589 23.9469 6.6093 23.4457 6.13645C22.9444 5.66359 22.2814 5.40026 21.5923 5.40039H5.39141C4.70231 5.40026 4.03924 5.66359 3.538 6.13645C3.03676 6.6093 2.73528 7.25589 2.69531 7.94379Z" fill="#696B69"/>
<path d="M24.2965 10.959L13.4959 16.359L2.69531 10.959V18.8997C2.69531 19.6158 2.97979 20.3025 3.48617 20.8089C3.99254 21.3152 4.67933 21.5997 5.39546 21.5997H21.5963C22.3124 21.5997 22.9992 21.3152 23.5056 20.8089C24.012 20.3025 24.2965 19.6158 24.2965 18.8997V10.959Z" fill="#696B69"/>
</svg>
