<svg width="84" height="77" viewBox="0 0 84 77" fill="none" xmlns="http://www.w3.org/2000/svg">
<path d="M65.805 20.6943C65.805 20.6943 57.397 17.2025 47.6621 24.78C39.7658 30.9262 29.4498 30.1077 24.7493 23.5824C23.2614 24.6039 21.1684 26.3728 18.8401 29.3321C18.3571 29.9452 17.4374 29.9763 16.9134 29.3974L16.0232 28.4142C15.599 27.9461 15.5858 27.2353 15.9942 26.7527C18.6188 23.6536 22.8921 19.4204 26.8414 17.4912C38.4935 11.7986 48.0399 13.5159 48.1537 13.5359C48.0629 13.4792 39.9346 8.43638 22.3413 17.1876C22.2321 16.2854 22.1933 15.3343 22.2321 14.3358C22.5054 7.2507 31.2891 -2.0245 43.5991 0.390335C59.8996 3.5888 65.805 20.6943 65.805 20.6943Z" fill="#705A05"/>
<path d="M75.9319 70.9923C63.0413 81.4694 46.1187 75.0584 46.1187 75.0584C46.1187 75.0584 54.1835 70.8329 54.5919 58.5037C54.924 48.5025 62.1557 41.1006 70.1779 41.6655C70.3455 39.8685 70.3254 37.1279 69.5422 33.4451C69.3806 32.6815 69.9455 31.955 70.7253 31.9231L72.0509 31.8681C72.6823 31.842 73.2365 32.2867 73.3457 32.9096C74.047 36.91 74.5642 42.9024 73.5188 47.1718C70.4341 59.7679 63.005 66.0032 62.9168 66.0774C63.0187 66.0445 72.0956 63.0269 76.6324 43.9081C77.3956 44.4018 78.151 44.9808 78.8937 45.6502C84.1621 50.3946 85.6667 63.0801 75.9319 70.9923Z" fill="#705A05"/>
<path d="M37.2778 73.1947L36.6949 74.3864C36.4165 74.9534 35.7616 75.2293 35.1622 75.0285C31.311 73.7387 25.7958 71.338 22.5406 68.3847C12.9358 59.6705 10.9942 50.1677 10.9708 50.0551C10.9512 50.16 9.27902 59.5789 23.9262 72.6771C23.1285 73.1124 22.2592 73.5013 21.3174 73.8351C14.6357 76.2065 2.7657 71.4842 0.44807 59.1559C-2.62077 42.8306 11.0795 31.0071 11.0795 31.0071C11.0795 31.0071 10.9516 40.111 21.5962 46.345C30.2311 51.4024 33.2927 61.2877 28.9733 68.0709C30.4736 69.0749 32.8923 70.3633 36.5035 71.4292C37.2522 71.6509 37.6214 72.4938 37.2778 73.1947Z" fill="#705A05"/>
</svg>
