<svg width="62" height="62" viewBox="0 0 62 62" fill="none" xmlns="http://www.w3.org/2000/svg">
<path d="M54.4832 18.0324C52.2873 15.6041 48.619 14.3899 43.2973 14.3899H42.6773V14.2866C42.6773 9.94658 42.6773 4.57324 32.964 4.57324H29.0373C19.324 4.57324 19.324 9.97241 19.324 14.2866V14.4157H18.704C13.3565 14.4157 9.714 15.6299 7.51817 18.0582C4.96067 20.8999 5.03817 24.7232 5.2965 27.3324L5.32233 27.5132L5.58067 30.2257C5.6065 30.2516 5.65817 30.3032 5.70983 30.3291C6.56233 30.8974 7.44067 31.4657 8.37067 31.9824C8.73233 32.2149 9.11983 32.4216 9.50733 32.6282C13.9248 35.0566 18.7815 36.6841 23.7157 37.4849C23.9482 39.9132 25.0073 42.7549 30.6648 42.7549C36.3223 42.7549 37.4332 39.9391 37.614 37.4332C42.884 36.5807 47.9732 34.7466 52.5715 32.0599C52.7265 31.9824 52.8298 31.9049 52.959 31.8274C54.1473 31.1557 55.2582 30.4324 56.3432 29.6316C56.3948 29.6057 56.4465 29.5541 56.4723 29.5024L56.5757 28.5724L56.7048 27.3582C56.7307 27.2032 56.7307 27.0741 56.7565 26.8932C56.9632 24.2841 56.9115 20.7191 54.4832 18.0324ZM33.8165 35.7282C33.8165 38.4666 33.8165 38.8799 30.639 38.8799C27.4615 38.8799 27.4615 38.3891 27.4615 35.7541V32.4991H33.8165V35.7282ZM23.0182 14.3899V14.2866C23.0182 9.89491 23.0182 8.26741 29.0373 8.26741H32.964C38.9832 8.26741 38.9832 9.92074 38.9832 14.2866V14.4157H23.0182V14.3899Z" fill="#8E2FD2"/>
<path opacity="0.4" d="M52.9584 31.7742C52.8292 31.8517 52.7001 31.9292 52.5709 32.0067C47.9726 34.6934 42.8834 36.5017 37.6134 37.3801C37.4067 39.8601 36.3217 42.7017 30.6642 42.7017C25.0067 42.7017 23.9217 39.8859 23.7151 37.4317C18.7809 36.6567 13.9242 35.0292 9.50675 32.5751C9.11925 32.3684 8.73174 32.1617 8.37008 31.9292C7.44008 31.4126 6.56174 30.8442 5.70924 30.2759C5.65758 30.2501 5.60591 30.1984 5.58008 30.1726L7.15591 46.9901C7.69841 52.1309 9.81674 57.4267 21.1834 57.4267H40.8684C52.2351 57.4267 54.3534 52.1309 54.8959 46.9642L56.5234 29.4492C56.4976 29.5009 56.4459 29.5526 56.3942 29.5784C55.2834 30.3792 54.1467 31.1284 52.9584 31.7742Z" fill="#8E2FD2"/>
</svg>
