<svg width="28" height="29" viewBox="0 0 28 29" fill="none" xmlns="http://www.w3.org/2000/svg">
<path d="M11.9009 6.79102C8.79162 6.79661 7.16344 6.87296 6.12291 7.91366C5 9.03675 5 10.8443 5 14.4595C5 18.0746 5 19.8823 6.12291 21.0053C7.24581 22.1285 9.05311 22.1285 12.6678 22.1285C16.2822 22.1285 18.0896 22.1285 19.2125 21.0053C20.253 19.9647 20.3293 18.3361 20.3349 15.2264" stroke="#0E7B68" stroke-width="2" stroke-linecap="round" stroke-linejoin="round"/>
<path d="M21.622 5.89147L13.5209 14.0396M21.622 5.89147C21.201 5.47002 18.3655 5.5093 17.7661 5.51783M21.622 5.89147C22.0429 6.31293 22.0036 9.15209 21.9951 9.75231" stroke="#0E7B68" stroke-width="2" stroke-linecap="round" stroke-linejoin="round"/>
</svg>
