<svg width="93" height="63" viewBox="0 0 93 63" fill="none" xmlns="http://www.w3.org/2000/svg">
<path fill-rule="evenodd" clip-rule="evenodd" d="M87.2133 44.3822V39.0168H79.5096C78.0973 39.0168 76.9417 37.8543 76.9417 36.4335V28.6835C76.9417 27.2627 78.0973 26.1002 79.5096 26.1002H82.8222L78.4311 18.376C77.5067 16.7744 75.8119 15.7668 73.963 15.7668H69.1174V33.8502L69.238 47.6624C69.9946 47.2196 70.8722 46.9656 71.8059 46.9656C74.6306 46.9656 76.9417 49.2906 76.9417 52.1322H79.5096C83.7724 52.1322 87.2133 48.6706 87.2133 44.3822Z" fill="#B91722" fill-opacity="0.4"/>
<path d="M25.1887 52.1322H66.6701C66.6701 50.2299 67.7058 48.5591 69.238 47.6624L69.1174 33.8502C69.1174 36.6918 66.9269 36.6322 64.1022 36.6322H4.68337L4.64551 44.3822C4.64551 48.6706 8.08647 52.1322 12.3492 52.1322H14.9171C14.9171 49.2906 17.2282 46.9656 20.0529 46.9656C22.8776 46.9656 25.1887 49.2906 25.1887 52.1322Z" fill="#B91722"/>
<path d="M19.9452 58.2982C23.3395 58.2982 26.081 55.5316 26.081 52.1315C26.081 48.7314 23.3395 45.9648 19.9452 45.9648C16.5508 45.9648 13.8094 48.7314 13.8094 52.1315C13.8094 55.5316 16.5508 58.2982 19.9452 58.2982Z" fill="#B91722" stroke="white" stroke-width="2"/>
<path d="M71.6983 58.2982C75.0927 58.2982 77.8341 55.5316 77.8341 52.1315C77.8341 48.7314 75.0927 45.9648 71.6983 45.9648C68.304 45.9648 65.5625 48.7314 65.5625 52.1315C65.5625 55.5316 68.304 58.2982 71.6983 58.2982Z" fill="#B91722" stroke="white" stroke-width="2"/>
<path d="M87.1027 35.2186V39.016H79.399C77.9866 39.016 76.8311 37.8535 76.8311 36.4327V28.6827C76.8311 27.2619 77.9866 26.0994 79.399 26.0994H82.7115L86.435 32.661C86.8715 33.436 87.1027 34.3144 87.1027 35.2186Z" fill="#B91722"/>
<path d="M66.5632 5.63208L14.9552 5.63227C9.94779 5.63227 5.78784 9.24894 4.88907 14.0281H17.5231C18.5759 14.0281 19.449 14.9064 19.449 15.9656C19.449 17.0248 18.5759 17.9031 17.5231 17.9031H4.68359V21.7781H12.3873C13.4401 21.7781 14.3132 22.6564 14.3132 23.7156C14.3132 24.7748 13.4401 25.6531 12.3873 25.6531H4.68359V29.5281H7.2515C8.30433 29.5281 9.17742 30.4064 9.17742 31.4656C9.17742 32.5248 8.30433 33.4031 7.2515 33.4031H4.68359V36.6323L63.9953 36.6321C66.82 36.6321 69.1311 37.8832 69.1311 35.0416V8.21541C69.1311 6.79458 67.9756 5.63208 66.5632 5.63208Z" fill="#B91722"/>
<path d="M4.89169 14.0273H2.11831C1.06547 14.0273 0.192383 14.9057 0.192383 15.9648C0.192383 17.024 1.06547 17.9023 2.11831 17.9023H4.68621V15.9648C4.68621 15.2932 4.76329 14.6473 4.89169 14.0273Z" fill="#B91722"/>
<path d="M2.11831 21.7773C1.06547 21.7773 0.192383 22.6557 0.192383 23.7148C0.192383 24.774 1.06547 25.6523 2.11831 25.6523H4.68621V21.7773H2.11831Z" fill="#B91722"/>
<path d="M2.11831 29.5273C1.06547 29.5273 0.192383 30.4057 0.192383 31.4648C0.192383 32.524 1.06547 33.4023 2.11831 33.4023H4.68621V29.5273H2.11831Z" fill="#B91722"/>
</svg>
