<svg width="27" height="27" viewBox="0 0 27 27" fill="none" xmlns="http://www.w3.org/2000/svg">
<path fill-rule="evenodd" clip-rule="evenodd" d="M21.2262 17.918L18.3685 17.5917C17.6823 17.513 17.0072 17.7492 16.5234 18.233L14.4533 20.303C11.2694 18.683 8.65928 16.0842 7.03919 12.8892L9.12055 10.808C9.60433 10.3242 9.84059 9.64922 9.76183 8.96297L9.43557 6.12797C9.30056 4.99172 8.34426 4.13672 7.1967 4.13672H5.25035C3.97903 4.13672 2.92147 5.19422 3.00023 6.46547C3.59651 16.073 11.2807 23.7455 20.8774 24.3417C22.1487 24.4205 23.2063 23.363 23.2063 22.0917V20.1455C23.2175 19.0092 22.3625 18.053 21.2262 17.918Z" fill="#696B69"/>
</svg>
