<svg width="59" height="59" viewBox="0 0 59 59" fill="none" xmlns="http://www.w3.org/2000/svg">
<g opacity="0.16">
<path d="M41.4904 45.9153C38.6214 45.9153 36.1704 44.7973 34.1364 42.5633C33.1694 41.5283 32.4034 40.2693 31.8344 38.7863C31.2684 37.3023 30.9844 35.8093 30.9844 34.3083C30.9844 31.1393 32.0174 27.9303 34.0864 24.6783C36.1544 21.4263 38.9224 18.6663 42.3914 16.3993C45.3264 14.4643 47.6274 13.4973 49.2944 13.4973C49.9614 13.4973 50.5124 13.6973 50.9454 14.0983C51.3794 14.4983 51.5954 15.0333 51.5954 15.6993C51.5954 16.7003 50.9614 17.5343 49.6934 18.2013C46.6604 19.7693 44.4414 21.3203 43.0414 22.8533C41.7074 24.2873 41.0394 25.3373 41.0394 26.0043C41.0394 26.6383 41.5394 27.0223 42.5404 27.1553L43.1904 27.2553L43.9414 27.3053C46.1094 27.6393 47.8684 28.6483 49.2184 30.3313C50.5684 32.0143 51.2434 34.0593 51.2434 36.4603C51.2434 38.9273 50.4114 41.0623 48.7434 42.8633C46.8424 44.8973 44.4254 45.9153 41.4904 45.9153Z" fill="#0E7B68"/>
<path d="M17.5266 45.9153C14.6576 45.9153 12.2065 44.7973 10.1725 42.5633C9.20555 41.5283 8.43854 40.2693 7.86954 38.7863C7.30354 37.3023 7.01953 35.8093 7.01953 34.3083C7.01953 31.1393 8.05255 27.9303 10.1216 24.6783C12.1896 21.4263 14.9575 18.6663 18.4265 16.3993C21.3625 14.4643 23.6625 13.4973 25.3305 13.4973C25.9965 13.4973 26.5475 13.6973 26.9805 14.0983C27.4145 14.4983 27.6305 15.0333 27.6305 15.6993C27.6305 16.7003 26.9975 17.5343 25.7285 18.2013C22.6955 19.7693 20.4765 21.3203 19.0765 22.8533C17.7425 24.2873 17.0745 25.3373 17.0745 26.0043C17.0745 26.6383 17.5745 27.0223 18.5765 27.1553L19.2265 27.2553L19.9765 27.3053C22.1445 27.6393 23.9045 28.6483 25.2535 30.3313C26.6055 32.0153 27.2785 34.0593 27.2785 36.4603C27.2785 38.9273 26.4465 41.0623 24.7785 42.8633C22.8785 44.8973 20.4626 45.9153 17.5266 45.9153Z" fill="#0E7B68"/>
</g>
</svg>
