<svg width="52" height="52" viewBox="0 0 52 52" fill="none" xmlns="http://www.w3.org/2000/svg">
<path d="M28.7245 37.9025C27.9937 38.6062 27.017 38.9997 26.0006 38.9997C24.984 38.9997 24.0073 38.6062 23.2764 37.9025C16.5845 31.4181 7.61641 24.1743 11.9899 13.6578C14.3545 7.97153 20.0309 4.33301 26.0006 4.33301C31.9702 4.33301 37.6464 7.97156 40.0111 13.6578C44.3791 24.161 35.433 31.4404 28.7245 37.9025Z" fill="#9FCAC3" stroke="#0E7B68" stroke-width="1.5"/>
<path d="M15.1665 39C11.2038 39.892 8.6665 41.2627 8.6665 42.7997C8.6665 45.4877 16.4269 47.6667 25.9998 47.6667C35.5728 47.6667 43.3332 45.4877 43.3332 42.7997C43.3332 41.2627 40.7958 39.892 36.8332 39" stroke="#0E7B68" stroke-width="1.5" stroke-linecap="round"/>
<path d="M31.4168 19.4997C31.4168 22.4912 28.9917 24.9163 26.0002 24.9163C23.0086 24.9163 20.5835 22.4912 20.5835 19.4997C20.5835 16.5081 23.0086 14.083 26.0002 14.083C28.9917 14.083 31.4168 16.5081 31.4168 19.4997Z" fill="#0E7B68"/>
</svg>
