<svg width="60" height="60" viewBox="0 0 60 60" fill="none" xmlns="http://www.w3.org/2000/svg">
<rect x="0.5" y="0.5" width="59" height="59" rx="29.5" stroke="#201A2D" stroke-opacity="0.1"/>
<path d="M24.9414 23.001C24.9411 23.5314 24.7302 24.04 24.3549 24.4149C23.9797 24.7898 23.4708 25.0003 22.9404 25C22.41 24.9997 21.9014 24.7888 21.5265 24.4135C21.1516 24.0382 20.9411 23.5294 20.9414 22.999C20.9417 22.4686 21.1526 21.96 21.5279 21.5851C21.9032 21.2102 22.412 20.9997 22.9424 21C23.4728 21.0003 23.9814 21.2112 24.3563 21.5865C24.7312 21.9618 24.9417 22.4706 24.9414 23.001ZM25.0014 26.481H21.0014V39.001H25.0014V26.481ZM31.3214 26.481H27.3414V39.001H31.2814V32.431C31.2814 28.771 36.0514 28.431 36.0514 32.431V39.001H40.0014V31.071C40.0014 24.901 32.9414 25.131 31.2814 28.161L31.3214 26.481Z" fill="#201A2D"/>
</svg>
