<svg width="60" height="60" viewBox="0 0 60 60" fill="none" xmlns="http://www.w3.org/2000/svg">
<rect x="0.5" y="0.5" width="59" height="59" rx="29.5" stroke="#201A2D" stroke-opacity="0.1"/>
<path d="M40.1642 23.655C39.4009 23.9926 38.5912 24.2144 37.7622 24.313C38.6359 23.7904 39.2899 22.968 39.6022 21.999C38.7822 22.487 37.8832 22.829 36.9462 23.014C36.3168 22.3405 35.4827 21.8939 34.5733 21.7435C33.6638 21.5932 32.7302 21.7474 31.9176 22.1824C31.1048 22.6174 30.4587 23.3086 30.0794 24.1487C29.7001 24.9889 29.609 25.9307 29.8203 26.828C28.1574 26.7446 26.5306 26.3125 25.0455 25.5596C23.5605 24.8068 22.2504 23.75 21.2002 22.458C20.8285 23.0964 20.6332 23.8222 20.6342 24.561C20.6342 26.011 21.3723 27.292 22.4943 28.0419C21.8303 28.021 21.1809 27.8417 20.6003 27.519V27.571C20.6004 28.5366 20.9346 29.4725 21.5461 30.22C22.1576 30.9674 23.0087 31.4804 23.9552 31.6719C23.3389 31.839 22.6926 31.8636 22.0653 31.7439C22.3321 32.5752 22.8523 33.3021 23.5528 33.823C24.2534 34.3439 25.0994 34.6327 25.9722 34.6489C25.1047 35.3303 24.1114 35.8339 23.0491 36.1311C21.9868 36.4283 20.8764 36.5132 19.7812 36.3809C21.6929 37.6104 23.9183 38.263 26.1912 38.2609C33.8842 38.2609 38.0912 31.8879 38.0912 26.361C38.0912 26.181 38.0862 25.999 38.0782 25.821C38.8971 25.2291 39.6038 24.496 40.1652 23.656L40.1642 23.655Z" fill="#201A2D"/>
</svg>
