<svg width="60" height="60" viewBox="0 0 60 60" fill="none" xmlns="http://www.w3.org/2000/svg">
<rect x="0.5" y="0.5" width="59" height="59" rx="29.5" stroke="#201A2D" stroke-opacity="0.1"/>
<path d="M39.543 24.498C40 26.28 40 30 40 30C40 30 40 33.72 39.543 35.502C39.289 36.487 38.546 37.262 37.605 37.524C35.896 38 30 38 30 38C30 38 24.107 38 22.395 37.524C21.45 37.258 20.708 36.484 20.457 35.502C20 33.72 20 30 20 30C20 30 20 26.28 20.457 24.498C20.711 23.513 21.454 22.738 22.395 22.476C24.107 22 30 22 30 22C30 22 35.896 22 37.605 22.476C38.55 22.742 39.292 23.516 39.543 24.498ZM28 33.5L34 30L28 26.5V33.5Z" fill="#201A2D"/>
</svg>
