<svg width="22" height="22" viewBox="0 0 22 22" fill="none" xmlns="http://www.w3.org/2000/svg">
<path d="M19.25 5.95703C19.25 7.47581 18.0188 8.70703 16.5 8.70703C14.9812 8.70703 13.75 7.47581 13.75 5.95703C13.75 4.43825 14.9812 3.20703 16.5 3.20703C18.0188 3.20703 19.25 4.43825 19.25 5.95703Z" stroke="white" stroke-width="1.5"/>
<path d="M8.25 11C8.25 12.5188 7.01878 13.75 5.5 13.75C3.98122 13.75 2.75 12.5188 2.75 11C2.75 9.48117 3.98122 8.25 5.5 8.25C7.01878 8.25 8.25 9.48117 8.25 11Z" stroke="white" stroke-width="1.5"/>
<path d="M19.25 16.043C19.25 17.5618 18.0188 18.793 16.5 18.793C14.9812 18.793 13.75 17.5618 13.75 16.043C13.75 14.5241 14.9812 13.293 16.5 13.293C18.0188 13.293 19.25 14.5241 19.25 16.043Z" stroke="white" stroke-width="1.5"/>
<path d="M8.00098 9.85501L13.9593 7.10547M8.00098 12.1471L13.9593 14.8967" stroke="white" stroke-width="1.5"/>
</svg>
