<svg width="52" height="53" viewBox="0 0 52 53" fill="none" xmlns="http://www.w3.org/2000/svg">
<path d="M42.2846 38.7407C46.142 34.8835 46.529 28.8698 43.4453 24.58L38.6895 29.3358L38.2412 29.7841C33.954 34.0715 27.0029 34.0715 22.7157 29.7841C22.2916 29.3601 21.9095 28.9099 21.5693 28.4389L20.5489 29.4253C16.2617 33.7125 16.2617 40.6636 20.5489 44.9508C24.8362 49.2382 31.7873 49.2382 36.0745 44.9508L42.2846 38.7407Z" fill="#9FCAC3"/>
<path d="M26.3109 23.6635L26.7591 23.2152C31.0463 18.9279 37.9974 18.9279 42.2846 23.2152C46.572 27.5024 46.572 34.4535 42.2846 38.7407M42.2846 38.7407L36.0745 44.9508C31.7873 49.2382 24.8362 49.2382 20.5489 44.9508C16.2617 40.6636 16.2617 33.7125 20.5489 29.4253L21.5693 28.4389C21.9095 28.9099 22.2916 29.3601 22.7157 29.7841M42.2846 38.7407C46.142 34.8835 46.529 28.8698 43.4453 24.58M43.4453 24.58L44.4513 23.574C48.7387 19.2867 48.7387 12.3357 44.4513 8.04844C40.1641 3.7612 33.213 3.7612 28.9258 8.04844L22.7157 14.2587C18.4284 18.5459 18.4284 25.4969 22.7157 29.7841M43.4453 24.58L38.6895 29.3358L38.2412 29.7841C33.954 34.0715 27.0029 34.0715 22.7157 29.7841" stroke="#0E7B68" stroke-width="2" stroke-linecap="round"/>
<path d="M9.75016 9.16699L13.0002 13.5003M4.3335 17.8337L10.8335 20.0003M6.50016 29.7503L10.8335 26.5003" stroke="#0E7B68" stroke-width="2" stroke-linecap="round" stroke-linejoin="round"/>
</svg>
