<svg width="52" height="52" viewBox="0 0 52 52" fill="none" xmlns="http://www.w3.org/2000/svg">
<path d="M20.3165 13.4245L19.5112 11.6125C18.9846 10.4278 18.7214 9.83536 18.3276 9.38202C17.8342 8.81388 17.1909 8.39588 16.4714 8.1757C15.8972 8 15.2489 8 13.9524 8C12.0558 8 11.1075 8 10.3115 8.36458C9.37373 8.79404 8.52687 9.72656 8.18945 10.7012C7.90301 11.5286 7.98507 12.3789 8.14915 14.0794C9.89581 32.1804 19.8196 42.1042 37.9205 43.8508C39.6211 44.015 40.4715 44.097 41.2987 43.8106C42.2735 43.4732 43.2059 42.6262 43.6355 41.6886C43.9999 40.8924 43.9999 39.9442 43.9999 38.0476C43.9999 36.751 43.9999 36.1028 43.8243 35.5286C43.6041 34.809 43.1861 34.1658 42.6179 33.6724C42.1647 33.2786 41.5723 33.0154 40.3875 32.4888L38.5755 31.6834C37.2925 31.1132 36.6509 30.8282 35.9991 30.7662C35.3751 30.7068 34.7461 30.7944 34.1621 31.0218C33.5519 31.2594 33.0127 31.7088 31.9339 32.6076C30.8603 33.5024 30.3235 33.9498 29.6675 34.1894C29.0859 34.4018 28.3171 34.4806 27.7047 34.3902C27.0137 34.2884 26.4847 34.0058 25.4265 33.4402C22.1345 31.681 20.3191 29.8656 18.5597 26.5734C17.9943 25.5154 17.7116 24.9862 17.6097 24.2954C17.5195 23.6828 17.5982 22.914 17.8106 22.3326C18.0502 21.6766 18.4976 21.1397 19.3924 20.066C20.2912 18.9874 20.7407 18.448 20.9783 17.8378C21.2057 17.2539 21.2932 16.6248 21.2339 16.001C21.1719 15.349 20.8868 14.7075 20.3165 13.4245Z" fill="#9FCAC3" stroke="#0E7B68" stroke-width="2" stroke-linecap="round"/>
</svg>
