<svg width="64" height="64" viewBox="0 0 64 64" fill="none" xmlns="http://www.w3.org/2000/svg">
<path d="M43.2523 32.9066C42.394 32.0064 41.4552 31.1905 40.4359 30.4873C43.601 27.871 45.6127 23.8201 45.6127 19.2909C45.6127 11.414 39.5239 5 31.9866 5C24.4493 5 18.3604 11.414 18.3604 19.2909C18.3604 23.8201 20.3722 27.871 23.5373 30.4873C23.2959 30.656 23.0277 30.853 22.7594 31.0499C18.5214 34.1444 16 39.2643 16 44.7219V55.1868C16 56.7622 17.207 58 18.6823 58H45.3177C46.793 58 48 56.7622 48 55.1868V44.7219C48 40.1364 46.2028 36.0292 43.2523 32.9066ZM35.3395 44.6093C35.3395 44.8907 35.2322 45.172 35.0176 45.397L32.684 47.9007C32.3085 48.3227 31.6915 48.3227 31.2892 47.9007L28.9556 45.397C28.7678 45.172 28.6605 44.8907 28.6605 44.6093V33.1316C29.7334 33.4411 30.8332 33.5817 31.9866 33.5817C33.14 33.5817 34.2666 33.4411 35.3395 33.1316V44.6093Z" fill="white"/>
<path d="M35.3395 44.6093C35.3395 44.8907 35.2322 45.172 35.0176 45.397L32.684 47.9007C32.3085 48.3227 31.6915 48.3227 31.2892 47.9007L28.9556 45.397C28.7678 45.172 28.6605 44.8907 28.6605 44.6093V33.1316C29.7334 33.4411 30.8332 33.5817 31.9866 33.5817C33.14 33.5817 34.2666 33.4411 35.3395 33.1316V44.6093Z" fill="white" fill-opacity="0.4"/>
</svg>
