<svg width="62" height="62" viewBox="0 0 62 62" fill="none" xmlns="http://www.w3.org/2000/svg">
<path opacity="0.4" d="M41.7741 25.9891H20.229C17.1807 25.9891 16.1216 23.9483 17.9041 21.4683L28.6766 6.38164C29.9424 4.57331 32.0607 4.57331 33.3266 6.38164L44.0991 21.4683C45.8816 23.9483 44.8224 25.9891 41.7741 25.9891Z" fill="white"/>
<path d="M45.4383 46.5002H16.5567C12.475 46.5002 11.08 43.7877 13.4825 40.481L23.79 25.9885H38.205L48.5125 40.481C50.915 43.7877 49.52 46.5002 45.4383 46.5002Z" fill="white"/>
<path d="M32.9375 46.5V56.8333C32.9375 57.8925 32.0592 58.7708 31 58.7708C29.9408 58.7708 29.0625 57.8925 29.0625 56.8333V46.5H32.9375Z" fill="white"/>
</svg>
