<svg width="52" height="53" viewBox="0 0 52 53" fill="none" xmlns="http://www.w3.org/2000/svg">
<path d="M19.3117 21.9864L5.13559 14.1847C4.51621 16.3367 4.45557 19.18 4.36764 23.3025C4.3221 25.4382 4.32212 27.5611 4.36766 29.6968C4.5093 36.3389 4.58013 39.6598 7.03091 42.12C9.48167 44.5801 12.8925 44.6657 19.7143 44.837C23.9186 44.9428 28.0817 44.9428 32.2861 44.837C39.1078 44.6657 42.5186 44.5801 44.9695 42.12C47.4203 39.6598 47.4911 36.3389 47.6326 29.6968C47.6783 27.5611 47.6783 25.4382 47.6326 23.3025C47.5448 19.1799 47.4842 16.3367 46.8648 14.1846L32.6887 21.9864C27.1667 25.1152 24.8336 25.1152 19.3117 21.9864Z" fill="#0E7B68"/>
<path d="M19.3117 21.9864C24.8336 25.1152 27.1667 25.1152 32.6887 21.9864L46.8648 14.1846C46.4863 12.8695 45.8991 11.8126 44.9695 10.8794C42.5186 8.41934 39.1078 8.33365 32.2861 8.16225C28.0817 8.0566 23.9186 8.0566 19.7143 8.16222C12.8925 8.33361 9.48167 8.4193 7.03089 10.8794C6.10129 11.8126 5.5141 12.8696 5.13559 14.1847L19.3117 21.9864Z" fill="#0E7B68" fill-opacity="0.4"/>
<path d="M4.87516 14.0413L5.13559 14.1847M47.1252 14.0413L46.8648 14.1846M5.13559 14.1847L19.3117 21.9864C24.8336 25.1152 27.1667 25.1152 32.6887 21.9864L46.8648 14.1846M5.13559 14.1847C4.51621 16.3367 4.45557 19.18 4.36764 23.3025C4.3221 25.4382 4.32212 27.5611 4.36766 29.6968C4.5093 36.3389 4.58013 39.6598 7.03091 42.12C9.48167 44.5801 12.8925 44.6657 19.7143 44.837C23.9186 44.9428 28.0817 44.9428 32.2861 44.837C39.1078 44.6657 42.5186 44.5801 44.9695 42.12C47.4203 39.6598 47.4911 36.3389 47.6326 29.6968C47.6783 27.5611 47.6783 25.4382 47.6326 23.3025C47.5448 19.1799 47.4842 16.3367 46.8648 14.1846M5.13559 14.1847C5.5141 12.8696 6.10129 11.8126 7.03089 10.8794C9.48167 8.4193 12.8925 8.33361 19.7143 8.16222C23.9186 8.0566 28.0817 8.0566 32.2861 8.16225C39.1078 8.33365 42.5186 8.41934 44.9695 10.8794C45.8991 11.8126 46.4863 12.8695 46.8648 14.1846" stroke="#0E7B68" stroke-width="1.5" stroke-linejoin="round"/>
</svg>
