<svg width="64" height="64" viewBox="0 0 64 64" fill="none" xmlns="http://www.w3.org/2000/svg">
<path d="M25.0981 21.211C25.0981 21.7154 25.2952 22.1656 25.6566 22.5212C26.503 23.3812 27.4925 23.7966 28.6752 23.7966C31.5701 23.7966 35.0773 21.1143 37.1453 18.6367C37.1646 18.6019 37.1994 18.5633 37.2187 18.5478C37.9762 17.5932 38.4941 16.8549 38.6236 16.6772C38.6236 16.6579 38.6429 16.6579 38.6429 16.6424C38.7318 16.5129 38.84 16.4105 38.9695 16.3564C39.1666 16.2482 39.4005 16.2327 39.6169 16.3023C39.6903 16.3216 39.7599 16.3564 39.8353 16.3912C39.8353 16.3912 39.8546 16.3912 39.8701 16.4105C40.1561 16.5883 42.62 18.028 45.1185 17.3806C46.6626 16.9844 47.9574 15.8327 48.968 13.9813C49.1864 13.5504 49.7043 13.4074 50.1353 13.62C50.545 13.8519 50.7093 14.3775 50.4773 14.7872C49.2348 17.0869 47.5631 18.5266 45.5359 19.0464C44.9233 19.2088 44.3339 19.2648 43.7754 19.2648C42.0149 19.2648 40.4651 18.6522 39.6206 18.2406C39.4583 18.4725 39.2437 18.7604 38.9925 19.087L52.6572 32.7516C55.123 30.1254 56.4738 26.7126 56.4738 23.0947C56.4738 19.3341 55.0187 15.7917 52.3576 13.1365C49.6966 10.4755 46.1543 9.00098 42.3994 9.00098C38.6253 9.00098 35.083 10.4755 32.42 13.1365L32.1339 13.4225L25.6581 19.9137C25.2967 20.2558 25.0977 20.7254 25.0977 21.2105L25.0981 21.211Z" fill="white"/>
<path d="M17.4413 35.7017C17.4413 35.3403 17.3177 35.0195 17.0645 34.7663L14.8537 32.5555C14.6005 32.3236 14.2797 32.1787 13.9184 32.1787C13.5763 32.1787 13.2362 32.3217 13.0024 32.5555L10.9191 34.6388L9.86015 35.7016C9.61859 35.9354 9.47559 36.2756 9.47559 36.6176C9.47559 36.979 9.61859 37.2998 9.85242 37.553L12.0632 39.7638C12.5676 40.2488 13.4295 40.2488 13.9339 39.7638L17.1147 36.5829C17.3312 36.3297 17.4413 36.0244 17.4413 35.7017Z" fill="white"/>
<path d="M24.5542 39.6939C25.0741 39.1895 25.0741 38.3431 24.5542 37.8445L22.3434 35.6337C22.1115 35.3805 21.7695 35.2568 21.4274 35.2568C21.066 35.2568 20.7453 35.3805 20.4921 35.6337L18.2813 37.8445L15.1545 40.9906C14.6347 41.495 14.6347 42.3414 15.1545 42.84L17.346 45.0508C17.8504 45.5552 18.7123 45.5552 19.2166 45.0508L22.3434 41.924L24.5542 39.6939Z" fill="white"/>
<path d="M27.6359 47.2092C27.889 46.9561 28.032 46.6353 28.032 46.2739C28.032 45.9126 27.889 45.5918 27.6359 45.3386L25.4251 43.1278C25.1932 42.8959 24.8511 42.751 24.509 42.751C24.167 42.751 23.8616 42.8747 23.6085 43.093C23.5892 43.1124 23.5892 43.1124 23.5737 43.1278L20.4469 46.2739C20.1938 46.5058 20.0508 46.8479 20.0508 47.19C20.0508 47.5513 20.1938 47.8721 20.4469 48.1253L22.6384 50.3361C23.1428 50.8404 24.0047 50.8404 24.509 50.3361L27.6359 47.2092Z" fill="white"/>
<path d="M29.3173 49.8151C29.0641 49.5619 28.7433 49.4189 28.382 49.4189C28.0399 49.4189 27.6998 49.5619 27.4621 49.8151L25.7209 51.5621C25.2011 52.0664 25.2011 52.9129 25.7209 53.4115L27.9124 55.6223C28.4168 56.1266 29.2787 56.1266 29.783 55.6223L31.5281 53.8772C32.0324 53.3729 32.0324 52.5264 31.5281 52.0278L29.3173 49.8151Z" fill="white"/>
<path d="M52.0476 34.5867L37.865 20.4175C35.8862 22.5742 32.2549 25.523 28.6781 25.523C27.0452 25.523 25.6209 24.9297 24.4382 23.7412C23.7561 23.059 23.3947 22.1585 23.3947 21.2077C23.3947 20.253 23.756 19.3583 24.4382 18.6897L30.2665 12.8668C24.7395 8.11867 16.3253 8.35253 11.1095 13.5664C5.87638 18.7996 5.64436 27.2098 10.3887 32.7308L11.7743 31.3452C12.3483 30.7713 13.1058 30.4447 13.9117 30.4447C14.7388 30.4447 15.4944 30.7655 16.0683 31.3452L18.2791 33.5367C18.6212 33.8787 18.8531 34.2536 18.9826 34.6884L19.2686 34.4024C19.8425 33.8285 20.6194 33.5212 21.4253 33.5212C22.2369 33.5212 22.9887 33.8285 23.5626 34.4024L25.7734 36.6132C26.9599 37.7998 26.9599 39.7246 25.7734 40.913L25.4874 41.199C25.9183 41.342 26.3145 41.5952 26.6353 41.9218L28.8461 44.1132C29.8509 45.122 30.0133 46.6854 29.277 47.8526C29.7428 47.9763 30.1776 48.2295 30.5332 48.5889L32.7594 50.8036C33.7836 51.8278 33.9266 53.3912 33.1903 54.5777C33.5672 54.5429 33.9479 54.3593 34.2339 54.0734L35.7432 52.5641C36.3172 51.9901 36.4466 51.0896 36.0292 50.3881C36.0099 50.3688 36.0099 50.3533 35.9944 50.334C35.9596 50.2799 35.921 50.2258 35.8649 50.1717C35.8302 50.0982 35.7915 50.0634 35.7413 50.0093L30.8888 45.1568C30.568 44.8148 30.568 44.2756 30.8888 43.9355C31.2308 43.6147 31.7893 43.6147 32.1101 43.9355L38.348 50.1734C39.0302 50.8555 40.2187 50.8555 40.9009 50.1734L42.4102 48.6641C43.1136 47.9607 43.1136 46.8147 42.4102 46.1112L36.1935 39.8694C35.8515 39.5273 35.8515 38.9882 36.1935 38.648C36.5143 38.3272 37.0747 38.3272 37.3955 38.648L45.4154 46.6679C46.1189 47.3906 47.2648 47.3713 47.9683 46.6679L49.4776 45.1586C50.2003 44.4552 50.2003 43.3092 49.4969 42.6058L41.477 34.5859C41.135 34.2438 41.135 33.7047 41.477 33.3645C41.8036 33.0437 42.3582 33.0437 42.679 33.3645L49.2593 39.9448C49.6013 40.2868 50.0709 40.4646 50.5347 40.4646C51.0043 40.4646 51.47 40.2868 51.8102 39.9448L53.3194 38.4355C53.6615 38.0934 53.8586 37.6296 53.8393 37.16C53.8393 36.675 53.6615 36.2054 53.3194 35.8846L52.0476 34.5867Z" fill="white" fill-opacity="0.4"/>
</svg>
