<svg width="64" height="64" viewBox="0 0 64 64" fill="none" xmlns="http://www.w3.org/2000/svg">
<path d="M25.0981 21.21C25.0981 21.7144 25.2952 22.1647 25.6566 22.5202C26.503 23.3802 27.4925 23.7957 28.6752 23.7957C31.5701 23.7957 35.0773 21.1133 37.1453 18.6357C37.1646 18.601 37.1994 18.5623 37.2187 18.5468C37.9762 17.5922 38.4941 16.854 38.6236 16.6762C38.6236 16.6569 38.6429 16.6569 38.6429 16.6414C38.7318 16.512 38.84 16.4095 38.9695 16.3554C39.1666 16.2472 39.4005 16.2317 39.6169 16.3013C39.6903 16.3206 39.7599 16.3554 39.8353 16.3902C39.8353 16.3902 39.8546 16.3902 39.8701 16.4095C40.1561 16.5873 42.62 18.027 45.1185 17.3796C46.6626 16.9835 47.9574 15.8317 48.968 13.9804C49.1864 13.5494 49.7043 13.4064 50.1353 13.619C50.545 13.8509 50.7093 14.3765 50.4773 14.7862C49.2348 17.0859 47.5631 18.5256 45.5359 19.0455C44.9233 19.2078 44.3339 19.2638 43.7754 19.2638C42.0149 19.2638 40.4651 18.6512 39.6206 18.2396C39.4583 18.4715 39.2437 18.7595 38.9925 19.086L52.6572 32.7507C55.123 30.1244 56.4738 26.7116 56.4738 23.0937C56.4738 19.3331 55.0187 15.7907 52.3576 13.1356C49.6966 10.4745 46.1543 9 42.3994 9C38.6253 9 35.083 10.4745 32.42 13.1356L32.1339 13.4216L25.6581 19.9128C25.2967 20.2548 25.0977 20.7244 25.0977 21.2095L25.0981 21.21Z" fill="#FF613F"/>
<path d="M17.4423 35.7007C17.4423 35.3393 17.3186 35.0185 17.0655 34.7654L14.8547 32.5546C14.6015 32.3227 14.2807 32.1777 13.9194 32.1777C13.5773 32.1777 13.2372 32.3207 13.0033 32.5546L10.9201 34.6378L9.86113 35.7006C9.61957 35.9345 9.47656 36.2746 9.47656 36.6167C9.47656 36.978 9.61957 37.2988 9.8534 37.552L12.0642 39.7628C12.5686 40.2478 13.4305 40.2478 13.9348 39.7628L17.1157 36.5819C17.3322 36.3287 17.4423 36.0234 17.4423 35.7007Z" fill="#FF613F"/>
<path d="M24.5552 39.6929C25.0751 39.1885 25.0751 38.3421 24.5552 37.8435L22.3444 35.6327C22.1125 35.3795 21.7704 35.2559 21.4284 35.2559C21.067 35.2559 20.7462 35.3795 20.4931 35.6327L18.2823 37.8435L15.1555 40.9896C14.6357 41.494 14.6357 42.3404 15.1555 42.839L17.347 45.0498C17.8513 45.5542 18.7132 45.5542 19.2176 45.0498L22.3444 41.923L24.5552 39.6929Z" fill="#FF613F"/>
<path d="M27.6359 47.2083C27.889 46.9551 28.032 46.6343 28.032 46.273C28.032 45.9116 27.889 45.5908 27.6359 45.3376L25.4251 43.1268C25.1932 42.8949 24.8511 42.75 24.509 42.75C24.167 42.75 23.8616 42.8737 23.6085 43.0921C23.5892 43.1114 23.5892 43.1114 23.5737 43.1268L20.4469 46.273C20.1938 46.5049 20.0508 46.8469 20.0508 47.189C20.0508 47.5504 20.1938 47.8711 20.4469 48.1243L22.6384 50.3351C23.1428 50.8395 24.0047 50.8395 24.509 50.3351L27.6359 47.2083Z" fill="#FF613F"/>
<path d="M29.3183 49.8141C29.0651 49.561 28.7443 49.418 28.383 49.418C28.0409 49.418 27.7008 49.561 27.4631 49.8141L25.7219 51.5611C25.2021 52.0654 25.2021 52.9119 25.7219 53.4105L27.9134 55.6213C28.4177 56.1257 29.2796 56.1257 29.784 55.6213L31.529 53.8763C32.0334 53.3719 32.0334 52.5254 31.529 52.0269L29.3183 49.8141Z" fill="#FF613F"/>
<path d="M52.0486 34.5867L37.866 20.4175C35.8871 22.5742 32.2559 25.523 28.6791 25.523C27.0461 25.523 25.6219 24.9297 24.4392 23.7412C23.757 23.059 23.3956 22.1585 23.3956 21.2077C23.3956 20.253 23.757 19.3583 24.4392 18.6897L30.2675 12.8668C24.7405 8.11867 16.3263 8.35253 11.1105 13.5664C5.87736 18.7996 5.64533 27.2098 10.3897 32.7308L11.7753 31.3452C12.3493 30.7713 13.1068 30.4447 13.9126 30.4447C14.7397 30.4447 15.4953 30.7655 16.0693 31.3452L18.2801 33.5367C18.6222 33.8787 18.8541 34.2536 18.9835 34.6884L19.2696 34.4024C19.8435 33.8285 20.6204 33.5212 21.4262 33.5212C22.2379 33.5212 22.9896 33.8285 23.5636 34.4024L25.7744 36.6132C26.9609 37.7998 26.9609 39.7246 25.7744 40.913L25.4884 41.199C25.9193 41.342 26.3155 41.5952 26.6363 41.9218L28.8471 44.1132C29.8519 45.122 30.0143 46.6854 29.278 47.8526C29.7437 47.9763 30.1785 48.2295 30.5341 48.5889L32.7604 50.8036C33.7846 51.8278 33.9276 53.3912 33.1913 54.5777C33.5682 54.5429 33.9488 54.3593 34.2349 54.0734L35.7442 52.5641C36.3181 51.9901 36.4476 51.0896 36.0302 50.3881C36.0109 50.3688 36.0109 50.3533 35.9954 50.334C35.9606 50.2799 35.922 50.2258 35.8659 50.1717C35.8311 50.0982 35.7925 50.0634 35.7422 50.0093L30.8897 45.1568C30.5689 44.8148 30.5689 44.2756 30.8897 43.9355C31.2318 43.6147 31.7903 43.6147 32.1111 43.9355L38.349 50.1734C39.0312 50.8555 40.2196 50.8555 40.9019 50.1734L42.4111 48.6641C43.1146 47.9607 43.1146 46.8147 42.4111 46.1112L36.1945 39.8694C35.8525 39.5273 35.8525 38.9882 36.1945 38.648C36.5153 38.3272 37.0757 38.3272 37.3965 38.648L45.4164 46.6679C46.1199 47.3906 47.2658 47.3713 47.9693 46.6679L49.4785 45.1586C50.2013 44.4552 50.2013 43.3092 49.4979 42.6058L41.478 34.5859C41.1359 34.2438 41.1359 33.7047 41.478 33.3645C41.8046 33.0437 42.3592 33.0437 42.68 33.3645L49.2603 39.9448C49.6023 40.2868 50.0719 40.4646 50.5357 40.4646C51.0053 40.4646 51.471 40.2868 51.8111 39.9448L53.3204 38.4355C53.6625 38.0934 53.8596 37.6296 53.8403 37.16C53.8403 36.675 53.6625 36.2054 53.3204 35.8846L52.0486 34.5867Z" fill="#FF613F" fill-opacity="0.4"/>
</svg>
