<svg width="75" height="98" viewBox="0 0 75 98" fill="none" xmlns="http://www.w3.org/2000/svg">
<path d="M56.7581 9.65234L14.1375 88.6716C13.4889 89.8742 13.9398 91.3756 15.1424 92.0245L18.2544 93.703C19.4571 94.3516 20.9576 93.9027 21.6062 92.7L64.2266 13.6808L56.7581 9.65234Z" fill="#515151"/>
<path d="M56.7589 9.65234L15.3395 86.4445L17.8252 87.7852C19.0279 88.4338 20.5284 87.9849 21.177 86.7823L61.4219 12.1676L56.7589 9.65234Z" fill="#666666"/>
<path d="M44.3919 5.88568L40.2087 13.6415C39.7667 14.4611 40.0726 15.4841 40.8943 15.9273L47.6428 19.5673L48.157 21.8224L58.7873 27.5559L60.9542 26.7469L67.7048 30.3878C68.5244 30.8298 69.5474 30.5238 69.9894 29.7042L74.1726 21.9484C74.6146 21.1288 74.3087 20.1058 73.489 19.6638L66.7388 16.0227L66.2246 13.7675L55.5943 8.03397L53.4273 8.84298L46.6788 5.203C45.8569 4.76011 44.8339 5.06607 44.3919 5.88568Z" fill="#AEAEAE"/>
<path d="M44.3919 5.88568L42.2745 9.81156C41.8325 10.6312 42.1384 11.6542 42.96 12.0974L49.7086 15.7373L50.2228 17.9925L60.8531 23.726L63.02 22.917L69.7706 26.5579C70.5902 26.9999 71.6132 26.6939 72.0552 25.8743L74.1726 21.9484C74.6146 21.1288 74.3087 20.1058 73.489 19.6638L66.7388 16.0227L66.2246 13.7675L55.5943 8.03397L53.4273 8.84298L46.6788 5.203C45.8569 4.76011 44.8339 5.06607 44.3919 5.88568Z" fill="#D6D6D6"/>
<path d="M44.3921 5.88568L43.3591 7.80078C43.8011 6.98117 44.8241 6.67521 45.6458 7.11811L52.3943 10.7581L54.5612 9.94907L65.1915 15.6826L65.7057 17.9378L72.4563 21.5789C73.2759 22.0209 73.5821 23.0439 73.1398 23.8635L74.1726 21.9484C74.6146 21.1288 74.3086 20.1058 73.489 19.6638L66.7388 16.0227L66.2245 13.7675L55.5942 8.03397L53.4273 8.84298L46.6788 5.203C45.8572 4.76011 44.8342 5.06607 44.3921 5.88568Z" fill="#E0E0E0"/>
<g opacity="0.3">
<path d="M40.6436 12.8354L40.2087 13.6416C39.7667 14.4612 40.0726 15.4842 40.8943 15.9274L47.6428 19.5674L48.157 21.8225L58.7873 27.5561L60.9542 26.7471L67.7048 30.3879C68.5244 30.8299 69.5474 30.524 69.9894 29.7044L74.1726 21.9486C74.6146 21.129 74.3087 20.1059 73.489 19.6639L71.8825 18.7973C70.9156 22.0657 68.5135 27.8574 66.5165 27.7744C63.9307 26.8072 60.8534 23.7262 58.759 24.8732C57.5644 25.5272 56.203 23.9247 54.9706 23.344C48.7864 20.4314 50.2008 18.7489 47.0653 16.2892C45.5272 15.084 41.9499 14.277 40.6436 12.8354Z" fill="#CFCFCF"/>
</g>
<path d="M70.4286 85.5805C69.5838 83.4242 67.5385 81.7087 67.0857 80.9683C66.5225 80.0462 28.4072 32.5865 27.5014 30.6505C26.5959 28.7113 24.6921 27.9334 23.5801 15.474C23.5801 15.474 23.8078 14.0895 23.6492 12.3479C23.4188 9.8201 22.379 6.53239 18.6594 5.60553C12.3726 4.03505 6.51939 3.61711 6.53353 5.27638L14.5758 11.2633L14.3129 13.814L4.95944 26.8324L4.20486 27.8804C4.20486 27.8804 3.50749 29.2841 5.69493 29.5095C6.4191 29.5843 7.84546 29.8899 9.56643 30.4167C13.0486 31.4809 17.7464 33.4402 20.2985 36.1722C24.1171 40.2485 58.8254 89.1352 58.8254 89.1352C58.8254 89.1352 62.6492 96.5567 68.6244 91.4205C71.0087 89.3673 71.1129 87.3293 70.4286 85.5805ZM65.1696 83.3341C67.2754 83.5509 68.8098 85.4314 68.5926 87.54C68.3758 89.6458 66.4894 91.1797 64.3837 90.9629C62.278 90.7461 60.7469 88.8599 60.9638 86.7544C61.1813 84.6454 63.0639 83.1169 65.1696 83.3341Z" fill="#939292"/>
<path d="M23.649 12.3475L9.56748 30.4156C7.84466 29.8898 6.41981 29.5829 5.69532 29.5081C3.50756 29.2827 4.2048 27.8816 4.2048 27.8816L14.3121 13.8145L14.575 11.2632L6.53362 5.27529C6.53099 5.00426 6.68592 4.78802 6.9737 4.62426L6.9853 4.61983C8.47216 3.78642 13.4167 4.29287 18.6594 5.60412C22.3801 6.53219 23.4203 9.8202 23.649 12.3475Z" fill="#7C7C7C"/>
<path opacity="0.5" d="M68.6242 91.4203C62.6486 96.5569 58.8251 89.1351 58.8251 89.1351C58.8251 89.1351 24.1165 40.2483 20.2982 36.172C17.7461 33.4403 13.0483 31.4807 9.56615 30.4165C7.84516 29.8894 6.4188 29.5838 5.69466 29.5093C3.50756 29.2842 4.20458 27.8802 4.20458 27.8802L4.95916 26.8322C4.95916 26.8322 17.0704 29.6701 20.1754 33.7667C23.2804 37.8637 57.9012 85.5479 57.9012 85.5479C57.9012 85.5479 62.6619 94.9736 67.4439 91.3513C69.5481 89.7574 70.29 87.5767 70.428 85.5803C71.112 87.3295 71.0078 89.3675 68.6242 91.4203Z" fill="#939292"/>
<path d="M21.9588 24.5512C21.9588 24.5512 17.2612 19.4613 16.8286 19.0485C16.396 18.6353 15.8054 18.2594 14.88 19.5652C13.955 20.871 11.3822 24.3829 11.3822 24.3829C11.3822 24.3829 10.6931 24.6826 12.8066 26.2598C14.9205 27.8371 17.6519 29.4504 17.6519 29.4504L21.8204 24.9928L21.9588 24.5512Z" fill="#5D5D5D"/>
<path d="M16.5106 20.0793L12.2266 25.8208L15.9581 28.605L20.2421 22.8636L16.5106 20.0793Z" fill="#717171"/>
<path d="M17.8746 27.2935L17.2727 28.1003L12.2063 24.791L12.8081 23.9842L17.8746 27.2935Z" fill="#C3C2C2"/>
<path d="M19.109 25.6332L18.5071 26.4399L13.4406 23.1304L14.0425 22.3236L19.109 25.6332Z" fill="#C3C2C2"/>
<path d="M20.3515 23.973L19.7496 24.7798L14.6828 21.4702L15.285 20.6634L20.3515 23.973Z" fill="#C3C2C2"/>
<path d="M10.7671 18.7418L6.98256 24.0115L6.15321 25.1669C2.72229 22.8211 0.71347 17.0207 0.770584 14.697C0.82466 12.3757 1.11532 11.3499 1.80531 11.7886C1.92988 11.8679 2.30185 12.1466 2.82957 12.5492C5.2178 14.3706 10.7671 18.7418 10.7671 18.7418Z" fill="#5D5D5D"/>
<path d="M6.98256 24.012L6.15321 25.1674C2.72229 22.8216 0.713469 17.0212 0.770584 14.6975C0.824659 12.3762 1.11532 11.3504 1.80531 11.7891C1.92988 11.8684 2.30185 12.147 2.82957 12.5497C2.82957 12.5497 1.99342 19.8088 6.98256 24.012Z" fill="#717171"/>
<path d="M61.8301 79.6721C61.4849 81.1121 60.5355 81.7107 59.5441 81.9202C58.0747 82.2304 56.5657 81.587 55.6795 80.3728L23.5996 36.3272C22.2194 34.4333 17.6506 29.4508 17.6506 29.4508L19.2462 27.7427L21.8194 24.9922C22.4089 26.4315 27.1997 33.5647 27.1997 33.5647L61.0744 76.4224C61.3554 76.7777 61.5728 77.176 61.7176 77.5967C61.9462 78.2586 61.9957 78.9778 61.8301 79.6721Z" fill="#7C7C7C"/>
<path d="M61.7199 77.597C61.2615 78.3082 60.5763 78.6548 59.8671 78.8052C58.398 79.1154 56.8887 78.472 56.0025 77.2578L23.923 33.2125C23.0113 31.9606 20.7071 29.363 19.2488 27.7431L21.8219 24.9926C22.4114 26.4319 27.2022 33.565 27.2022 33.565L61.077 76.4227C61.3576 76.7781 61.5754 77.1764 61.7199 77.597Z" fill="#C3C2C2"/>
<path d="M14.3101 13.8148L14.5729 11.2635L6.53157 5.27553C6.52893 5.0045 6.68386 4.78826 6.97164 4.62451L6.98325 4.62007L15.8435 10.1948L14.3101 13.8148Z" fill="#717171"/>
</svg>
