<svg width="24" height="24" viewBox="0 0 24 24" fill="none" xmlns="http://www.w3.org/2000/svg">
<path d="M4 7.5C4 7.264 4 7.146 4.073 7.073C4.146 7 4.264 7 4.5 7H19.5C19.736 7 19.854 7 19.927 7.073C20 7.146 20 7.264 20 7.5V7.752C20 7.842 20 7.888 19.986 7.928C19.9739 7.96246 19.9545 7.99386 19.929 8.02C19.899 8.05 19.859 8.07 19.778 8.111C19.127 8.436 18.802 8.599 18.565 8.843C18.3625 9.05152 18.2079 9.30165 18.112 9.576C18 9.896 18 10.26 18 10.988V16C18 17.886 18 18.828 17.414 19.414C16.828 20 15.886 20 14 20H10C8.114 20 7.172 20 6.586 19.414C6 18.828 6 17.886 6 16V10.988C6 10.26 6 9.896 5.888 9.576C5.79205 9.30165 5.63747 9.05152 5.435 8.843C5.198 8.599 4.873 8.436 4.222 8.111C4.16746 8.08827 4.11658 8.0576 4.071 8.02C4.04551 7.99386 4.02605 7.96246 4.014 7.928C4 7.888 4 7.842 4 7.752V7.5Z" fill="#0E7B68"/>
<path d="M10.0679 4.37016C10.1819 4.26416 10.4329 4.17016 10.7829 4.10316C11.1846 4.03184 11.5919 3.99737 11.9999 4.00016C12.4399 4.00016 12.8679 4.03616 13.2169 4.10316C13.5659 4.17016 13.8169 4.26416 13.9319 4.37116" stroke="#0E7B68" stroke-linecap="round"/>
<path d="M15 11.5C15 11.2239 14.7761 11 14.5 11C14.2239 11 14 11.2239 14 11.5V16.5C14 16.7761 14.2239 17 14.5 17C14.7761 17 15 16.7761 15 16.5V11.5Z" fill="white"/>
<path d="M10 11.5C10 11.2239 9.77614 11 9.5 11C9.22386 11 9 11.2239 9 11.5V16.5C9 16.7761 9.22386 17 9.5 17C9.77614 17 10 16.7761 10 16.5V11.5Z" fill="white"/>
</svg>
