<svg width="39" height="39" viewBox="0 0 39 39" fill="none" xmlns="http://www.w3.org/2000/svg">
<path d="M0.128906 2.79338C0.128906 1.25044 1.39819 0 2.96429 0H35.903C37.4691 0 38.7384 1.25044 38.7384 2.79338V36.2066C38.7384 37.7496 37.4691 39 35.903 39H2.96429C1.39819 39 0.128906 37.7496 0.128906 36.2066V2.79338Z" fill="#0C0B0E"/>
<path d="M26.0054 8.58008H29.525L21.8374 17.8499L30.9143 30.4201H23.7824L18.2252 22.8003L11.8343 30.4201H8.31467L16.558 20.5193L7.85156 8.58008H15.1687L20.2165 15.5689L26.0054 8.58008ZM24.755 28.1875H26.7L14.1035 10.667H11.9732L24.755 28.1875Z" fill="white"/>
</svg>
