<svg width="24" height="24" viewBox="0 0 24 24" fill="none" xmlns="http://www.w3.org/2000/svg">
<path d="M22.1642 5.65496C21.4009 5.99265 20.5912 6.21442 19.7622 6.31295C20.6359 5.79038 21.2899 4.96796 21.6022 3.99895C20.7822 4.48695 19.8832 4.82895 18.9462 5.01395C18.3168 4.34053 17.4827 3.89391 16.5733 3.74353C15.6638 3.59315 14.7302 3.74745 13.9176 4.18241C13.1048 4.61737 12.4587 5.30863 12.0794 6.14875C11.7001 6.98886 11.609 7.93073 11.8203 8.82795C10.1574 8.7446 8.53058 8.31247 7.04553 7.55961C5.56049 6.80675 4.25037 5.74999 3.20025 4.45795C2.82854 5.09641 2.6332 5.82218 2.63425 6.56096C2.63425 8.01095 3.37225 9.29195 4.49425 10.0419C3.83026 10.021 3.18088 9.84173 2.60025 9.51895V9.57095C2.60045 10.5366 2.93462 11.4725 3.54609 12.22C4.15757 12.9674 5.00873 13.4804 5.95525 13.6719C5.33886 13.839 4.69255 13.8636 4.06525 13.7439C4.33211 14.5752 4.85225 15.3021 5.55284 15.823C6.25342 16.3439 7.09938 16.6327 7.97225 16.6489C7.10473 17.3303 6.11142 17.8339 5.04913 18.1311C3.98683 18.4283 2.87637 18.5132 1.78125 18.3809C3.69294 19.6104 5.91834 20.263 8.19125 20.2609C15.8842 20.2609 20.0912 13.8879 20.0912 8.36095C20.0912 8.18095 20.0862 7.99895 20.0782 7.82095C20.8971 7.22911 21.6038 6.49598 22.1652 5.65595L22.1642 5.65496Z" fill="#201A2D"/>
</svg>
